M48
; DRILL file {KiCad 8.0.1} date 2024-05-06T01:07:55+0200
; FORMAT={-:-/ absolute / inch / decimal}
; #@! TF.CreationDate,2024-05-06T01:07:55+02:00
; #@! TF.GenerationSoftware,Kicad,Pcbnew,8.0.1
; #@! TF.FileFunction,Plated,1,4,PTH
FMAT,2
INCH
; #@! TA.AperFunction,Plated,PTH,ViaDrill
T1C0.0118
; #@! TA.AperFunction,Plated,PTH,ViaDrill
T2C0.0157
; #@! TA.AperFunction,Plated,PTH,ViaDrill
T3C0.0197
; #@! TA.AperFunction,Plated,PTH,ComponentDrill
T4C0.0236
; #@! TA.AperFunction,Plated,PTH,ComponentDrill
T5C0.0350
; #@! TA.AperFunction,Plated,PTH,ViaDrill
T6C0.0394
; #@! TA.AperFunction,Plated,PTH,ComponentDrill
T7C0.0394
; #@! TA.AperFunction,Plated,PTH,ComponentDrill
T8C0.0551
; #@! TA.AperFunction,Plated,PTH,ComponentDrill
T9C0.0630
; #@! TA.AperFunction,Plated,PTH,ComponentDrill
T10C0.0670
; #@! TA.AperFunction,Plated,PTH,ComponentDrill
T11C0.1693
%
G90
G05
T1
X3.4369Y4.1762
X3.47Y7.525
X3.47Y6.455
X3.5113Y4.2443
X3.5369Y4.1162
X3.5713Y4.3509
X3.6Y2.71
X3.6113Y4.3509
X3.6187Y4.1409
X3.6713Y4.2428
X3.7069Y4.4962
X3.7469Y4.1789
X3.75Y4.34
X3.8266Y4.2461
X3.8469Y4.1162
X3.8866Y4.3528
X3.9266Y4.3528
X3.934Y4.1428
X3.9866Y4.2447
X3.9969Y4.4462
X4.03Y7.95
X4.0569Y4.1768
X4.06Y4.34
X4.07Y7.11
X4.0869Y6.0162
X4.0869Y5.5662
X4.1269Y6.2262
X4.1269Y5.7662
X4.1313Y4.2443
X4.1569Y4.1162
X4.1913Y4.3509
X4.2313Y4.3509
X4.2387Y4.1409
X4.245Y6.9
X4.25Y7.2
X4.2569Y5.5162
X4.2731Y7.05
X4.29Y2.635
X4.2913Y4.2428
X4.2969Y5.9962
X4.3069Y5.0562
X4.3069Y4.9462
X4.315Y2.73
X4.3469Y4.4762
X4.37Y4.34
X4.37Y2.22
X4.3769Y4.167
X4.38Y4.66
X4.4Y7.11
X4.4Y6.89
X4.4169Y5.0562
X4.4169Y4.9462
X4.43Y7.2232
X4.4319Y5.2628
X4.451Y4.2343
X4.4669Y4.1062
X4.499Y7.2582
X4.505Y4.835
X4.511Y4.3409
X4.515Y2.975
X4.525Y7.19
X4.53Y7.12
X4.54Y4.945
X4.545Y5.06
X4.55Y4.665
X4.551Y4.3409
X4.5569Y5.2162
X4.5584Y4.1309
X4.562Y4.9615
X4.57Y2.645
X4.5719Y6.0262
X4.5754Y4.9857
X4.58Y5.115
X4.58Y4.81
X4.58Y4.75
X4.5838Y5.0119
X4.595Y7.5032
X4.5969Y5.5962
X4.6069Y6.2262
X4.611Y4.2328
X4.635Y7.3532
X4.665Y7.3932
X4.6669Y4.4862
X4.6769Y5.7662
X4.6769Y4.1662
X4.69Y4.53
X4.7Y7.5582
X4.745Y7.3282
X4.7769Y6.0062
X4.7769Y5.5162
X4.7769Y4.2162
X4.83Y7.3782
X4.855Y6.9482
X4.91Y2.72
X4.91Y2.6
X4.945Y7.0382
X4.98Y2.21
X5.035Y7.2782
X5.105Y2.96
X5.18Y2.63
X5.23Y3.71
X5.3044Y3.7781
X5.33Y3.65
X5.3644Y3.8848
X5.4044Y3.8848
X5.4118Y3.6748
X5.4644Y3.7767
X5.5Y4.03
X5.54Y3.7127
X5.5431Y3.8738
X5.6198Y3.78
X5.64Y3.65
X5.6798Y3.8867
X5.7198Y3.8867
X5.7272Y3.6767
X5.76Y2.86
X5.76Y2.135
X5.7798Y3.7785
X5.79Y3.98
X5.85Y3.7106
X5.8531Y3.8738
X5.88Y5.55
X5.88Y5.1
X5.92Y5.76
X5.92Y5.3
X5.9244Y3.7781
X5.95Y3.65
X5.98Y2.885
X5.9844Y3.8848
X6.015Y3.11
X6.015Y2.7891
X6.0244Y3.8848
X6.0318Y3.6748
X6.05Y5.05
X6.0844Y3.7767
X6.09Y5.53
X6.1Y4.59
X6.1Y4.48
X6.14Y4.01
X6.15Y2.81
X6.1631Y3.8738
X6.17Y3.7008
X6.175Y4.2
X6.21Y4.59
X6.21Y4.48
X6.225Y4.7967
X6.2442Y3.7681
X6.26Y3.64
X6.28Y2.7207
X6.29Y6.94
X6.3Y4.37
X6.3042Y3.8748
X6.34Y4.2
X6.3442Y3.8748
X6.345Y4.48
X6.35Y4.75
X6.3516Y3.6648
X6.365Y5.56
X6.3696Y4.4923
X6.37Y4.35
X6.375Y4.65
X6.39Y5.13
X6.395Y4.51
X6.4Y5.76
X6.4042Y3.7667
X6.46Y4.02
X6.465Y4.57
X6.47Y5.3
X6.47Y4.61
X6.47Y3.7
X6.4831Y4.0638
X6.57Y5.54
X6.57Y5.05
X6.57Y3.75
X6.62Y6.93
X6.735Y3.015
X6.74Y2.89
X6.875Y4.68
X6.875Y3.11
X6.9268Y2.8863
X6.965Y3.095
X6.965Y2.7903
X7.04Y6.93
X7.0968Y2.8113
X7.12Y6.805
X7.12Y6.115
X7.2Y5.235
X7.2Y2.955
X7.225Y5.51
X7.2268Y2.722
X7.23Y5.58
X7.24Y3.095
X7.255Y5.84
X7.295Y5.78
X7.31Y4.77
X7.315Y5.14
X7.36Y6.92
X7.37Y5.14
X7.3781Y5.4881
X7.385Y5.4
X7.385Y4.455
X7.4112Y5.4912
X7.45Y5.505
X7.46Y4.39
X7.465Y4.77
X7.47Y3.48
X7.47Y3.015
X7.48Y5.175
X7.48Y4.9682
X7.51Y5.58
X7.525Y5.13
X7.5325Y5.4225
X7.5446Y4.7626
X7.55Y6.195
X7.595Y4.715
X7.6Y4.59
X7.605Y5.365
X7.615Y3.01
X7.635Y5.29
X7.64Y4.355
X7.65Y6.43
X7.65Y4.06
X7.67Y4.785
X7.685Y5.275
X7.685Y3.38
X7.6868Y2.89
X7.7094Y4.095
X7.71Y5.055
X7.72Y5.295
X7.724Y5.337
X7.735Y7.255
X7.735Y5.645
X7.745Y5.06
X7.75Y4.505
X7.75Y3.045
X7.755Y5.405
X7.765Y5.095
X7.775Y3.13
X7.79Y7.28
X7.79Y5.645
X7.79Y5.43
X7.79Y4.93
X7.7932Y4.6318
X7.8Y5.115
X7.8Y3.105
X7.817Y5.498
X7.825Y3.0824
X7.835Y5.42
X7.845Y5.88
X7.845Y5.645
X7.85Y3.33
X7.87Y6.31
X7.875Y3.43
X7.8768Y2.8863
X7.88Y5.74
X7.89Y5.21
X7.895Y5.505
X7.9Y3.535
X7.9Y2.955
X7.9Y2.7903
X7.92Y6.76
X7.92Y5.8
X7.925Y5.14
X7.925Y4.315
X7.955Y6.115
X7.955Y5.8
X7.955Y5.17
X7.97Y4.785
X7.97Y4.285
X7.98Y6.705
X7.98Y6.415
X7.9898Y5.845
X7.99Y6.195
X7.9994Y7.5711
X8.0Y4.8425
X8.005Y4.255
X8.0174Y5.845
X8.03Y6.415
X8.04Y5.195
X8.04Y4.905
X8.045Y5.845
X8.045Y4.225
X8.0468Y2.8113
X8.065Y4.595
X8.08Y6.705
X8.08Y6.415
X8.08Y5.845
X8.08Y4.9017
X8.115Y4.655
X8.115Y4.23
X8.115Y2.995
X8.125Y5.7778
X8.125Y5.5989
X8.1294Y7.4819
X8.13Y6.705
X8.13Y6.415
X8.15Y5.16
X8.165Y4.6
X8.17Y5.845
X8.1768Y2.722
X8.18Y6.705
X8.18Y6.415
X8.2Y5.845
X8.235Y4.42
X8.235Y4.275
X8.24Y6.23
X8.265Y6.27
X8.27Y3.28
X8.27Y2.86
X8.275Y7.5028
X8.275Y7.28
X8.285Y4.08
X8.2994Y7.4069
X8.31Y5.055
X8.315Y4.11
X8.315Y3.23
X8.36Y7.1
X8.36Y4.345
X8.385Y7.0
X8.41Y6.9
X8.42Y7.2
X8.42Y6.95
X8.4269Y5.4881
X8.435Y6.3
X8.435Y4.56
X8.435Y4.33
X8.45Y5.59
X8.4574Y3.305
X8.46Y6.85
X8.46Y3.08
X8.465Y7.235
X8.48Y3.38
X8.48Y3.105
X8.485Y4.51
X8.505Y3.48
X8.505Y3.13
X8.515Y7.43
X8.515Y7.05
X8.56Y6.59
X8.56Y6.475
X8.57Y6.8
X8.59Y4.69
X8.605Y5.42
X8.605Y5.325
X8.615Y4.27
X8.62Y4.145
X8.63Y5.055
X8.675Y4.18
X8.68Y4.605
X8.735Y5.105
X8.785Y7.27
X8.785Y5.88
X8.8025Y5.1775
X8.8206Y2.885
X8.89Y6.85
X8.89Y6.3
X8.92Y6.95
X8.92Y6.27
X8.945Y7.05
X8.945Y6.23
X8.99Y7.065
X8.99Y6.8
X8.9906Y2.81
X9.0094Y7.5811
X9.02Y4.84
X9.05Y3.23
X9.05Y2.86
X9.065Y4.795
X9.105Y3.045
X9.105Y2.95
X9.1206Y2.7207
X9.135Y5.755
X9.1394Y7.4918
X9.165Y3.035
X9.17Y4.42
X9.305Y2.135
X9.3094Y7.4168
X9.3276Y4.99
X9.3276Y3.62
X9.3503Y5.09
X9.3503Y3.72
X9.385Y7.065
X9.4994Y7.415
X9.5Y7.235
X9.765Y2.8853
X9.775Y5.28
X9.78Y3.89
X9.79Y6.42
X9.825Y5.23
X9.84Y6.59
X9.935Y3.86
X9.935Y2.8103
X9.985Y5.135
X9.99Y5.43
X10.005Y7.5811
X10.02Y4.33
X10.05Y6.59
X10.065Y2.721
X10.07Y3.785
X10.075Y4.035
X10.125Y5.145
X10.13Y5.44
X10.135Y7.4919
X10.155Y4.33
X10.21Y3.785
X10.215Y4.145
X10.235Y7.54
X10.235Y7.27
X10.25Y6.59
X10.265Y5.25
X10.305Y7.4169
X10.32Y3.89
X10.495Y7.41
X10.495Y7.2
X10.9Y7.53
X10.9Y2.71
T2
X3.74Y7.04
X4.4882Y3.5039
X7.8543Y7.3622
T3
X3.4069Y5.4912
X3.4069Y5.1912
X3.4069Y5.0162
X3.4069Y4.7162
X3.4969Y3.9462
X3.6969Y3.9462
X3.8069Y5.4912
X3.8069Y5.1912
X3.8069Y5.0162
X3.8069Y4.7162
X3.8169Y3.9462
X4.0069Y3.9462
X4.1269Y3.9462
X4.3169Y3.9462
X4.32Y2.09
X4.3606Y4.9999
X4.4269Y6.2362
X4.4269Y5.7662
X4.4269Y5.4662
X4.4369Y5.9262
X4.4369Y3.9462
X4.55Y2.25
X4.59Y2.25
X4.61Y2.09
X4.6269Y3.9362
X4.67Y7.23
X4.67Y7.12
X4.78Y7.23
X4.78Y7.12
X4.9069Y6.2362
X4.9069Y5.9362
X4.9069Y5.4662
X4.9169Y5.7662
X4.93Y2.08
X5.15Y2.25
X5.19Y2.25
X5.2Y5.025
X5.2Y4.725
X5.2Y4.55
X5.2Y4.25
X5.22Y2.08
X5.29Y3.48
X5.4694Y6.3294
X5.475Y7.3094
X5.49Y3.48
X5.6Y5.025
X5.6Y4.725
X5.6Y4.55
X5.6Y4.25
X5.61Y3.48
X5.66Y7.4
X5.8Y3.48
X5.92Y3.48
X6.11Y3.48
X6.1538Y4.5337
X6.22Y5.77
X6.22Y5.3
X6.22Y5.0
X6.23Y5.46
X6.23Y3.48
X6.42Y3.47
X6.7Y5.77
X6.7Y5.47
X6.7Y5.0
X6.71Y5.3
T4
X3.4557Y8.0315
X3.4557Y2.2835
X3.4929Y8.1213
X3.4929Y7.9417
X3.4929Y2.3732
X3.4929Y2.1937
X3.5827Y8.1585
X3.5827Y7.9045
X3.5827Y2.4104
X3.5827Y2.1565
X3.6725Y8.1213
X3.6725Y7.9417
X3.6725Y2.3732
X3.6725Y2.1937
X3.7096Y8.0315
X3.7096Y2.2835
X4.8337Y3.6614
X4.8708Y3.7512
X4.8708Y3.5716
X4.9606Y3.7884
X4.9606Y3.5344
X5.0504Y3.7512
X5.0504Y3.5716
X5.0876Y3.6614
X7.3533Y7.2441
X7.3905Y7.3339
X7.3905Y7.1543
X7.4803Y7.3711
X7.4803Y7.1171
X7.5701Y7.3339
X7.5701Y7.1543
X7.6073Y7.2441
X10.7785Y8.0315
X10.7785Y2.2835
X10.8157Y8.1213
X10.8157Y7.9417
X10.8157Y2.3732
X10.8157Y2.1937
X10.9055Y8.1585
X10.9055Y7.9045
X10.9055Y2.4104
X10.9055Y2.1565
X10.9953Y8.1213
X10.9953Y7.9417
X10.9953Y2.3732
X10.9953Y2.1937
X11.0325Y8.0315
X11.0325Y2.2835
T5
X3.4685Y7.2592
X3.4685Y7.1593
X3.4685Y6.8332
X3.4685Y6.7332
X3.8785Y7.1712
X3.8785Y7.0713
X3.8785Y6.9712
X3.8785Y6.8712
X3.9785Y7.1212
X3.9785Y7.0213
X3.9785Y6.9212
X3.9785Y6.8213
T6
X4.725Y7.1724
X9.9Y5.49
X9.9Y5.42
X9.91Y6.83
X9.91Y6.76
X9.98Y4.11
X9.98Y4.04
T7
X4.54Y2.5102
X4.54Y2.4102
X5.14Y2.4902
X5.14Y2.3902
X5.45Y8.175
X5.45Y8.075
X5.45Y7.975
X5.45Y7.875
X7.55Y6.6502
X7.55Y6.5502
X9.24Y6.94
X9.24Y6.84
X9.24Y6.74
X9.24Y6.64
X9.24Y6.54
X9.24Y6.44
X9.24Y6.34
X9.24Y6.24
X9.24Y6.14
X9.24Y6.04
X9.24Y5.94
X9.24Y5.84
X9.24Y5.59
X9.24Y5.49
X9.24Y5.39
X9.24Y5.29
X9.24Y5.19
X9.24Y5.09
X9.24Y4.99
X9.24Y4.89
X9.24Y4.79
X9.24Y4.69
X9.24Y4.59
X9.24Y4.49
X9.24Y4.22
X9.24Y4.12
X9.24Y4.02
X9.24Y3.92
X9.24Y3.82
X9.24Y3.72
X9.24Y3.62
X9.24Y3.52
X9.24Y3.42
X9.24Y3.32
X9.24Y3.22
X9.24Y3.12
X9.44Y5.84
X9.44Y4.49
X9.44Y3.12
X9.54Y5.84
X9.54Y4.49
X9.54Y3.12
X9.64Y5.84
X9.64Y4.49
X9.64Y3.12
X9.74Y5.84
X9.74Y4.49
X9.74Y3.12
X10.44Y6.74
X10.44Y6.64
X10.44Y6.54
X10.44Y6.44
X10.44Y6.34
X10.44Y6.24
X10.44Y6.14
X10.44Y6.04
X10.44Y5.39
X10.44Y5.29
X10.44Y5.19
X10.44Y5.09
X10.44Y4.99
X10.44Y4.89
X10.44Y4.79
X10.44Y4.69
X10.44Y4.02
X10.44Y3.92
X10.44Y3.82
X10.44Y3.72
X10.44Y3.62
X10.44Y3.52
X10.44Y3.42
X10.44Y3.32
T8
X5.96Y2.2687
X6.16Y2.2687
X6.25Y8.0313
X6.36Y2.2687
X6.45Y8.0313
X6.56Y2.2687
X6.9068Y2.27
X6.97Y8.0313
X7.1068Y2.27
X7.17Y8.0313
X7.3068Y2.27
X7.5068Y2.27
X7.7194Y8.0231
X7.8568Y2.27
X7.9194Y8.0231
X8.0568Y2.27
X8.1194Y8.0231
X8.2568Y2.27
X8.3194Y8.0231
X8.4568Y2.27
X8.7294Y8.0331
X8.8006Y2.2687
X8.9294Y8.0331
X9.0006Y2.2687
X9.1294Y8.0331
X9.2006Y2.2687
X9.3294Y8.0331
X9.4006Y2.2687
X9.725Y8.0331
X9.745Y2.2691
X9.925Y8.0331
X9.945Y2.2691
X10.125Y8.0331
X10.145Y2.2691
X10.325Y8.0331
X10.345Y2.2691
X10.93Y6.5
X10.93Y6.3
X10.93Y6.1
X10.93Y5.9
X10.9313Y5.15
X10.9313Y4.95
X10.9313Y4.75
X10.9313Y4.55
X10.9313Y3.75
X10.9313Y3.55
X10.9313Y3.35
X10.9313Y3.15
T9
X6.2731Y7.67
X6.2731Y7.1397
X6.4069Y7.67
X6.4069Y7.1397
X6.9831Y7.6764
X6.9831Y7.1461
X7.1169Y7.6764
X7.1169Y7.1461
T10
X3.7485Y7.3053
X3.7485Y6.6872
T11
X3.5827Y8.0315
X3.5827Y2.2835
X4.9606Y3.6614
X7.4803Y7.2441
X10.9055Y8.0315
X10.9055Y2.2835
M30
