%TF.GenerationSoftware,KiCad,Pcbnew,8.0.1*%
%TF.CreationDate,2024-05-02T15:47:01+02:00*%
%TF.ProjectId,launchpad-controller-v2,6c61756e-6368-4706-9164-2d636f6e7472,rev?*%
%TF.SameCoordinates,Original*%
%TF.FileFunction,Legend,Bot*%
%TF.FilePolarity,Positive*%
%FSLAX46Y46*%
G04 Gerber Fmt 4.6, Leading zero omitted, Abs format (unit mm)*
G04 Created by KiCad (PCBNEW 8.0.1) date 2024-05-02 15:47:01*
%MOMM*%
%LPD*%
G01*
G04 APERTURE LIST*
G04 Aperture macros list*
%AMRoundRect*
0 Rectangle with rounded corners*
0 $1 Rounding radius*
0 $2 $3 $4 $5 $6 $7 $8 $9 X,Y pos of 4 corners*
0 Add a 4 corners polygon primitive as box body*
4,1,4,$2,$3,$4,$5,$6,$7,$8,$9,$2,$3,0*
0 Add four circle primitives for the rounded corners*
1,1,$1+$1,$2,$3*
1,1,$1+$1,$4,$5*
1,1,$1+$1,$6,$7*
1,1,$1+$1,$8,$9*
0 Add four rect primitives between the rounded corners*
20,1,$1+$1,$2,$3,$4,$5,0*
20,1,$1+$1,$4,$5,$6,$7,0*
20,1,$1+$1,$6,$7,$8,$9,0*
20,1,$1+$1,$8,$9,$2,$3,0*%
G04 Aperture macros list end*
%ADD10C,0.150000*%
%ADD11C,0.508000*%
%ADD12C,0.120000*%
%ADD13C,0.152400*%
%ADD14C,0.900000*%
%ADD15C,8.600000*%
%ADD16C,2.400000*%
%ADD17RoundRect,0.249999X-0.790001X-1.550001X0.790001X-1.550001X0.790001X1.550001X-0.790001X1.550001X0*%
%ADD18O,2.080000X3.600000*%
%ADD19O,1.700000X1.700000*%
%ADD20RoundRect,0.249999X1.550001X-0.790001X1.550001X0.790001X-1.550001X0.790001X-1.550001X-0.790001X0*%
%ADD21O,3.600000X2.080000*%
%ADD22RoundRect,0.249999X0.790001X1.550001X-0.790001X1.550001X-0.790001X-1.550001X0.790001X-1.550001X0*%
%ADD23R,1.700000X1.700000*%
%ADD24C,1.397000*%
%ADD25C,2.209800*%
%ADD26RoundRect,0.237500X-0.237500X0.250000X-0.237500X-0.250000X0.237500X-0.250000X0.237500X0.250000X0*%
%ADD27RoundRect,0.237500X-0.044194X-0.380070X0.380070X0.044194X0.044194X0.380070X-0.380070X-0.044194X0*%
%ADD28RoundRect,0.237500X-0.237500X0.300000X-0.237500X-0.300000X0.237500X-0.300000X0.237500X0.300000X0*%
%ADD29RoundRect,0.237500X0.300000X0.237500X-0.300000X0.237500X-0.300000X-0.237500X0.300000X-0.237500X0*%
%ADD30RoundRect,0.237500X-0.300000X-0.237500X0.300000X-0.237500X0.300000X0.237500X-0.300000X0.237500X0*%
%ADD31RoundRect,0.237500X-0.250000X-0.237500X0.250000X-0.237500X0.250000X0.237500X-0.250000X0.237500X0*%
%ADD32RoundRect,0.237500X-0.380070X0.044194X0.044194X-0.380070X0.380070X-0.044194X-0.044194X0.380070X0*%
%ADD33R,1.800000X1.500000*%
%ADD34RoundRect,0.237500X0.237500X-0.300000X0.237500X0.300000X-0.237500X0.300000X-0.237500X-0.300000X0*%
%ADD35RoundRect,0.075000X-0.415425X-0.521491X0.521491X0.415425X0.415425X0.521491X-0.521491X-0.415425X0*%
%ADD36RoundRect,0.075000X0.415425X-0.521491X0.521491X-0.415425X-0.415425X0.521491X-0.521491X0.415425X0*%
%ADD37RoundRect,0.237500X0.250000X0.237500X-0.250000X0.237500X-0.250000X-0.237500X0.250000X-0.237500X0*%
%ADD38RoundRect,0.250000X-0.450000X0.325000X-0.450000X-0.325000X0.450000X-0.325000X0.450000X0.325000X0*%
%ADD39R,0.250000X0.600000*%
%ADD40R,0.600000X0.250000*%
%ADD41R,4.700001X4.700001*%
%ADD42RoundRect,0.237500X0.237500X-0.250000X0.237500X0.250000X-0.237500X0.250000X-0.237500X-0.250000X0*%
%ADD43RoundRect,0.237500X0.380070X-0.044194X-0.044194X0.380070X-0.380070X0.044194X0.044194X-0.380070X0*%
%ADD44RoundRect,0.237500X0.044194X0.380070X-0.380070X-0.044194X-0.044194X-0.380070X0.380070X0.044194X0*%
G04 APERTURE END LIST*
D10*
X120480057Y192585180D02*
X120813390Y193061371D01*
X121051485Y192585180D02*
X121051485Y193585180D01*
X121051485Y193585180D02*
X120670533Y193585180D01*
X120670533Y193585180D02*
X120575295Y193537561D01*
X120575295Y193537561D02*
X120527676Y193489942D01*
X120527676Y193489942D02*
X120480057Y193394704D01*
X120480057Y193394704D02*
X120480057Y193251847D01*
X120480057Y193251847D02*
X120527676Y193156609D01*
X120527676Y193156609D02*
X120575295Y193108990D01*
X120575295Y193108990D02*
X120670533Y193061371D01*
X120670533Y193061371D02*
X121051485Y193061371D01*
X119908628Y193156609D02*
X120003866Y193204228D01*
X120003866Y193204228D02*
X120051485Y193251847D01*
X120051485Y193251847D02*
X120099104Y193347085D01*
X120099104Y193347085D02*
X120099104Y193394704D01*
X120099104Y193394704D02*
X120051485Y193489942D01*
X120051485Y193489942D02*
X120003866Y193537561D01*
X120003866Y193537561D02*
X119908628Y193585180D01*
X119908628Y193585180D02*
X119718152Y193585180D01*
X119718152Y193585180D02*
X119622914Y193537561D01*
X119622914Y193537561D02*
X119575295Y193489942D01*
X119575295Y193489942D02*
X119527676Y193394704D01*
X119527676Y193394704D02*
X119527676Y193347085D01*
X119527676Y193347085D02*
X119575295Y193251847D01*
X119575295Y193251847D02*
X119622914Y193204228D01*
X119622914Y193204228D02*
X119718152Y193156609D01*
X119718152Y193156609D02*
X119908628Y193156609D01*
X119908628Y193156609D02*
X120003866Y193108990D01*
X120003866Y193108990D02*
X120051485Y193061371D01*
X120051485Y193061371D02*
X120099104Y192966133D01*
X120099104Y192966133D02*
X120099104Y192775657D01*
X120099104Y192775657D02*
X120051485Y192680419D01*
X120051485Y192680419D02*
X120003866Y192632800D01*
X120003866Y192632800D02*
X119908628Y192585180D01*
X119908628Y192585180D02*
X119718152Y192585180D01*
X119718152Y192585180D02*
X119622914Y192632800D01*
X119622914Y192632800D02*
X119575295Y192680419D01*
X119575295Y192680419D02*
X119527676Y192775657D01*
X119527676Y192775657D02*
X119527676Y192966133D01*
X119527676Y192966133D02*
X119575295Y193061371D01*
X119575295Y193061371D02*
X119622914Y193108990D01*
X119622914Y193108990D02*
X119718152Y193156609D01*
X119051485Y192585180D02*
X118861009Y192585180D01*
X118861009Y192585180D02*
X118765771Y192632800D01*
X118765771Y192632800D02*
X118718152Y192680419D01*
X118718152Y192680419D02*
X118622914Y192823276D01*
X118622914Y192823276D02*
X118575295Y193013752D01*
X118575295Y193013752D02*
X118575295Y193394704D01*
X118575295Y193394704D02*
X118622914Y193489942D01*
X118622914Y193489942D02*
X118670533Y193537561D01*
X118670533Y193537561D02*
X118765771Y193585180D01*
X118765771Y193585180D02*
X118956247Y193585180D01*
X118956247Y193585180D02*
X119051485Y193537561D01*
X119051485Y193537561D02*
X119099104Y193489942D01*
X119099104Y193489942D02*
X119146723Y193394704D01*
X119146723Y193394704D02*
X119146723Y193156609D01*
X119146723Y193156609D02*
X119099104Y193061371D01*
X119099104Y193061371D02*
X119051485Y193013752D01*
X119051485Y193013752D02*
X118956247Y192966133D01*
X118956247Y192966133D02*
X118765771Y192966133D01*
X118765771Y192966133D02*
X118670533Y193013752D01*
X118670533Y193013752D02*
X118622914Y193061371D01*
X118622914Y193061371D02*
X118575295Y193156609D01*
X224401233Y131725503D02*
X224468577Y131725503D01*
X224468577Y131725503D02*
X224603264Y131792847D01*
X224603264Y131792847D02*
X224670607Y131860190D01*
X224670607Y131860190D02*
X224737951Y131994877D01*
X224737951Y131994877D02*
X224737951Y132129564D01*
X224737951Y132129564D02*
X224704279Y132230579D01*
X224704279Y132230579D02*
X224603264Y132398938D01*
X224603264Y132398938D02*
X224502249Y132499953D01*
X224502249Y132499953D02*
X224333890Y132600969D01*
X224333890Y132600969D02*
X224232875Y132634640D01*
X224232875Y132634640D02*
X224098188Y132634640D01*
X224098188Y132634640D02*
X223963501Y132567297D01*
X223963501Y132567297D02*
X223896157Y132499953D01*
X223896157Y132499953D02*
X223828814Y132365266D01*
X223828814Y132365266D02*
X223828814Y132297923D01*
X223525768Y132129564D02*
X223054363Y131658160D01*
X223054363Y131658160D02*
X224064516Y131254099D01*
X222852333Y131456129D02*
X222414600Y131018396D01*
X222414600Y131018396D02*
X222919676Y130984724D01*
X222919676Y130984724D02*
X222818661Y130883709D01*
X222818661Y130883709D02*
X222784989Y130782694D01*
X222784989Y130782694D02*
X222784989Y130715350D01*
X222784989Y130715350D02*
X222818661Y130614335D01*
X222818661Y130614335D02*
X222987020Y130445976D01*
X222987020Y130445976D02*
X223088035Y130412305D01*
X223088035Y130412305D02*
X223155378Y130412305D01*
X223155378Y130412305D02*
X223256394Y130445976D01*
X223256394Y130445976D02*
X223458424Y130648007D01*
X223458424Y130648007D02*
X223492096Y130749022D01*
X223492096Y130749022D02*
X223492096Y130816366D01*
X187993257Y125167219D02*
X188040876Y125119600D01*
X188040876Y125119600D02*
X188183733Y125071980D01*
X188183733Y125071980D02*
X188278971Y125071980D01*
X188278971Y125071980D02*
X188421828Y125119600D01*
X188421828Y125119600D02*
X188517066Y125214838D01*
X188517066Y125214838D02*
X188564685Y125310076D01*
X188564685Y125310076D02*
X188612304Y125500552D01*
X188612304Y125500552D02*
X188612304Y125643409D01*
X188612304Y125643409D02*
X188564685Y125833885D01*
X188564685Y125833885D02*
X188517066Y125929123D01*
X188517066Y125929123D02*
X188421828Y126024361D01*
X188421828Y126024361D02*
X188278971Y126071980D01*
X188278971Y126071980D02*
X188183733Y126071980D01*
X188183733Y126071980D02*
X188040876Y126024361D01*
X188040876Y126024361D02*
X187993257Y125976742D01*
X187421828Y125643409D02*
X187517066Y125691028D01*
X187517066Y125691028D02*
X187564685Y125738647D01*
X187564685Y125738647D02*
X187612304Y125833885D01*
X187612304Y125833885D02*
X187612304Y125881504D01*
X187612304Y125881504D02*
X187564685Y125976742D01*
X187564685Y125976742D02*
X187517066Y126024361D01*
X187517066Y126024361D02*
X187421828Y126071980D01*
X187421828Y126071980D02*
X187231352Y126071980D01*
X187231352Y126071980D02*
X187136114Y126024361D01*
X187136114Y126024361D02*
X187088495Y125976742D01*
X187088495Y125976742D02*
X187040876Y125881504D01*
X187040876Y125881504D02*
X187040876Y125833885D01*
X187040876Y125833885D02*
X187088495Y125738647D01*
X187088495Y125738647D02*
X187136114Y125691028D01*
X187136114Y125691028D02*
X187231352Y125643409D01*
X187231352Y125643409D02*
X187421828Y125643409D01*
X187421828Y125643409D02*
X187517066Y125595790D01*
X187517066Y125595790D02*
X187564685Y125548171D01*
X187564685Y125548171D02*
X187612304Y125452933D01*
X187612304Y125452933D02*
X187612304Y125262457D01*
X187612304Y125262457D02*
X187564685Y125167219D01*
X187564685Y125167219D02*
X187517066Y125119600D01*
X187517066Y125119600D02*
X187421828Y125071980D01*
X187421828Y125071980D02*
X187231352Y125071980D01*
X187231352Y125071980D02*
X187136114Y125119600D01*
X187136114Y125119600D02*
X187088495Y125167219D01*
X187088495Y125167219D02*
X187040876Y125262457D01*
X187040876Y125262457D02*
X187040876Y125452933D01*
X187040876Y125452933D02*
X187088495Y125548171D01*
X187088495Y125548171D02*
X187136114Y125595790D01*
X187136114Y125595790D02*
X187231352Y125643409D01*
X186659923Y125976742D02*
X186612304Y126024361D01*
X186612304Y126024361D02*
X186517066Y126071980D01*
X186517066Y126071980D02*
X186278971Y126071980D01*
X186278971Y126071980D02*
X186183733Y126024361D01*
X186183733Y126024361D02*
X186136114Y125976742D01*
X186136114Y125976742D02*
X186088495Y125881504D01*
X186088495Y125881504D02*
X186088495Y125786266D01*
X186088495Y125786266D02*
X186136114Y125643409D01*
X186136114Y125643409D02*
X186707542Y125071980D01*
X186707542Y125071980D02*
X186088495Y125071980D01*
X110777257Y187702019D02*
X110824876Y187654400D01*
X110824876Y187654400D02*
X110967733Y187606780D01*
X110967733Y187606780D02*
X111062971Y187606780D01*
X111062971Y187606780D02*
X111205828Y187654400D01*
X111205828Y187654400D02*
X111301066Y187749638D01*
X111301066Y187749638D02*
X111348685Y187844876D01*
X111348685Y187844876D02*
X111396304Y188035352D01*
X111396304Y188035352D02*
X111396304Y188178209D01*
X111396304Y188178209D02*
X111348685Y188368685D01*
X111348685Y188368685D02*
X111301066Y188463923D01*
X111301066Y188463923D02*
X111205828Y188559161D01*
X111205828Y188559161D02*
X111062971Y188606780D01*
X111062971Y188606780D02*
X110967733Y188606780D01*
X110967733Y188606780D02*
X110824876Y188559161D01*
X110824876Y188559161D02*
X110777257Y188511542D01*
X109920114Y188606780D02*
X110110590Y188606780D01*
X110110590Y188606780D02*
X110205828Y188559161D01*
X110205828Y188559161D02*
X110253447Y188511542D01*
X110253447Y188511542D02*
X110348685Y188368685D01*
X110348685Y188368685D02*
X110396304Y188178209D01*
X110396304Y188178209D02*
X110396304Y187797257D01*
X110396304Y187797257D02*
X110348685Y187702019D01*
X110348685Y187702019D02*
X110301066Y187654400D01*
X110301066Y187654400D02*
X110205828Y187606780D01*
X110205828Y187606780D02*
X110015352Y187606780D01*
X110015352Y187606780D02*
X109920114Y187654400D01*
X109920114Y187654400D02*
X109872495Y187702019D01*
X109872495Y187702019D02*
X109824876Y187797257D01*
X109824876Y187797257D02*
X109824876Y188035352D01*
X109824876Y188035352D02*
X109872495Y188130590D01*
X109872495Y188130590D02*
X109920114Y188178209D01*
X109920114Y188178209D02*
X110015352Y188225828D01*
X110015352Y188225828D02*
X110205828Y188225828D01*
X110205828Y188225828D02*
X110301066Y188178209D01*
X110301066Y188178209D02*
X110348685Y188130590D01*
X110348685Y188130590D02*
X110396304Y188035352D01*
X108967733Y188606780D02*
X109158209Y188606780D01*
X109158209Y188606780D02*
X109253447Y188559161D01*
X109253447Y188559161D02*
X109301066Y188511542D01*
X109301066Y188511542D02*
X109396304Y188368685D01*
X109396304Y188368685D02*
X109443923Y188178209D01*
X109443923Y188178209D02*
X109443923Y187797257D01*
X109443923Y187797257D02*
X109396304Y187702019D01*
X109396304Y187702019D02*
X109348685Y187654400D01*
X109348685Y187654400D02*
X109253447Y187606780D01*
X109253447Y187606780D02*
X109062971Y187606780D01*
X109062971Y187606780D02*
X108967733Y187654400D01*
X108967733Y187654400D02*
X108920114Y187702019D01*
X108920114Y187702019D02*
X108872495Y187797257D01*
X108872495Y187797257D02*
X108872495Y188035352D01*
X108872495Y188035352D02*
X108920114Y188130590D01*
X108920114Y188130590D02*
X108967733Y188178209D01*
X108967733Y188178209D02*
X109062971Y188225828D01*
X109062971Y188225828D02*
X109253447Y188225828D01*
X109253447Y188225828D02*
X109348685Y188178209D01*
X109348685Y188178209D02*
X109396304Y188130590D01*
X109396304Y188130590D02*
X109443923Y188035352D01*
X119254857Y107238919D02*
X119302476Y107191300D01*
X119302476Y107191300D02*
X119445333Y107143680D01*
X119445333Y107143680D02*
X119540571Y107143680D01*
X119540571Y107143680D02*
X119683428Y107191300D01*
X119683428Y107191300D02*
X119778666Y107286538D01*
X119778666Y107286538D02*
X119826285Y107381776D01*
X119826285Y107381776D02*
X119873904Y107572252D01*
X119873904Y107572252D02*
X119873904Y107715109D01*
X119873904Y107715109D02*
X119826285Y107905585D01*
X119826285Y107905585D02*
X119778666Y108000823D01*
X119778666Y108000823D02*
X119683428Y108096061D01*
X119683428Y108096061D02*
X119540571Y108143680D01*
X119540571Y108143680D02*
X119445333Y108143680D01*
X119445333Y108143680D02*
X119302476Y108096061D01*
X119302476Y108096061D02*
X119254857Y108048442D01*
X118778666Y107143680D02*
X118588190Y107143680D01*
X118588190Y107143680D02*
X118492952Y107191300D01*
X118492952Y107191300D02*
X118445333Y107238919D01*
X118445333Y107238919D02*
X118350095Y107381776D01*
X118350095Y107381776D02*
X118302476Y107572252D01*
X118302476Y107572252D02*
X118302476Y107953204D01*
X118302476Y107953204D02*
X118350095Y108048442D01*
X118350095Y108048442D02*
X118397714Y108096061D01*
X118397714Y108096061D02*
X118492952Y108143680D01*
X118492952Y108143680D02*
X118683428Y108143680D01*
X118683428Y108143680D02*
X118778666Y108096061D01*
X118778666Y108096061D02*
X118826285Y108048442D01*
X118826285Y108048442D02*
X118873904Y107953204D01*
X118873904Y107953204D02*
X118873904Y107715109D01*
X118873904Y107715109D02*
X118826285Y107619871D01*
X118826285Y107619871D02*
X118778666Y107572252D01*
X118778666Y107572252D02*
X118683428Y107524633D01*
X118683428Y107524633D02*
X118492952Y107524633D01*
X118492952Y107524633D02*
X118397714Y107572252D01*
X118397714Y107572252D02*
X118350095Y107619871D01*
X118350095Y107619871D02*
X118302476Y107715109D01*
X117826285Y107143680D02*
X117635809Y107143680D01*
X117635809Y107143680D02*
X117540571Y107191300D01*
X117540571Y107191300D02*
X117492952Y107238919D01*
X117492952Y107238919D02*
X117397714Y107381776D01*
X117397714Y107381776D02*
X117350095Y107572252D01*
X117350095Y107572252D02*
X117350095Y107953204D01*
X117350095Y107953204D02*
X117397714Y108048442D01*
X117397714Y108048442D02*
X117445333Y108096061D01*
X117445333Y108096061D02*
X117540571Y108143680D01*
X117540571Y108143680D02*
X117731047Y108143680D01*
X117731047Y108143680D02*
X117826285Y108096061D01*
X117826285Y108096061D02*
X117873904Y108048442D01*
X117873904Y108048442D02*
X117921523Y107953204D01*
X117921523Y107953204D02*
X117921523Y107715109D01*
X117921523Y107715109D02*
X117873904Y107619871D01*
X117873904Y107619871D02*
X117826285Y107572252D01*
X117826285Y107572252D02*
X117731047Y107524633D01*
X117731047Y107524633D02*
X117540571Y107524633D01*
X117540571Y107524633D02*
X117445333Y107572252D01*
X117445333Y107572252D02*
X117397714Y107619871D01*
X117397714Y107619871D02*
X117350095Y107715109D01*
X103871047Y109318919D02*
X103918666Y109271300D01*
X103918666Y109271300D02*
X104061523Y109223680D01*
X104061523Y109223680D02*
X104156761Y109223680D01*
X104156761Y109223680D02*
X104299618Y109271300D01*
X104299618Y109271300D02*
X104394856Y109366538D01*
X104394856Y109366538D02*
X104442475Y109461776D01*
X104442475Y109461776D02*
X104490094Y109652252D01*
X104490094Y109652252D02*
X104490094Y109795109D01*
X104490094Y109795109D02*
X104442475Y109985585D01*
X104442475Y109985585D02*
X104394856Y110080823D01*
X104394856Y110080823D02*
X104299618Y110176061D01*
X104299618Y110176061D02*
X104156761Y110223680D01*
X104156761Y110223680D02*
X104061523Y110223680D01*
X104061523Y110223680D02*
X103918666Y110176061D01*
X103918666Y110176061D02*
X103871047Y110128442D01*
X102918666Y109223680D02*
X103490094Y109223680D01*
X103204380Y109223680D02*
X103204380Y110223680D01*
X103204380Y110223680D02*
X103299618Y110080823D01*
X103299618Y110080823D02*
X103394856Y109985585D01*
X103394856Y109985585D02*
X103490094Y109937966D01*
X102299618Y110223680D02*
X102204380Y110223680D01*
X102204380Y110223680D02*
X102109142Y110176061D01*
X102109142Y110176061D02*
X102061523Y110128442D01*
X102061523Y110128442D02*
X102013904Y110033204D01*
X102013904Y110033204D02*
X101966285Y109842728D01*
X101966285Y109842728D02*
X101966285Y109604633D01*
X101966285Y109604633D02*
X102013904Y109414157D01*
X102013904Y109414157D02*
X102061523Y109318919D01*
X102061523Y109318919D02*
X102109142Y109271300D01*
X102109142Y109271300D02*
X102204380Y109223680D01*
X102204380Y109223680D02*
X102299618Y109223680D01*
X102299618Y109223680D02*
X102394856Y109271300D01*
X102394856Y109271300D02*
X102442475Y109318919D01*
X102442475Y109318919D02*
X102490094Y109414157D01*
X102490094Y109414157D02*
X102537713Y109604633D01*
X102537713Y109604633D02*
X102537713Y109842728D01*
X102537713Y109842728D02*
X102490094Y110033204D01*
X102490094Y110033204D02*
X102442475Y110128442D01*
X102442475Y110128442D02*
X102394856Y110176061D01*
X102394856Y110176061D02*
X102299618Y110223680D01*
X101632951Y110223680D02*
X101013904Y110223680D01*
X101013904Y110223680D02*
X101347237Y109842728D01*
X101347237Y109842728D02*
X101204380Y109842728D01*
X101204380Y109842728D02*
X101109142Y109795109D01*
X101109142Y109795109D02*
X101061523Y109747490D01*
X101061523Y109747490D02*
X101013904Y109652252D01*
X101013904Y109652252D02*
X101013904Y109414157D01*
X101013904Y109414157D02*
X101061523Y109318919D01*
X101061523Y109318919D02*
X101109142Y109271300D01*
X101109142Y109271300D02*
X101204380Y109223680D01*
X101204380Y109223680D02*
X101490094Y109223680D01*
X101490094Y109223680D02*
X101585332Y109271300D01*
X101585332Y109271300D02*
X101632951Y109318919D01*
X156678857Y97430419D02*
X156726476Y97382800D01*
X156726476Y97382800D02*
X156869333Y97335180D01*
X156869333Y97335180D02*
X156964571Y97335180D01*
X156964571Y97335180D02*
X157107428Y97382800D01*
X157107428Y97382800D02*
X157202666Y97478038D01*
X157202666Y97478038D02*
X157250285Y97573276D01*
X157250285Y97573276D02*
X157297904Y97763752D01*
X157297904Y97763752D02*
X157297904Y97906609D01*
X157297904Y97906609D02*
X157250285Y98097085D01*
X157250285Y98097085D02*
X157202666Y98192323D01*
X157202666Y98192323D02*
X157107428Y98287561D01*
X157107428Y98287561D02*
X156964571Y98335180D01*
X156964571Y98335180D02*
X156869333Y98335180D01*
X156869333Y98335180D02*
X156726476Y98287561D01*
X156726476Y98287561D02*
X156678857Y98239942D01*
X156202666Y97335180D02*
X156012190Y97335180D01*
X156012190Y97335180D02*
X155916952Y97382800D01*
X155916952Y97382800D02*
X155869333Y97430419D01*
X155869333Y97430419D02*
X155774095Y97573276D01*
X155774095Y97573276D02*
X155726476Y97763752D01*
X155726476Y97763752D02*
X155726476Y98144704D01*
X155726476Y98144704D02*
X155774095Y98239942D01*
X155774095Y98239942D02*
X155821714Y98287561D01*
X155821714Y98287561D02*
X155916952Y98335180D01*
X155916952Y98335180D02*
X156107428Y98335180D01*
X156107428Y98335180D02*
X156202666Y98287561D01*
X156202666Y98287561D02*
X156250285Y98239942D01*
X156250285Y98239942D02*
X156297904Y98144704D01*
X156297904Y98144704D02*
X156297904Y97906609D01*
X156297904Y97906609D02*
X156250285Y97811371D01*
X156250285Y97811371D02*
X156202666Y97763752D01*
X156202666Y97763752D02*
X156107428Y97716133D01*
X156107428Y97716133D02*
X155916952Y97716133D01*
X155916952Y97716133D02*
X155821714Y97763752D01*
X155821714Y97763752D02*
X155774095Y97811371D01*
X155774095Y97811371D02*
X155726476Y97906609D01*
X155107428Y98335180D02*
X155012190Y98335180D01*
X155012190Y98335180D02*
X154916952Y98287561D01*
X154916952Y98287561D02*
X154869333Y98239942D01*
X154869333Y98239942D02*
X154821714Y98144704D01*
X154821714Y98144704D02*
X154774095Y97954228D01*
X154774095Y97954228D02*
X154774095Y97716133D01*
X154774095Y97716133D02*
X154821714Y97525657D01*
X154821714Y97525657D02*
X154869333Y97430419D01*
X154869333Y97430419D02*
X154916952Y97382800D01*
X154916952Y97382800D02*
X155012190Y97335180D01*
X155012190Y97335180D02*
X155107428Y97335180D01*
X155107428Y97335180D02*
X155202666Y97382800D01*
X155202666Y97382800D02*
X155250285Y97430419D01*
X155250285Y97430419D02*
X155297904Y97525657D01*
X155297904Y97525657D02*
X155345523Y97716133D01*
X155345523Y97716133D02*
X155345523Y97954228D01*
X155345523Y97954228D02*
X155297904Y98144704D01*
X155297904Y98144704D02*
X155250285Y98239942D01*
X155250285Y98239942D02*
X155202666Y98287561D01*
X155202666Y98287561D02*
X155107428Y98335180D01*
X141407047Y95652419D02*
X141454666Y95604800D01*
X141454666Y95604800D02*
X141597523Y95557180D01*
X141597523Y95557180D02*
X141692761Y95557180D01*
X141692761Y95557180D02*
X141835618Y95604800D01*
X141835618Y95604800D02*
X141930856Y95700038D01*
X141930856Y95700038D02*
X141978475Y95795276D01*
X141978475Y95795276D02*
X142026094Y95985752D01*
X142026094Y95985752D02*
X142026094Y96128609D01*
X142026094Y96128609D02*
X141978475Y96319085D01*
X141978475Y96319085D02*
X141930856Y96414323D01*
X141930856Y96414323D02*
X141835618Y96509561D01*
X141835618Y96509561D02*
X141692761Y96557180D01*
X141692761Y96557180D02*
X141597523Y96557180D01*
X141597523Y96557180D02*
X141454666Y96509561D01*
X141454666Y96509561D02*
X141407047Y96461942D01*
X140454666Y95557180D02*
X141026094Y95557180D01*
X140740380Y95557180D02*
X140740380Y96557180D01*
X140740380Y96557180D02*
X140835618Y96414323D01*
X140835618Y96414323D02*
X140930856Y96319085D01*
X140930856Y96319085D02*
X141026094Y96271466D01*
X139835618Y96557180D02*
X139740380Y96557180D01*
X139740380Y96557180D02*
X139645142Y96509561D01*
X139645142Y96509561D02*
X139597523Y96461942D01*
X139597523Y96461942D02*
X139549904Y96366704D01*
X139549904Y96366704D02*
X139502285Y96176228D01*
X139502285Y96176228D02*
X139502285Y95938133D01*
X139502285Y95938133D02*
X139549904Y95747657D01*
X139549904Y95747657D02*
X139597523Y95652419D01*
X139597523Y95652419D02*
X139645142Y95604800D01*
X139645142Y95604800D02*
X139740380Y95557180D01*
X139740380Y95557180D02*
X139835618Y95557180D01*
X139835618Y95557180D02*
X139930856Y95604800D01*
X139930856Y95604800D02*
X139978475Y95652419D01*
X139978475Y95652419D02*
X140026094Y95747657D01*
X140026094Y95747657D02*
X140073713Y95938133D01*
X140073713Y95938133D02*
X140073713Y96176228D01*
X140073713Y96176228D02*
X140026094Y96366704D01*
X140026094Y96366704D02*
X139978475Y96461942D01*
X139978475Y96461942D02*
X139930856Y96509561D01*
X139930856Y96509561D02*
X139835618Y96557180D01*
X138883237Y96557180D02*
X138787999Y96557180D01*
X138787999Y96557180D02*
X138692761Y96509561D01*
X138692761Y96509561D02*
X138645142Y96461942D01*
X138645142Y96461942D02*
X138597523Y96366704D01*
X138597523Y96366704D02*
X138549904Y96176228D01*
X138549904Y96176228D02*
X138549904Y95938133D01*
X138549904Y95938133D02*
X138597523Y95747657D01*
X138597523Y95747657D02*
X138645142Y95652419D01*
X138645142Y95652419D02*
X138692761Y95604800D01*
X138692761Y95604800D02*
X138787999Y95557180D01*
X138787999Y95557180D02*
X138883237Y95557180D01*
X138883237Y95557180D02*
X138978475Y95604800D01*
X138978475Y95604800D02*
X139026094Y95652419D01*
X139026094Y95652419D02*
X139073713Y95747657D01*
X139073713Y95747657D02*
X139121332Y95938133D01*
X139121332Y95938133D02*
X139121332Y96176228D01*
X139121332Y96176228D02*
X139073713Y96366704D01*
X139073713Y96366704D02*
X139026094Y96461942D01*
X139026094Y96461942D02*
X138978475Y96509561D01*
X138978475Y96509561D02*
X138883237Y96557180D01*
X95861047Y109270919D02*
X95908666Y109223300D01*
X95908666Y109223300D02*
X96051523Y109175680D01*
X96051523Y109175680D02*
X96146761Y109175680D01*
X96146761Y109175680D02*
X96289618Y109223300D01*
X96289618Y109223300D02*
X96384856Y109318538D01*
X96384856Y109318538D02*
X96432475Y109413776D01*
X96432475Y109413776D02*
X96480094Y109604252D01*
X96480094Y109604252D02*
X96480094Y109747109D01*
X96480094Y109747109D02*
X96432475Y109937585D01*
X96432475Y109937585D02*
X96384856Y110032823D01*
X96384856Y110032823D02*
X96289618Y110128061D01*
X96289618Y110128061D02*
X96146761Y110175680D01*
X96146761Y110175680D02*
X96051523Y110175680D01*
X96051523Y110175680D02*
X95908666Y110128061D01*
X95908666Y110128061D02*
X95861047Y110080442D01*
X94908666Y109175680D02*
X95480094Y109175680D01*
X95194380Y109175680D02*
X95194380Y110175680D01*
X95194380Y110175680D02*
X95289618Y110032823D01*
X95289618Y110032823D02*
X95384856Y109937585D01*
X95384856Y109937585D02*
X95480094Y109889966D01*
X94289618Y110175680D02*
X94194380Y110175680D01*
X94194380Y110175680D02*
X94099142Y110128061D01*
X94099142Y110128061D02*
X94051523Y110080442D01*
X94051523Y110080442D02*
X94003904Y109985204D01*
X94003904Y109985204D02*
X93956285Y109794728D01*
X93956285Y109794728D02*
X93956285Y109556633D01*
X93956285Y109556633D02*
X94003904Y109366157D01*
X94003904Y109366157D02*
X94051523Y109270919D01*
X94051523Y109270919D02*
X94099142Y109223300D01*
X94099142Y109223300D02*
X94194380Y109175680D01*
X94194380Y109175680D02*
X94289618Y109175680D01*
X94289618Y109175680D02*
X94384856Y109223300D01*
X94384856Y109223300D02*
X94432475Y109270919D01*
X94432475Y109270919D02*
X94480094Y109366157D01*
X94480094Y109366157D02*
X94527713Y109556633D01*
X94527713Y109556633D02*
X94527713Y109794728D01*
X94527713Y109794728D02*
X94480094Y109985204D01*
X94480094Y109985204D02*
X94432475Y110080442D01*
X94432475Y110080442D02*
X94384856Y110128061D01*
X94384856Y110128061D02*
X94289618Y110175680D01*
X93099142Y109842347D02*
X93099142Y109175680D01*
X93337237Y110223300D02*
X93575332Y109509014D01*
X93575332Y109509014D02*
X92956285Y109509014D01*
X156805857Y92128180D02*
X157139190Y92604371D01*
X157377285Y92128180D02*
X157377285Y93128180D01*
X157377285Y93128180D02*
X156996333Y93128180D01*
X156996333Y93128180D02*
X156901095Y93080561D01*
X156901095Y93080561D02*
X156853476Y93032942D01*
X156853476Y93032942D02*
X156805857Y92937704D01*
X156805857Y92937704D02*
X156805857Y92794847D01*
X156805857Y92794847D02*
X156853476Y92699609D01*
X156853476Y92699609D02*
X156901095Y92651990D01*
X156901095Y92651990D02*
X156996333Y92604371D01*
X156996333Y92604371D02*
X157377285Y92604371D01*
X156329666Y92128180D02*
X156139190Y92128180D01*
X156139190Y92128180D02*
X156043952Y92175800D01*
X156043952Y92175800D02*
X155996333Y92223419D01*
X155996333Y92223419D02*
X155901095Y92366276D01*
X155901095Y92366276D02*
X155853476Y92556752D01*
X155853476Y92556752D02*
X155853476Y92937704D01*
X155853476Y92937704D02*
X155901095Y93032942D01*
X155901095Y93032942D02*
X155948714Y93080561D01*
X155948714Y93080561D02*
X156043952Y93128180D01*
X156043952Y93128180D02*
X156234428Y93128180D01*
X156234428Y93128180D02*
X156329666Y93080561D01*
X156329666Y93080561D02*
X156377285Y93032942D01*
X156377285Y93032942D02*
X156424904Y92937704D01*
X156424904Y92937704D02*
X156424904Y92699609D01*
X156424904Y92699609D02*
X156377285Y92604371D01*
X156377285Y92604371D02*
X156329666Y92556752D01*
X156329666Y92556752D02*
X156234428Y92509133D01*
X156234428Y92509133D02*
X156043952Y92509133D01*
X156043952Y92509133D02*
X155948714Y92556752D01*
X155948714Y92556752D02*
X155901095Y92604371D01*
X155901095Y92604371D02*
X155853476Y92699609D01*
X154996333Y93128180D02*
X155186809Y93128180D01*
X155186809Y93128180D02*
X155282047Y93080561D01*
X155282047Y93080561D02*
X155329666Y93032942D01*
X155329666Y93032942D02*
X155424904Y92890085D01*
X155424904Y92890085D02*
X155472523Y92699609D01*
X155472523Y92699609D02*
X155472523Y92318657D01*
X155472523Y92318657D02*
X155424904Y92223419D01*
X155424904Y92223419D02*
X155377285Y92175800D01*
X155377285Y92175800D02*
X155282047Y92128180D01*
X155282047Y92128180D02*
X155091571Y92128180D01*
X155091571Y92128180D02*
X154996333Y92175800D01*
X154996333Y92175800D02*
X154948714Y92223419D01*
X154948714Y92223419D02*
X154901095Y92318657D01*
X154901095Y92318657D02*
X154901095Y92556752D01*
X154901095Y92556752D02*
X154948714Y92651990D01*
X154948714Y92651990D02*
X154996333Y92699609D01*
X154996333Y92699609D02*
X155091571Y92747228D01*
X155091571Y92747228D02*
X155282047Y92747228D01*
X155282047Y92747228D02*
X155377285Y92699609D01*
X155377285Y92699609D02*
X155424904Y92651990D01*
X155424904Y92651990D02*
X155472523Y92556752D01*
X218518143Y116390006D02*
X218518143Y116322662D01*
X218518143Y116322662D02*
X218585487Y116187975D01*
X218585487Y116187975D02*
X218652830Y116120632D01*
X218652830Y116120632D02*
X218787517Y116053288D01*
X218787517Y116053288D02*
X218922204Y116053288D01*
X218922204Y116053288D02*
X219023219Y116086960D01*
X219023219Y116086960D02*
X219191578Y116187975D01*
X219191578Y116187975D02*
X219292593Y116288990D01*
X219292593Y116288990D02*
X219393609Y116457349D01*
X219393609Y116457349D02*
X219427280Y116558364D01*
X219427280Y116558364D02*
X219427280Y116693051D01*
X219427280Y116693051D02*
X219359937Y116827738D01*
X219359937Y116827738D02*
X219292593Y116895082D01*
X219292593Y116895082D02*
X219157906Y116962425D01*
X219157906Y116962425D02*
X219090563Y116962425D01*
X218922204Y117265471D02*
X218450800Y117736876D01*
X218450800Y117736876D02*
X218046739Y116726723D01*
X217878380Y118309296D02*
X218013067Y118174609D01*
X218013067Y118174609D02*
X218046738Y118073593D01*
X218046738Y118073593D02*
X218046738Y118006250D01*
X218046738Y118006250D02*
X218013067Y117837891D01*
X218013067Y117837891D02*
X217912051Y117669532D01*
X217912051Y117669532D02*
X217642677Y117400158D01*
X217642677Y117400158D02*
X217541662Y117366487D01*
X217541662Y117366487D02*
X217474319Y117366487D01*
X217474319Y117366487D02*
X217373303Y117400158D01*
X217373303Y117400158D02*
X217238616Y117534845D01*
X217238616Y117534845D02*
X217204945Y117635861D01*
X217204945Y117635861D02*
X217204945Y117703204D01*
X217204945Y117703204D02*
X217238616Y117804219D01*
X217238616Y117804219D02*
X217406975Y117972578D01*
X217406975Y117972578D02*
X217507990Y118006250D01*
X217507990Y118006250D02*
X217575334Y118006250D01*
X217575334Y118006250D02*
X217676349Y117972578D01*
X217676349Y117972578D02*
X217811036Y117837891D01*
X217811036Y117837891D02*
X217844708Y117736876D01*
X217844708Y117736876D02*
X217844708Y117669532D01*
X217844708Y117669532D02*
X217811036Y117568517D01*
X148940857Y97478419D02*
X148988476Y97430800D01*
X148988476Y97430800D02*
X149131333Y97383180D01*
X149131333Y97383180D02*
X149226571Y97383180D01*
X149226571Y97383180D02*
X149369428Y97430800D01*
X149369428Y97430800D02*
X149464666Y97526038D01*
X149464666Y97526038D02*
X149512285Y97621276D01*
X149512285Y97621276D02*
X149559904Y97811752D01*
X149559904Y97811752D02*
X149559904Y97954609D01*
X149559904Y97954609D02*
X149512285Y98145085D01*
X149512285Y98145085D02*
X149464666Y98240323D01*
X149464666Y98240323D02*
X149369428Y98335561D01*
X149369428Y98335561D02*
X149226571Y98383180D01*
X149226571Y98383180D02*
X149131333Y98383180D01*
X149131333Y98383180D02*
X148988476Y98335561D01*
X148988476Y98335561D02*
X148940857Y98287942D01*
X148464666Y97383180D02*
X148274190Y97383180D01*
X148274190Y97383180D02*
X148178952Y97430800D01*
X148178952Y97430800D02*
X148131333Y97478419D01*
X148131333Y97478419D02*
X148036095Y97621276D01*
X148036095Y97621276D02*
X147988476Y97811752D01*
X147988476Y97811752D02*
X147988476Y98192704D01*
X147988476Y98192704D02*
X148036095Y98287942D01*
X148036095Y98287942D02*
X148083714Y98335561D01*
X148083714Y98335561D02*
X148178952Y98383180D01*
X148178952Y98383180D02*
X148369428Y98383180D01*
X148369428Y98383180D02*
X148464666Y98335561D01*
X148464666Y98335561D02*
X148512285Y98287942D01*
X148512285Y98287942D02*
X148559904Y98192704D01*
X148559904Y98192704D02*
X148559904Y97954609D01*
X148559904Y97954609D02*
X148512285Y97859371D01*
X148512285Y97859371D02*
X148464666Y97811752D01*
X148464666Y97811752D02*
X148369428Y97764133D01*
X148369428Y97764133D02*
X148178952Y97764133D01*
X148178952Y97764133D02*
X148083714Y97811752D01*
X148083714Y97811752D02*
X148036095Y97859371D01*
X148036095Y97859371D02*
X147988476Y97954609D01*
X147131333Y98049847D02*
X147131333Y97383180D01*
X147369428Y98430800D02*
X147607523Y97716514D01*
X147607523Y97716514D02*
X146988476Y97716514D01*
X190172023Y129623126D02*
X190172023Y129555782D01*
X190172023Y129555782D02*
X190239367Y129421095D01*
X190239367Y129421095D02*
X190306710Y129353752D01*
X190306710Y129353752D02*
X190441397Y129286408D01*
X190441397Y129286408D02*
X190576084Y129286408D01*
X190576084Y129286408D02*
X190677099Y129320080D01*
X190677099Y129320080D02*
X190845458Y129421095D01*
X190845458Y129421095D02*
X190946473Y129522110D01*
X190946473Y129522110D02*
X191047489Y129690469D01*
X191047489Y129690469D02*
X191081160Y129791484D01*
X191081160Y129791484D02*
X191081160Y129926171D01*
X191081160Y129926171D02*
X191013817Y130060858D01*
X191013817Y130060858D02*
X190946473Y130128202D01*
X190946473Y130128202D02*
X190811786Y130195545D01*
X190811786Y130195545D02*
X190744443Y130195545D01*
X190104680Y130363904D02*
X190205695Y130330232D01*
X190205695Y130330232D02*
X190273038Y130330232D01*
X190273038Y130330232D02*
X190374054Y130363904D01*
X190374054Y130363904D02*
X190407725Y130397576D01*
X190407725Y130397576D02*
X190441397Y130498591D01*
X190441397Y130498591D02*
X190441397Y130565935D01*
X190441397Y130565935D02*
X190407725Y130666950D01*
X190407725Y130666950D02*
X190273038Y130801637D01*
X190273038Y130801637D02*
X190172023Y130835309D01*
X190172023Y130835309D02*
X190104680Y130835309D01*
X190104680Y130835309D02*
X190003664Y130801637D01*
X190003664Y130801637D02*
X189969993Y130767965D01*
X189969993Y130767965D02*
X189936321Y130666950D01*
X189936321Y130666950D02*
X189936321Y130599606D01*
X189936321Y130599606D02*
X189969993Y130498591D01*
X189969993Y130498591D02*
X190104680Y130363904D01*
X190104680Y130363904D02*
X190138351Y130262889D01*
X190138351Y130262889D02*
X190138351Y130195545D01*
X190138351Y130195545D02*
X190104680Y130094530D01*
X190104680Y130094530D02*
X189969993Y129959843D01*
X189969993Y129959843D02*
X189868977Y129926171D01*
X189868977Y129926171D02*
X189801634Y129926171D01*
X189801634Y129926171D02*
X189700619Y129959843D01*
X189700619Y129959843D02*
X189565932Y130094530D01*
X189565932Y130094530D02*
X189532260Y130195545D01*
X189532260Y130195545D02*
X189532260Y130262889D01*
X189532260Y130262889D02*
X189565932Y130363904D01*
X189565932Y130363904D02*
X189700619Y130498591D01*
X189700619Y130498591D02*
X189801634Y130532263D01*
X189801634Y130532263D02*
X189868977Y130532263D01*
X189868977Y130532263D02*
X189969993Y130498591D01*
X189700618Y131374057D02*
X189633275Y131441400D01*
X189633275Y131441400D02*
X189532260Y131475072D01*
X189532260Y131475072D02*
X189464916Y131475072D01*
X189464916Y131475072D02*
X189363901Y131441400D01*
X189363901Y131441400D02*
X189195542Y131340385D01*
X189195542Y131340385D02*
X189027183Y131172026D01*
X189027183Y131172026D02*
X188926168Y131003668D01*
X188926168Y131003668D02*
X188892496Y130902652D01*
X188892496Y130902652D02*
X188892496Y130835309D01*
X188892496Y130835309D02*
X188926168Y130734294D01*
X188926168Y130734294D02*
X188993512Y130666950D01*
X188993512Y130666950D02*
X189094527Y130633278D01*
X189094527Y130633278D02*
X189161870Y130633278D01*
X189161870Y130633278D02*
X189262886Y130666950D01*
X189262886Y130666950D02*
X189431244Y130767965D01*
X189431244Y130767965D02*
X189599603Y130936324D01*
X189599603Y130936324D02*
X189700618Y131104683D01*
X189700618Y131104683D02*
X189734290Y131205698D01*
X189734290Y131205698D02*
X189734290Y131273042D01*
X189734290Y131273042D02*
X189700618Y131374057D01*
X148940857Y95700419D02*
X148988476Y95652800D01*
X148988476Y95652800D02*
X149131333Y95605180D01*
X149131333Y95605180D02*
X149226571Y95605180D01*
X149226571Y95605180D02*
X149369428Y95652800D01*
X149369428Y95652800D02*
X149464666Y95748038D01*
X149464666Y95748038D02*
X149512285Y95843276D01*
X149512285Y95843276D02*
X149559904Y96033752D01*
X149559904Y96033752D02*
X149559904Y96176609D01*
X149559904Y96176609D02*
X149512285Y96367085D01*
X149512285Y96367085D02*
X149464666Y96462323D01*
X149464666Y96462323D02*
X149369428Y96557561D01*
X149369428Y96557561D02*
X149226571Y96605180D01*
X149226571Y96605180D02*
X149131333Y96605180D01*
X149131333Y96605180D02*
X148988476Y96557561D01*
X148988476Y96557561D02*
X148940857Y96509942D01*
X148464666Y95605180D02*
X148274190Y95605180D01*
X148274190Y95605180D02*
X148178952Y95652800D01*
X148178952Y95652800D02*
X148131333Y95700419D01*
X148131333Y95700419D02*
X148036095Y95843276D01*
X148036095Y95843276D02*
X147988476Y96033752D01*
X147988476Y96033752D02*
X147988476Y96414704D01*
X147988476Y96414704D02*
X148036095Y96509942D01*
X148036095Y96509942D02*
X148083714Y96557561D01*
X148083714Y96557561D02*
X148178952Y96605180D01*
X148178952Y96605180D02*
X148369428Y96605180D01*
X148369428Y96605180D02*
X148464666Y96557561D01*
X148464666Y96557561D02*
X148512285Y96509942D01*
X148512285Y96509942D02*
X148559904Y96414704D01*
X148559904Y96414704D02*
X148559904Y96176609D01*
X148559904Y96176609D02*
X148512285Y96081371D01*
X148512285Y96081371D02*
X148464666Y96033752D01*
X148464666Y96033752D02*
X148369428Y95986133D01*
X148369428Y95986133D02*
X148178952Y95986133D01*
X148178952Y95986133D02*
X148083714Y96033752D01*
X148083714Y96033752D02*
X148036095Y96081371D01*
X148036095Y96081371D02*
X147988476Y96176609D01*
X147036095Y95605180D02*
X147607523Y95605180D01*
X147321809Y95605180D02*
X147321809Y96605180D01*
X147321809Y96605180D02*
X147417047Y96462323D01*
X147417047Y96462323D02*
X147512285Y96367085D01*
X147512285Y96367085D02*
X147607523Y96319466D01*
X191577430Y117391611D02*
X191577430Y116915420D01*
X191910763Y117915420D02*
X191577430Y117391611D01*
X191577430Y117391611D02*
X191244097Y117915420D01*
X190386954Y116915420D02*
X190958382Y116915420D01*
X190672668Y116915420D02*
X190672668Y117915420D01*
X190672668Y117915420D02*
X190767906Y117772563D01*
X190767906Y117772563D02*
X190863144Y117677325D01*
X190863144Y117677325D02*
X190958382Y117629706D01*
X111609047Y107492919D02*
X111656666Y107445300D01*
X111656666Y107445300D02*
X111799523Y107397680D01*
X111799523Y107397680D02*
X111894761Y107397680D01*
X111894761Y107397680D02*
X112037618Y107445300D01*
X112037618Y107445300D02*
X112132856Y107540538D01*
X112132856Y107540538D02*
X112180475Y107635776D01*
X112180475Y107635776D02*
X112228094Y107826252D01*
X112228094Y107826252D02*
X112228094Y107969109D01*
X112228094Y107969109D02*
X112180475Y108159585D01*
X112180475Y108159585D02*
X112132856Y108254823D01*
X112132856Y108254823D02*
X112037618Y108350061D01*
X112037618Y108350061D02*
X111894761Y108397680D01*
X111894761Y108397680D02*
X111799523Y108397680D01*
X111799523Y108397680D02*
X111656666Y108350061D01*
X111656666Y108350061D02*
X111609047Y108302442D01*
X110656666Y107397680D02*
X111228094Y107397680D01*
X110942380Y107397680D02*
X110942380Y108397680D01*
X110942380Y108397680D02*
X111037618Y108254823D01*
X111037618Y108254823D02*
X111132856Y108159585D01*
X111132856Y108159585D02*
X111228094Y108111966D01*
X110037618Y108397680D02*
X109942380Y108397680D01*
X109942380Y108397680D02*
X109847142Y108350061D01*
X109847142Y108350061D02*
X109799523Y108302442D01*
X109799523Y108302442D02*
X109751904Y108207204D01*
X109751904Y108207204D02*
X109704285Y108016728D01*
X109704285Y108016728D02*
X109704285Y107778633D01*
X109704285Y107778633D02*
X109751904Y107588157D01*
X109751904Y107588157D02*
X109799523Y107492919D01*
X109799523Y107492919D02*
X109847142Y107445300D01*
X109847142Y107445300D02*
X109942380Y107397680D01*
X109942380Y107397680D02*
X110037618Y107397680D01*
X110037618Y107397680D02*
X110132856Y107445300D01*
X110132856Y107445300D02*
X110180475Y107492919D01*
X110180475Y107492919D02*
X110228094Y107588157D01*
X110228094Y107588157D02*
X110275713Y107778633D01*
X110275713Y107778633D02*
X110275713Y108016728D01*
X110275713Y108016728D02*
X110228094Y108207204D01*
X110228094Y108207204D02*
X110180475Y108302442D01*
X110180475Y108302442D02*
X110132856Y108350061D01*
X110132856Y108350061D02*
X110037618Y108397680D01*
X108799523Y108397680D02*
X109275713Y108397680D01*
X109275713Y108397680D02*
X109323332Y107921490D01*
X109323332Y107921490D02*
X109275713Y107969109D01*
X109275713Y107969109D02*
X109180475Y108016728D01*
X109180475Y108016728D02*
X108942380Y108016728D01*
X108942380Y108016728D02*
X108847142Y107969109D01*
X108847142Y107969109D02*
X108799523Y107921490D01*
X108799523Y107921490D02*
X108751904Y107826252D01*
X108751904Y107826252D02*
X108751904Y107588157D01*
X108751904Y107588157D02*
X108799523Y107492919D01*
X108799523Y107492919D02*
X108847142Y107445300D01*
X108847142Y107445300D02*
X108942380Y107397680D01*
X108942380Y107397680D02*
X109180475Y107397680D01*
X109180475Y107397680D02*
X109275713Y107445300D01*
X109275713Y107445300D02*
X109323332Y107492919D01*
X164927857Y91874180D02*
X165261190Y92350371D01*
X165499285Y91874180D02*
X165499285Y92874180D01*
X165499285Y92874180D02*
X165118333Y92874180D01*
X165118333Y92874180D02*
X165023095Y92826561D01*
X165023095Y92826561D02*
X164975476Y92778942D01*
X164975476Y92778942D02*
X164927857Y92683704D01*
X164927857Y92683704D02*
X164927857Y92540847D01*
X164927857Y92540847D02*
X164975476Y92445609D01*
X164975476Y92445609D02*
X165023095Y92397990D01*
X165023095Y92397990D02*
X165118333Y92350371D01*
X165118333Y92350371D02*
X165499285Y92350371D01*
X164451666Y91874180D02*
X164261190Y91874180D01*
X164261190Y91874180D02*
X164165952Y91921800D01*
X164165952Y91921800D02*
X164118333Y91969419D01*
X164118333Y91969419D02*
X164023095Y92112276D01*
X164023095Y92112276D02*
X163975476Y92302752D01*
X163975476Y92302752D02*
X163975476Y92683704D01*
X163975476Y92683704D02*
X164023095Y92778942D01*
X164023095Y92778942D02*
X164070714Y92826561D01*
X164070714Y92826561D02*
X164165952Y92874180D01*
X164165952Y92874180D02*
X164356428Y92874180D01*
X164356428Y92874180D02*
X164451666Y92826561D01*
X164451666Y92826561D02*
X164499285Y92778942D01*
X164499285Y92778942D02*
X164546904Y92683704D01*
X164546904Y92683704D02*
X164546904Y92445609D01*
X164546904Y92445609D02*
X164499285Y92350371D01*
X164499285Y92350371D02*
X164451666Y92302752D01*
X164451666Y92302752D02*
X164356428Y92255133D01*
X164356428Y92255133D02*
X164165952Y92255133D01*
X164165952Y92255133D02*
X164070714Y92302752D01*
X164070714Y92302752D02*
X164023095Y92350371D01*
X164023095Y92350371D02*
X163975476Y92445609D01*
X163642142Y92874180D02*
X162975476Y92874180D01*
X162975476Y92874180D02*
X163404047Y91874180D01*
X97547580Y178543357D02*
X97595200Y178590976D01*
X97595200Y178590976D02*
X97642819Y178733833D01*
X97642819Y178733833D02*
X97642819Y178829071D01*
X97642819Y178829071D02*
X97595200Y178971928D01*
X97595200Y178971928D02*
X97499961Y179067166D01*
X97499961Y179067166D02*
X97404723Y179114785D01*
X97404723Y179114785D02*
X97214247Y179162404D01*
X97214247Y179162404D02*
X97071390Y179162404D01*
X97071390Y179162404D02*
X96880914Y179114785D01*
X96880914Y179114785D02*
X96785676Y179067166D01*
X96785676Y179067166D02*
X96690438Y178971928D01*
X96690438Y178971928D02*
X96642819Y178829071D01*
X96642819Y178829071D02*
X96642819Y178733833D01*
X96642819Y178733833D02*
X96690438Y178590976D01*
X96690438Y178590976D02*
X96738057Y178543357D01*
X96642819Y177686214D02*
X96642819Y177876690D01*
X96642819Y177876690D02*
X96690438Y177971928D01*
X96690438Y177971928D02*
X96738057Y178019547D01*
X96738057Y178019547D02*
X96880914Y178114785D01*
X96880914Y178114785D02*
X97071390Y178162404D01*
X97071390Y178162404D02*
X97452342Y178162404D01*
X97452342Y178162404D02*
X97547580Y178114785D01*
X97547580Y178114785D02*
X97595200Y178067166D01*
X97595200Y178067166D02*
X97642819Y177971928D01*
X97642819Y177971928D02*
X97642819Y177781452D01*
X97642819Y177781452D02*
X97595200Y177686214D01*
X97595200Y177686214D02*
X97547580Y177638595D01*
X97547580Y177638595D02*
X97452342Y177590976D01*
X97452342Y177590976D02*
X97214247Y177590976D01*
X97214247Y177590976D02*
X97119009Y177638595D01*
X97119009Y177638595D02*
X97071390Y177686214D01*
X97071390Y177686214D02*
X97023771Y177781452D01*
X97023771Y177781452D02*
X97023771Y177971928D01*
X97023771Y177971928D02*
X97071390Y178067166D01*
X97071390Y178067166D02*
X97119009Y178114785D01*
X97119009Y178114785D02*
X97214247Y178162404D01*
X96642819Y176686214D02*
X96642819Y177162404D01*
X96642819Y177162404D02*
X97119009Y177210023D01*
X97119009Y177210023D02*
X97071390Y177162404D01*
X97071390Y177162404D02*
X97023771Y177067166D01*
X97023771Y177067166D02*
X97023771Y176829071D01*
X97023771Y176829071D02*
X97071390Y176733833D01*
X97071390Y176733833D02*
X97119009Y176686214D01*
X97119009Y176686214D02*
X97214247Y176638595D01*
X97214247Y176638595D02*
X97452342Y176638595D01*
X97452342Y176638595D02*
X97547580Y176686214D01*
X97547580Y176686214D02*
X97595200Y176733833D01*
X97595200Y176733833D02*
X97642819Y176829071D01*
X97642819Y176829071D02*
X97642819Y177067166D01*
X97642819Y177067166D02*
X97595200Y177162404D01*
X97595200Y177162404D02*
X97547580Y177210023D01*
X95861047Y110794919D02*
X95908666Y110747300D01*
X95908666Y110747300D02*
X96051523Y110699680D01*
X96051523Y110699680D02*
X96146761Y110699680D01*
X96146761Y110699680D02*
X96289618Y110747300D01*
X96289618Y110747300D02*
X96384856Y110842538D01*
X96384856Y110842538D02*
X96432475Y110937776D01*
X96432475Y110937776D02*
X96480094Y111128252D01*
X96480094Y111128252D02*
X96480094Y111271109D01*
X96480094Y111271109D02*
X96432475Y111461585D01*
X96432475Y111461585D02*
X96384856Y111556823D01*
X96384856Y111556823D02*
X96289618Y111652061D01*
X96289618Y111652061D02*
X96146761Y111699680D01*
X96146761Y111699680D02*
X96051523Y111699680D01*
X96051523Y111699680D02*
X95908666Y111652061D01*
X95908666Y111652061D02*
X95861047Y111604442D01*
X94908666Y110699680D02*
X95480094Y110699680D01*
X95194380Y110699680D02*
X95194380Y111699680D01*
X95194380Y111699680D02*
X95289618Y111556823D01*
X95289618Y111556823D02*
X95384856Y111461585D01*
X95384856Y111461585D02*
X95480094Y111413966D01*
X94289618Y111699680D02*
X94194380Y111699680D01*
X94194380Y111699680D02*
X94099142Y111652061D01*
X94099142Y111652061D02*
X94051523Y111604442D01*
X94051523Y111604442D02*
X94003904Y111509204D01*
X94003904Y111509204D02*
X93956285Y111318728D01*
X93956285Y111318728D02*
X93956285Y111080633D01*
X93956285Y111080633D02*
X94003904Y110890157D01*
X94003904Y110890157D02*
X94051523Y110794919D01*
X94051523Y110794919D02*
X94099142Y110747300D01*
X94099142Y110747300D02*
X94194380Y110699680D01*
X94194380Y110699680D02*
X94289618Y110699680D01*
X94289618Y110699680D02*
X94384856Y110747300D01*
X94384856Y110747300D02*
X94432475Y110794919D01*
X94432475Y110794919D02*
X94480094Y110890157D01*
X94480094Y110890157D02*
X94527713Y111080633D01*
X94527713Y111080633D02*
X94527713Y111318728D01*
X94527713Y111318728D02*
X94480094Y111509204D01*
X94480094Y111509204D02*
X94432475Y111604442D01*
X94432475Y111604442D02*
X94384856Y111652061D01*
X94384856Y111652061D02*
X94289618Y111699680D01*
X93099142Y111699680D02*
X93289618Y111699680D01*
X93289618Y111699680D02*
X93384856Y111652061D01*
X93384856Y111652061D02*
X93432475Y111604442D01*
X93432475Y111604442D02*
X93527713Y111461585D01*
X93527713Y111461585D02*
X93575332Y111271109D01*
X93575332Y111271109D02*
X93575332Y110890157D01*
X93575332Y110890157D02*
X93527713Y110794919D01*
X93527713Y110794919D02*
X93480094Y110747300D01*
X93480094Y110747300D02*
X93384856Y110699680D01*
X93384856Y110699680D02*
X93194380Y110699680D01*
X93194380Y110699680D02*
X93099142Y110747300D01*
X93099142Y110747300D02*
X93051523Y110794919D01*
X93051523Y110794919D02*
X93003904Y110890157D01*
X93003904Y110890157D02*
X93003904Y111128252D01*
X93003904Y111128252D02*
X93051523Y111223490D01*
X93051523Y111223490D02*
X93099142Y111271109D01*
X93099142Y111271109D02*
X93194380Y111318728D01*
X93194380Y111318728D02*
X93384856Y111318728D01*
X93384856Y111318728D02*
X93480094Y111271109D01*
X93480094Y111271109D02*
X93527713Y111223490D01*
X93527713Y111223490D02*
X93575332Y111128252D01*
X226281113Y129897263D02*
X226348457Y129897263D01*
X226348457Y129897263D02*
X226483144Y129964607D01*
X226483144Y129964607D02*
X226550487Y130031950D01*
X226550487Y130031950D02*
X226617831Y130166637D01*
X226617831Y130166637D02*
X226617831Y130301324D01*
X226617831Y130301324D02*
X226584159Y130402339D01*
X226584159Y130402339D02*
X226483144Y130570698D01*
X226483144Y130570698D02*
X226382129Y130671713D01*
X226382129Y130671713D02*
X226213770Y130772729D01*
X226213770Y130772729D02*
X226112755Y130806400D01*
X226112755Y130806400D02*
X225978068Y130806400D01*
X225978068Y130806400D02*
X225843381Y130739057D01*
X225843381Y130739057D02*
X225776037Y130671713D01*
X225776037Y130671713D02*
X225708694Y130537026D01*
X225708694Y130537026D02*
X225708694Y130469683D01*
X225405648Y130301324D02*
X224934243Y129829920D01*
X224934243Y129829920D02*
X225944396Y129425859D01*
X224597526Y129021797D02*
X225068930Y128550393D01*
X224496510Y129459530D02*
X225169945Y129122813D01*
X225169945Y129122813D02*
X224732213Y128685080D01*
X164800857Y97176419D02*
X164848476Y97128800D01*
X164848476Y97128800D02*
X164991333Y97081180D01*
X164991333Y97081180D02*
X165086571Y97081180D01*
X165086571Y97081180D02*
X165229428Y97128800D01*
X165229428Y97128800D02*
X165324666Y97224038D01*
X165324666Y97224038D02*
X165372285Y97319276D01*
X165372285Y97319276D02*
X165419904Y97509752D01*
X165419904Y97509752D02*
X165419904Y97652609D01*
X165419904Y97652609D02*
X165372285Y97843085D01*
X165372285Y97843085D02*
X165324666Y97938323D01*
X165324666Y97938323D02*
X165229428Y98033561D01*
X165229428Y98033561D02*
X165086571Y98081180D01*
X165086571Y98081180D02*
X164991333Y98081180D01*
X164991333Y98081180D02*
X164848476Y98033561D01*
X164848476Y98033561D02*
X164800857Y97985942D01*
X164324666Y97081180D02*
X164134190Y97081180D01*
X164134190Y97081180D02*
X164038952Y97128800D01*
X164038952Y97128800D02*
X163991333Y97176419D01*
X163991333Y97176419D02*
X163896095Y97319276D01*
X163896095Y97319276D02*
X163848476Y97509752D01*
X163848476Y97509752D02*
X163848476Y97890704D01*
X163848476Y97890704D02*
X163896095Y97985942D01*
X163896095Y97985942D02*
X163943714Y98033561D01*
X163943714Y98033561D02*
X164038952Y98081180D01*
X164038952Y98081180D02*
X164229428Y98081180D01*
X164229428Y98081180D02*
X164324666Y98033561D01*
X164324666Y98033561D02*
X164372285Y97985942D01*
X164372285Y97985942D02*
X164419904Y97890704D01*
X164419904Y97890704D02*
X164419904Y97652609D01*
X164419904Y97652609D02*
X164372285Y97557371D01*
X164372285Y97557371D02*
X164324666Y97509752D01*
X164324666Y97509752D02*
X164229428Y97462133D01*
X164229428Y97462133D02*
X164038952Y97462133D01*
X164038952Y97462133D02*
X163943714Y97509752D01*
X163943714Y97509752D02*
X163896095Y97557371D01*
X163896095Y97557371D02*
X163848476Y97652609D01*
X162943714Y98081180D02*
X163419904Y98081180D01*
X163419904Y98081180D02*
X163467523Y97604990D01*
X163467523Y97604990D02*
X163419904Y97652609D01*
X163419904Y97652609D02*
X163324666Y97700228D01*
X163324666Y97700228D02*
X163086571Y97700228D01*
X163086571Y97700228D02*
X162991333Y97652609D01*
X162991333Y97652609D02*
X162943714Y97604990D01*
X162943714Y97604990D02*
X162896095Y97509752D01*
X162896095Y97509752D02*
X162896095Y97271657D01*
X162896095Y97271657D02*
X162943714Y97176419D01*
X162943714Y97176419D02*
X162991333Y97128800D01*
X162991333Y97128800D02*
X163086571Y97081180D01*
X163086571Y97081180D02*
X163324666Y97081180D01*
X163324666Y97081180D02*
X163419904Y97128800D01*
X163419904Y97128800D02*
X163467523Y97176419D01*
X141057857Y92128180D02*
X141391190Y92604371D01*
X141629285Y92128180D02*
X141629285Y93128180D01*
X141629285Y93128180D02*
X141248333Y93128180D01*
X141248333Y93128180D02*
X141153095Y93080561D01*
X141153095Y93080561D02*
X141105476Y93032942D01*
X141105476Y93032942D02*
X141057857Y92937704D01*
X141057857Y92937704D02*
X141057857Y92794847D01*
X141057857Y92794847D02*
X141105476Y92699609D01*
X141105476Y92699609D02*
X141153095Y92651990D01*
X141153095Y92651990D02*
X141248333Y92604371D01*
X141248333Y92604371D02*
X141629285Y92604371D01*
X140581666Y92128180D02*
X140391190Y92128180D01*
X140391190Y92128180D02*
X140295952Y92175800D01*
X140295952Y92175800D02*
X140248333Y92223419D01*
X140248333Y92223419D02*
X140153095Y92366276D01*
X140153095Y92366276D02*
X140105476Y92556752D01*
X140105476Y92556752D02*
X140105476Y92937704D01*
X140105476Y92937704D02*
X140153095Y93032942D01*
X140153095Y93032942D02*
X140200714Y93080561D01*
X140200714Y93080561D02*
X140295952Y93128180D01*
X140295952Y93128180D02*
X140486428Y93128180D01*
X140486428Y93128180D02*
X140581666Y93080561D01*
X140581666Y93080561D02*
X140629285Y93032942D01*
X140629285Y93032942D02*
X140676904Y92937704D01*
X140676904Y92937704D02*
X140676904Y92699609D01*
X140676904Y92699609D02*
X140629285Y92604371D01*
X140629285Y92604371D02*
X140581666Y92556752D01*
X140581666Y92556752D02*
X140486428Y92509133D01*
X140486428Y92509133D02*
X140295952Y92509133D01*
X140295952Y92509133D02*
X140200714Y92556752D01*
X140200714Y92556752D02*
X140153095Y92604371D01*
X140153095Y92604371D02*
X140105476Y92699609D01*
X139629285Y92128180D02*
X139438809Y92128180D01*
X139438809Y92128180D02*
X139343571Y92175800D01*
X139343571Y92175800D02*
X139295952Y92223419D01*
X139295952Y92223419D02*
X139200714Y92366276D01*
X139200714Y92366276D02*
X139153095Y92556752D01*
X139153095Y92556752D02*
X139153095Y92937704D01*
X139153095Y92937704D02*
X139200714Y93032942D01*
X139200714Y93032942D02*
X139248333Y93080561D01*
X139248333Y93080561D02*
X139343571Y93128180D01*
X139343571Y93128180D02*
X139534047Y93128180D01*
X139534047Y93128180D02*
X139629285Y93080561D01*
X139629285Y93080561D02*
X139676904Y93032942D01*
X139676904Y93032942D02*
X139724523Y92937704D01*
X139724523Y92937704D02*
X139724523Y92699609D01*
X139724523Y92699609D02*
X139676904Y92604371D01*
X139676904Y92604371D02*
X139629285Y92556752D01*
X139629285Y92556752D02*
X139534047Y92509133D01*
X139534047Y92509133D02*
X139343571Y92509133D01*
X139343571Y92509133D02*
X139248333Y92556752D01*
X139248333Y92556752D02*
X139200714Y92604371D01*
X139200714Y92604371D02*
X139153095Y92699609D01*
X103871047Y107540919D02*
X103918666Y107493300D01*
X103918666Y107493300D02*
X104061523Y107445680D01*
X104061523Y107445680D02*
X104156761Y107445680D01*
X104156761Y107445680D02*
X104299618Y107493300D01*
X104299618Y107493300D02*
X104394856Y107588538D01*
X104394856Y107588538D02*
X104442475Y107683776D01*
X104442475Y107683776D02*
X104490094Y107874252D01*
X104490094Y107874252D02*
X104490094Y108017109D01*
X104490094Y108017109D02*
X104442475Y108207585D01*
X104442475Y108207585D02*
X104394856Y108302823D01*
X104394856Y108302823D02*
X104299618Y108398061D01*
X104299618Y108398061D02*
X104156761Y108445680D01*
X104156761Y108445680D02*
X104061523Y108445680D01*
X104061523Y108445680D02*
X103918666Y108398061D01*
X103918666Y108398061D02*
X103871047Y108350442D01*
X102918666Y107445680D02*
X103490094Y107445680D01*
X103204380Y107445680D02*
X103204380Y108445680D01*
X103204380Y108445680D02*
X103299618Y108302823D01*
X103299618Y108302823D02*
X103394856Y108207585D01*
X103394856Y108207585D02*
X103490094Y108159966D01*
X102299618Y108445680D02*
X102204380Y108445680D01*
X102204380Y108445680D02*
X102109142Y108398061D01*
X102109142Y108398061D02*
X102061523Y108350442D01*
X102061523Y108350442D02*
X102013904Y108255204D01*
X102013904Y108255204D02*
X101966285Y108064728D01*
X101966285Y108064728D02*
X101966285Y107826633D01*
X101966285Y107826633D02*
X102013904Y107636157D01*
X102013904Y107636157D02*
X102061523Y107540919D01*
X102061523Y107540919D02*
X102109142Y107493300D01*
X102109142Y107493300D02*
X102204380Y107445680D01*
X102204380Y107445680D02*
X102299618Y107445680D01*
X102299618Y107445680D02*
X102394856Y107493300D01*
X102394856Y107493300D02*
X102442475Y107540919D01*
X102442475Y107540919D02*
X102490094Y107636157D01*
X102490094Y107636157D02*
X102537713Y107826633D01*
X102537713Y107826633D02*
X102537713Y108064728D01*
X102537713Y108064728D02*
X102490094Y108255204D01*
X102490094Y108255204D02*
X102442475Y108350442D01*
X102442475Y108350442D02*
X102394856Y108398061D01*
X102394856Y108398061D02*
X102299618Y108445680D01*
X101585332Y108350442D02*
X101537713Y108398061D01*
X101537713Y108398061D02*
X101442475Y108445680D01*
X101442475Y108445680D02*
X101204380Y108445680D01*
X101204380Y108445680D02*
X101109142Y108398061D01*
X101109142Y108398061D02*
X101061523Y108350442D01*
X101061523Y108350442D02*
X101013904Y108255204D01*
X101013904Y108255204D02*
X101013904Y108159966D01*
X101013904Y108159966D02*
X101061523Y108017109D01*
X101061523Y108017109D02*
X101632951Y107445680D01*
X101632951Y107445680D02*
X101013904Y107445680D01*
X216008509Y120072953D02*
X216580928Y119500533D01*
X216580928Y119500533D02*
X216614600Y119399518D01*
X216614600Y119399518D02*
X216614600Y119332174D01*
X216614600Y119332174D02*
X216580928Y119231159D01*
X216580928Y119231159D02*
X216446241Y119096472D01*
X216446241Y119096472D02*
X216345226Y119062800D01*
X216345226Y119062800D02*
X216277883Y119062800D01*
X216277883Y119062800D02*
X216176867Y119096472D01*
X216176867Y119096472D02*
X215604448Y119668892D01*
X215335074Y119399518D02*
X214897341Y118961785D01*
X214897341Y118961785D02*
X215402417Y118928113D01*
X215402417Y118928113D02*
X215301402Y118827098D01*
X215301402Y118827098D02*
X215267730Y118726083D01*
X215267730Y118726083D02*
X215267730Y118658739D01*
X215267730Y118658739D02*
X215301402Y118557724D01*
X215301402Y118557724D02*
X215469761Y118389365D01*
X215469761Y118389365D02*
X215570776Y118355694D01*
X215570776Y118355694D02*
X215638119Y118355694D01*
X215638119Y118355694D02*
X215739135Y118389365D01*
X215739135Y118389365D02*
X215941165Y118591396D01*
X215941165Y118591396D02*
X215974837Y118692411D01*
X215974837Y118692411D02*
X215974837Y118759755D01*
X214661638Y118726083D02*
X214223906Y118288350D01*
X214223906Y118288350D02*
X214728982Y118254678D01*
X214728982Y118254678D02*
X214627967Y118153663D01*
X214627967Y118153663D02*
X214594295Y118052648D01*
X214594295Y118052648D02*
X214594295Y117985304D01*
X214594295Y117985304D02*
X214627967Y117884289D01*
X214627967Y117884289D02*
X214796326Y117715930D01*
X214796326Y117715930D02*
X214897341Y117682258D01*
X214897341Y117682258D02*
X214964684Y117682258D01*
X214964684Y117682258D02*
X215065700Y117715930D01*
X215065700Y117715930D02*
X215267730Y117917961D01*
X215267730Y117917961D02*
X215301402Y118018976D01*
X215301402Y118018976D02*
X215301402Y118086320D01*
X106918357Y177345180D02*
X107251690Y177821371D01*
X107489785Y177345180D02*
X107489785Y178345180D01*
X107489785Y178345180D02*
X107108833Y178345180D01*
X107108833Y178345180D02*
X107013595Y178297561D01*
X107013595Y178297561D02*
X106965976Y178249942D01*
X106965976Y178249942D02*
X106918357Y178154704D01*
X106918357Y178154704D02*
X106918357Y178011847D01*
X106918357Y178011847D02*
X106965976Y177916609D01*
X106965976Y177916609D02*
X107013595Y177868990D01*
X107013595Y177868990D02*
X107108833Y177821371D01*
X107108833Y177821371D02*
X107489785Y177821371D01*
X106442166Y177345180D02*
X106251690Y177345180D01*
X106251690Y177345180D02*
X106156452Y177392800D01*
X106156452Y177392800D02*
X106108833Y177440419D01*
X106108833Y177440419D02*
X106013595Y177583276D01*
X106013595Y177583276D02*
X105965976Y177773752D01*
X105965976Y177773752D02*
X105965976Y178154704D01*
X105965976Y178154704D02*
X106013595Y178249942D01*
X106013595Y178249942D02*
X106061214Y178297561D01*
X106061214Y178297561D02*
X106156452Y178345180D01*
X106156452Y178345180D02*
X106346928Y178345180D01*
X106346928Y178345180D02*
X106442166Y178297561D01*
X106442166Y178297561D02*
X106489785Y178249942D01*
X106489785Y178249942D02*
X106537404Y178154704D01*
X106537404Y178154704D02*
X106537404Y177916609D01*
X106537404Y177916609D02*
X106489785Y177821371D01*
X106489785Y177821371D02*
X106442166Y177773752D01*
X106442166Y177773752D02*
X106346928Y177726133D01*
X106346928Y177726133D02*
X106156452Y177726133D01*
X106156452Y177726133D02*
X106061214Y177773752D01*
X106061214Y177773752D02*
X106013595Y177821371D01*
X106013595Y177821371D02*
X105965976Y177916609D01*
X105108833Y178011847D02*
X105108833Y177345180D01*
X105346928Y178392800D02*
X105585023Y177678514D01*
X105585023Y177678514D02*
X104965976Y177678514D01*
X110093357Y173375180D02*
X110426690Y173851371D01*
X110664785Y173375180D02*
X110664785Y174375180D01*
X110664785Y174375180D02*
X110283833Y174375180D01*
X110283833Y174375180D02*
X110188595Y174327561D01*
X110188595Y174327561D02*
X110140976Y174279942D01*
X110140976Y174279942D02*
X110093357Y174184704D01*
X110093357Y174184704D02*
X110093357Y174041847D01*
X110093357Y174041847D02*
X110140976Y173946609D01*
X110140976Y173946609D02*
X110188595Y173898990D01*
X110188595Y173898990D02*
X110283833Y173851371D01*
X110283833Y173851371D02*
X110664785Y173851371D01*
X109617166Y173375180D02*
X109426690Y173375180D01*
X109426690Y173375180D02*
X109331452Y173422800D01*
X109331452Y173422800D02*
X109283833Y173470419D01*
X109283833Y173470419D02*
X109188595Y173613276D01*
X109188595Y173613276D02*
X109140976Y173803752D01*
X109140976Y173803752D02*
X109140976Y174184704D01*
X109140976Y174184704D02*
X109188595Y174279942D01*
X109188595Y174279942D02*
X109236214Y174327561D01*
X109236214Y174327561D02*
X109331452Y174375180D01*
X109331452Y174375180D02*
X109521928Y174375180D01*
X109521928Y174375180D02*
X109617166Y174327561D01*
X109617166Y174327561D02*
X109664785Y174279942D01*
X109664785Y174279942D02*
X109712404Y174184704D01*
X109712404Y174184704D02*
X109712404Y173946609D01*
X109712404Y173946609D02*
X109664785Y173851371D01*
X109664785Y173851371D02*
X109617166Y173803752D01*
X109617166Y173803752D02*
X109521928Y173756133D01*
X109521928Y173756133D02*
X109331452Y173756133D01*
X109331452Y173756133D02*
X109236214Y173803752D01*
X109236214Y173803752D02*
X109188595Y173851371D01*
X109188595Y173851371D02*
X109140976Y173946609D01*
X108807642Y174375180D02*
X108188595Y174375180D01*
X108188595Y174375180D02*
X108521928Y173994228D01*
X108521928Y173994228D02*
X108379071Y173994228D01*
X108379071Y173994228D02*
X108283833Y173946609D01*
X108283833Y173946609D02*
X108236214Y173898990D01*
X108236214Y173898990D02*
X108188595Y173803752D01*
X108188595Y173803752D02*
X108188595Y173565657D01*
X108188595Y173565657D02*
X108236214Y173470419D01*
X108236214Y173470419D02*
X108283833Y173422800D01*
X108283833Y173422800D02*
X108379071Y173375180D01*
X108379071Y173375180D02*
X108664785Y173375180D01*
X108664785Y173375180D02*
X108760023Y173422800D01*
X108760023Y173422800D02*
X108807642Y173470419D01*
X126904357Y185693179D02*
X127237690Y186169370D01*
X127475785Y185693179D02*
X127475785Y186693179D01*
X127475785Y186693179D02*
X127094833Y186693179D01*
X127094833Y186693179D02*
X126999595Y186645560D01*
X126999595Y186645560D02*
X126951976Y186597941D01*
X126951976Y186597941D02*
X126904357Y186502703D01*
X126904357Y186502703D02*
X126904357Y186359846D01*
X126904357Y186359846D02*
X126951976Y186264608D01*
X126951976Y186264608D02*
X126999595Y186216989D01*
X126999595Y186216989D02*
X127094833Y186169370D01*
X127094833Y186169370D02*
X127475785Y186169370D01*
X126428166Y185693179D02*
X126237690Y185693179D01*
X126237690Y185693179D02*
X126142452Y185740799D01*
X126142452Y185740799D02*
X126094833Y185788418D01*
X126094833Y185788418D02*
X125999595Y185931275D01*
X125999595Y185931275D02*
X125951976Y186121751D01*
X125951976Y186121751D02*
X125951976Y186502703D01*
X125951976Y186502703D02*
X125999595Y186597941D01*
X125999595Y186597941D02*
X126047214Y186645560D01*
X126047214Y186645560D02*
X126142452Y186693179D01*
X126142452Y186693179D02*
X126332928Y186693179D01*
X126332928Y186693179D02*
X126428166Y186645560D01*
X126428166Y186645560D02*
X126475785Y186597941D01*
X126475785Y186597941D02*
X126523404Y186502703D01*
X126523404Y186502703D02*
X126523404Y186264608D01*
X126523404Y186264608D02*
X126475785Y186169370D01*
X126475785Y186169370D02*
X126428166Y186121751D01*
X126428166Y186121751D02*
X126332928Y186074132D01*
X126332928Y186074132D02*
X126142452Y186074132D01*
X126142452Y186074132D02*
X126047214Y186121751D01*
X126047214Y186121751D02*
X125999595Y186169370D01*
X125999595Y186169370D02*
X125951976Y186264608D01*
X125332928Y186693179D02*
X125237690Y186693179D01*
X125237690Y186693179D02*
X125142452Y186645560D01*
X125142452Y186645560D02*
X125094833Y186597941D01*
X125094833Y186597941D02*
X125047214Y186502703D01*
X125047214Y186502703D02*
X124999595Y186312227D01*
X124999595Y186312227D02*
X124999595Y186074132D01*
X124999595Y186074132D02*
X125047214Y185883656D01*
X125047214Y185883656D02*
X125094833Y185788418D01*
X125094833Y185788418D02*
X125142452Y185740799D01*
X125142452Y185740799D02*
X125237690Y185693179D01*
X125237690Y185693179D02*
X125332928Y185693179D01*
X125332928Y185693179D02*
X125428166Y185740799D01*
X125428166Y185740799D02*
X125475785Y185788418D01*
X125475785Y185788418D02*
X125523404Y185883656D01*
X125523404Y185883656D02*
X125571023Y186074132D01*
X125571023Y186074132D02*
X125571023Y186312227D01*
X125571023Y186312227D02*
X125523404Y186502703D01*
X125523404Y186502703D02*
X125475785Y186597941D01*
X125475785Y186597941D02*
X125428166Y186645560D01*
X125428166Y186645560D02*
X125332928Y186693179D01*
X103998047Y104016680D02*
X104331380Y104492871D01*
X104569475Y104016680D02*
X104569475Y105016680D01*
X104569475Y105016680D02*
X104188523Y105016680D01*
X104188523Y105016680D02*
X104093285Y104969061D01*
X104093285Y104969061D02*
X104045666Y104921442D01*
X104045666Y104921442D02*
X103998047Y104826204D01*
X103998047Y104826204D02*
X103998047Y104683347D01*
X103998047Y104683347D02*
X104045666Y104588109D01*
X104045666Y104588109D02*
X104093285Y104540490D01*
X104093285Y104540490D02*
X104188523Y104492871D01*
X104188523Y104492871D02*
X104569475Y104492871D01*
X103045666Y104016680D02*
X103617094Y104016680D01*
X103331380Y104016680D02*
X103331380Y105016680D01*
X103331380Y105016680D02*
X103426618Y104873823D01*
X103426618Y104873823D02*
X103521856Y104778585D01*
X103521856Y104778585D02*
X103617094Y104730966D01*
X102426618Y105016680D02*
X102331380Y105016680D01*
X102331380Y105016680D02*
X102236142Y104969061D01*
X102236142Y104969061D02*
X102188523Y104921442D01*
X102188523Y104921442D02*
X102140904Y104826204D01*
X102140904Y104826204D02*
X102093285Y104635728D01*
X102093285Y104635728D02*
X102093285Y104397633D01*
X102093285Y104397633D02*
X102140904Y104207157D01*
X102140904Y104207157D02*
X102188523Y104111919D01*
X102188523Y104111919D02*
X102236142Y104064300D01*
X102236142Y104064300D02*
X102331380Y104016680D01*
X102331380Y104016680D02*
X102426618Y104016680D01*
X102426618Y104016680D02*
X102521856Y104064300D01*
X102521856Y104064300D02*
X102569475Y104111919D01*
X102569475Y104111919D02*
X102617094Y104207157D01*
X102617094Y104207157D02*
X102664713Y104397633D01*
X102664713Y104397633D02*
X102664713Y104635728D01*
X102664713Y104635728D02*
X102617094Y104826204D01*
X102617094Y104826204D02*
X102569475Y104921442D01*
X102569475Y104921442D02*
X102521856Y104969061D01*
X102521856Y104969061D02*
X102426618Y105016680D01*
X101140904Y104016680D02*
X101712332Y104016680D01*
X101426618Y104016680D02*
X101426618Y105016680D01*
X101426618Y105016680D02*
X101521856Y104873823D01*
X101521856Y104873823D02*
X101617094Y104778585D01*
X101617094Y104778585D02*
X101712332Y104730966D01*
X123732357Y187714419D02*
X123779976Y187666800D01*
X123779976Y187666800D02*
X123922833Y187619180D01*
X123922833Y187619180D02*
X124018071Y187619180D01*
X124018071Y187619180D02*
X124160928Y187666800D01*
X124160928Y187666800D02*
X124256166Y187762038D01*
X124256166Y187762038D02*
X124303785Y187857276D01*
X124303785Y187857276D02*
X124351404Y188047752D01*
X124351404Y188047752D02*
X124351404Y188190609D01*
X124351404Y188190609D02*
X124303785Y188381085D01*
X124303785Y188381085D02*
X124256166Y188476323D01*
X124256166Y188476323D02*
X124160928Y188571561D01*
X124160928Y188571561D02*
X124018071Y188619180D01*
X124018071Y188619180D02*
X123922833Y188619180D01*
X123922833Y188619180D02*
X123779976Y188571561D01*
X123779976Y188571561D02*
X123732357Y188523942D01*
X122875214Y188619180D02*
X123065690Y188619180D01*
X123065690Y188619180D02*
X123160928Y188571561D01*
X123160928Y188571561D02*
X123208547Y188523942D01*
X123208547Y188523942D02*
X123303785Y188381085D01*
X123303785Y188381085D02*
X123351404Y188190609D01*
X123351404Y188190609D02*
X123351404Y187809657D01*
X123351404Y187809657D02*
X123303785Y187714419D01*
X123303785Y187714419D02*
X123256166Y187666800D01*
X123256166Y187666800D02*
X123160928Y187619180D01*
X123160928Y187619180D02*
X122970452Y187619180D01*
X122970452Y187619180D02*
X122875214Y187666800D01*
X122875214Y187666800D02*
X122827595Y187714419D01*
X122827595Y187714419D02*
X122779976Y187809657D01*
X122779976Y187809657D02*
X122779976Y188047752D01*
X122779976Y188047752D02*
X122827595Y188142990D01*
X122827595Y188142990D02*
X122875214Y188190609D01*
X122875214Y188190609D02*
X122970452Y188238228D01*
X122970452Y188238228D02*
X123160928Y188238228D01*
X123160928Y188238228D02*
X123256166Y188190609D01*
X123256166Y188190609D02*
X123303785Y188142990D01*
X123303785Y188142990D02*
X123351404Y188047752D01*
X122399023Y188523942D02*
X122351404Y188571561D01*
X122351404Y188571561D02*
X122256166Y188619180D01*
X122256166Y188619180D02*
X122018071Y188619180D01*
X122018071Y188619180D02*
X121922833Y188571561D01*
X121922833Y188571561D02*
X121875214Y188523942D01*
X121875214Y188523942D02*
X121827595Y188428704D01*
X121827595Y188428704D02*
X121827595Y188333466D01*
X121827595Y188333466D02*
X121875214Y188190609D01*
X121875214Y188190609D02*
X122446642Y187619180D01*
X122446642Y187619180D02*
X121827595Y187619180D01*
X148940857Y99002419D02*
X148988476Y98954800D01*
X148988476Y98954800D02*
X149131333Y98907180D01*
X149131333Y98907180D02*
X149226571Y98907180D01*
X149226571Y98907180D02*
X149369428Y98954800D01*
X149369428Y98954800D02*
X149464666Y99050038D01*
X149464666Y99050038D02*
X149512285Y99145276D01*
X149512285Y99145276D02*
X149559904Y99335752D01*
X149559904Y99335752D02*
X149559904Y99478609D01*
X149559904Y99478609D02*
X149512285Y99669085D01*
X149512285Y99669085D02*
X149464666Y99764323D01*
X149464666Y99764323D02*
X149369428Y99859561D01*
X149369428Y99859561D02*
X149226571Y99907180D01*
X149226571Y99907180D02*
X149131333Y99907180D01*
X149131333Y99907180D02*
X148988476Y99859561D01*
X148988476Y99859561D02*
X148940857Y99811942D01*
X148464666Y98907180D02*
X148274190Y98907180D01*
X148274190Y98907180D02*
X148178952Y98954800D01*
X148178952Y98954800D02*
X148131333Y99002419D01*
X148131333Y99002419D02*
X148036095Y99145276D01*
X148036095Y99145276D02*
X147988476Y99335752D01*
X147988476Y99335752D02*
X147988476Y99716704D01*
X147988476Y99716704D02*
X148036095Y99811942D01*
X148036095Y99811942D02*
X148083714Y99859561D01*
X148083714Y99859561D02*
X148178952Y99907180D01*
X148178952Y99907180D02*
X148369428Y99907180D01*
X148369428Y99907180D02*
X148464666Y99859561D01*
X148464666Y99859561D02*
X148512285Y99811942D01*
X148512285Y99811942D02*
X148559904Y99716704D01*
X148559904Y99716704D02*
X148559904Y99478609D01*
X148559904Y99478609D02*
X148512285Y99383371D01*
X148512285Y99383371D02*
X148464666Y99335752D01*
X148464666Y99335752D02*
X148369428Y99288133D01*
X148369428Y99288133D02*
X148178952Y99288133D01*
X148178952Y99288133D02*
X148083714Y99335752D01*
X148083714Y99335752D02*
X148036095Y99383371D01*
X148036095Y99383371D02*
X147988476Y99478609D01*
X147607523Y99811942D02*
X147559904Y99859561D01*
X147559904Y99859561D02*
X147464666Y99907180D01*
X147464666Y99907180D02*
X147226571Y99907180D01*
X147226571Y99907180D02*
X147131333Y99859561D01*
X147131333Y99859561D02*
X147083714Y99811942D01*
X147083714Y99811942D02*
X147036095Y99716704D01*
X147036095Y99716704D02*
X147036095Y99621466D01*
X147036095Y99621466D02*
X147083714Y99478609D01*
X147083714Y99478609D02*
X147655142Y98907180D01*
X147655142Y98907180D02*
X147036095Y98907180D01*
X110777257Y184704819D02*
X110824876Y184657200D01*
X110824876Y184657200D02*
X110967733Y184609580D01*
X110967733Y184609580D02*
X111062971Y184609580D01*
X111062971Y184609580D02*
X111205828Y184657200D01*
X111205828Y184657200D02*
X111301066Y184752438D01*
X111301066Y184752438D02*
X111348685Y184847676D01*
X111348685Y184847676D02*
X111396304Y185038152D01*
X111396304Y185038152D02*
X111396304Y185181009D01*
X111396304Y185181009D02*
X111348685Y185371485D01*
X111348685Y185371485D02*
X111301066Y185466723D01*
X111301066Y185466723D02*
X111205828Y185561961D01*
X111205828Y185561961D02*
X111062971Y185609580D01*
X111062971Y185609580D02*
X110967733Y185609580D01*
X110967733Y185609580D02*
X110824876Y185561961D01*
X110824876Y185561961D02*
X110777257Y185514342D01*
X109920114Y185609580D02*
X110110590Y185609580D01*
X110110590Y185609580D02*
X110205828Y185561961D01*
X110205828Y185561961D02*
X110253447Y185514342D01*
X110253447Y185514342D02*
X110348685Y185371485D01*
X110348685Y185371485D02*
X110396304Y185181009D01*
X110396304Y185181009D02*
X110396304Y184800057D01*
X110396304Y184800057D02*
X110348685Y184704819D01*
X110348685Y184704819D02*
X110301066Y184657200D01*
X110301066Y184657200D02*
X110205828Y184609580D01*
X110205828Y184609580D02*
X110015352Y184609580D01*
X110015352Y184609580D02*
X109920114Y184657200D01*
X109920114Y184657200D02*
X109872495Y184704819D01*
X109872495Y184704819D02*
X109824876Y184800057D01*
X109824876Y184800057D02*
X109824876Y185038152D01*
X109824876Y185038152D02*
X109872495Y185133390D01*
X109872495Y185133390D02*
X109920114Y185181009D01*
X109920114Y185181009D02*
X110015352Y185228628D01*
X110015352Y185228628D02*
X110205828Y185228628D01*
X110205828Y185228628D02*
X110301066Y185181009D01*
X110301066Y185181009D02*
X110348685Y185133390D01*
X110348685Y185133390D02*
X110396304Y185038152D01*
X108967733Y185276247D02*
X108967733Y184609580D01*
X109205828Y185657200D02*
X109443923Y184942914D01*
X109443923Y184942914D02*
X108824876Y184942914D01*
X111609047Y109270919D02*
X111656666Y109223300D01*
X111656666Y109223300D02*
X111799523Y109175680D01*
X111799523Y109175680D02*
X111894761Y109175680D01*
X111894761Y109175680D02*
X112037618Y109223300D01*
X112037618Y109223300D02*
X112132856Y109318538D01*
X112132856Y109318538D02*
X112180475Y109413776D01*
X112180475Y109413776D02*
X112228094Y109604252D01*
X112228094Y109604252D02*
X112228094Y109747109D01*
X112228094Y109747109D02*
X112180475Y109937585D01*
X112180475Y109937585D02*
X112132856Y110032823D01*
X112132856Y110032823D02*
X112037618Y110128061D01*
X112037618Y110128061D02*
X111894761Y110175680D01*
X111894761Y110175680D02*
X111799523Y110175680D01*
X111799523Y110175680D02*
X111656666Y110128061D01*
X111656666Y110128061D02*
X111609047Y110080442D01*
X110656666Y109175680D02*
X111228094Y109175680D01*
X110942380Y109175680D02*
X110942380Y110175680D01*
X110942380Y110175680D02*
X111037618Y110032823D01*
X111037618Y110032823D02*
X111132856Y109937585D01*
X111132856Y109937585D02*
X111228094Y109889966D01*
X110037618Y110175680D02*
X109942380Y110175680D01*
X109942380Y110175680D02*
X109847142Y110128061D01*
X109847142Y110128061D02*
X109799523Y110080442D01*
X109799523Y110080442D02*
X109751904Y109985204D01*
X109751904Y109985204D02*
X109704285Y109794728D01*
X109704285Y109794728D02*
X109704285Y109556633D01*
X109704285Y109556633D02*
X109751904Y109366157D01*
X109751904Y109366157D02*
X109799523Y109270919D01*
X109799523Y109270919D02*
X109847142Y109223300D01*
X109847142Y109223300D02*
X109942380Y109175680D01*
X109942380Y109175680D02*
X110037618Y109175680D01*
X110037618Y109175680D02*
X110132856Y109223300D01*
X110132856Y109223300D02*
X110180475Y109270919D01*
X110180475Y109270919D02*
X110228094Y109366157D01*
X110228094Y109366157D02*
X110275713Y109556633D01*
X110275713Y109556633D02*
X110275713Y109794728D01*
X110275713Y109794728D02*
X110228094Y109985204D01*
X110228094Y109985204D02*
X110180475Y110080442D01*
X110180475Y110080442D02*
X110132856Y110128061D01*
X110132856Y110128061D02*
X110037618Y110175680D01*
X109370951Y110175680D02*
X108704285Y110175680D01*
X108704285Y110175680D02*
X109132856Y109175680D01*
X164800857Y95398419D02*
X164848476Y95350800D01*
X164848476Y95350800D02*
X164991333Y95303180D01*
X164991333Y95303180D02*
X165086571Y95303180D01*
X165086571Y95303180D02*
X165229428Y95350800D01*
X165229428Y95350800D02*
X165324666Y95446038D01*
X165324666Y95446038D02*
X165372285Y95541276D01*
X165372285Y95541276D02*
X165419904Y95731752D01*
X165419904Y95731752D02*
X165419904Y95874609D01*
X165419904Y95874609D02*
X165372285Y96065085D01*
X165372285Y96065085D02*
X165324666Y96160323D01*
X165324666Y96160323D02*
X165229428Y96255561D01*
X165229428Y96255561D02*
X165086571Y96303180D01*
X165086571Y96303180D02*
X164991333Y96303180D01*
X164991333Y96303180D02*
X164848476Y96255561D01*
X164848476Y96255561D02*
X164800857Y96207942D01*
X164229428Y95874609D02*
X164324666Y95922228D01*
X164324666Y95922228D02*
X164372285Y95969847D01*
X164372285Y95969847D02*
X164419904Y96065085D01*
X164419904Y96065085D02*
X164419904Y96112704D01*
X164419904Y96112704D02*
X164372285Y96207942D01*
X164372285Y96207942D02*
X164324666Y96255561D01*
X164324666Y96255561D02*
X164229428Y96303180D01*
X164229428Y96303180D02*
X164038952Y96303180D01*
X164038952Y96303180D02*
X163943714Y96255561D01*
X163943714Y96255561D02*
X163896095Y96207942D01*
X163896095Y96207942D02*
X163848476Y96112704D01*
X163848476Y96112704D02*
X163848476Y96065085D01*
X163848476Y96065085D02*
X163896095Y95969847D01*
X163896095Y95969847D02*
X163943714Y95922228D01*
X163943714Y95922228D02*
X164038952Y95874609D01*
X164038952Y95874609D02*
X164229428Y95874609D01*
X164229428Y95874609D02*
X164324666Y95826990D01*
X164324666Y95826990D02*
X164372285Y95779371D01*
X164372285Y95779371D02*
X164419904Y95684133D01*
X164419904Y95684133D02*
X164419904Y95493657D01*
X164419904Y95493657D02*
X164372285Y95398419D01*
X164372285Y95398419D02*
X164324666Y95350800D01*
X164324666Y95350800D02*
X164229428Y95303180D01*
X164229428Y95303180D02*
X164038952Y95303180D01*
X164038952Y95303180D02*
X163943714Y95350800D01*
X163943714Y95350800D02*
X163896095Y95398419D01*
X163896095Y95398419D02*
X163848476Y95493657D01*
X163848476Y95493657D02*
X163848476Y95684133D01*
X163848476Y95684133D02*
X163896095Y95779371D01*
X163896095Y95779371D02*
X163943714Y95826990D01*
X163943714Y95826990D02*
X164038952Y95874609D01*
X163277047Y95874609D02*
X163372285Y95922228D01*
X163372285Y95922228D02*
X163419904Y95969847D01*
X163419904Y95969847D02*
X163467523Y96065085D01*
X163467523Y96065085D02*
X163467523Y96112704D01*
X163467523Y96112704D02*
X163419904Y96207942D01*
X163419904Y96207942D02*
X163372285Y96255561D01*
X163372285Y96255561D02*
X163277047Y96303180D01*
X163277047Y96303180D02*
X163086571Y96303180D01*
X163086571Y96303180D02*
X162991333Y96255561D01*
X162991333Y96255561D02*
X162943714Y96207942D01*
X162943714Y96207942D02*
X162896095Y96112704D01*
X162896095Y96112704D02*
X162896095Y96065085D01*
X162896095Y96065085D02*
X162943714Y95969847D01*
X162943714Y95969847D02*
X162991333Y95922228D01*
X162991333Y95922228D02*
X163086571Y95874609D01*
X163086571Y95874609D02*
X163277047Y95874609D01*
X163277047Y95874609D02*
X163372285Y95826990D01*
X163372285Y95826990D02*
X163419904Y95779371D01*
X163419904Y95779371D02*
X163467523Y95684133D01*
X163467523Y95684133D02*
X163467523Y95493657D01*
X163467523Y95493657D02*
X163419904Y95398419D01*
X163419904Y95398419D02*
X163372285Y95350800D01*
X163372285Y95350800D02*
X163277047Y95303180D01*
X163277047Y95303180D02*
X163086571Y95303180D01*
X163086571Y95303180D02*
X162991333Y95350800D01*
X162991333Y95350800D02*
X162943714Y95398419D01*
X162943714Y95398419D02*
X162896095Y95493657D01*
X162896095Y95493657D02*
X162896095Y95684133D01*
X162896095Y95684133D02*
X162943714Y95779371D01*
X162943714Y95779371D02*
X162991333Y95826990D01*
X162991333Y95826990D02*
X163086571Y95874609D01*
X183916533Y123004990D02*
X184249866Y123004990D01*
X184249866Y122481180D02*
X184249866Y123481180D01*
X184249866Y123481180D02*
X183773676Y123481180D01*
X183059390Y123004990D02*
X182916533Y122957371D01*
X182916533Y122957371D02*
X182868914Y122909752D01*
X182868914Y122909752D02*
X182821295Y122814514D01*
X182821295Y122814514D02*
X182821295Y122671657D01*
X182821295Y122671657D02*
X182868914Y122576419D01*
X182868914Y122576419D02*
X182916533Y122528800D01*
X182916533Y122528800D02*
X183011771Y122481180D01*
X183011771Y122481180D02*
X183392723Y122481180D01*
X183392723Y122481180D02*
X183392723Y123481180D01*
X183392723Y123481180D02*
X183059390Y123481180D01*
X183059390Y123481180D02*
X182964152Y123433561D01*
X182964152Y123433561D02*
X182916533Y123385942D01*
X182916533Y123385942D02*
X182868914Y123290704D01*
X182868914Y123290704D02*
X182868914Y123195466D01*
X182868914Y123195466D02*
X182916533Y123100228D01*
X182916533Y123100228D02*
X182964152Y123052609D01*
X182964152Y123052609D02*
X183059390Y123004990D01*
X183059390Y123004990D02*
X183392723Y123004990D01*
X182440342Y123385942D02*
X182392723Y123433561D01*
X182392723Y123433561D02*
X182297485Y123481180D01*
X182297485Y123481180D02*
X182059390Y123481180D01*
X182059390Y123481180D02*
X181964152Y123433561D01*
X181964152Y123433561D02*
X181916533Y123385942D01*
X181916533Y123385942D02*
X181868914Y123290704D01*
X181868914Y123290704D02*
X181868914Y123195466D01*
X181868914Y123195466D02*
X181916533Y123052609D01*
X181916533Y123052609D02*
X182487961Y122481180D01*
X182487961Y122481180D02*
X181868914Y122481180D01*
X119254857Y109016919D02*
X119302476Y108969300D01*
X119302476Y108969300D02*
X119445333Y108921680D01*
X119445333Y108921680D02*
X119540571Y108921680D01*
X119540571Y108921680D02*
X119683428Y108969300D01*
X119683428Y108969300D02*
X119778666Y109064538D01*
X119778666Y109064538D02*
X119826285Y109159776D01*
X119826285Y109159776D02*
X119873904Y109350252D01*
X119873904Y109350252D02*
X119873904Y109493109D01*
X119873904Y109493109D02*
X119826285Y109683585D01*
X119826285Y109683585D02*
X119778666Y109778823D01*
X119778666Y109778823D02*
X119683428Y109874061D01*
X119683428Y109874061D02*
X119540571Y109921680D01*
X119540571Y109921680D02*
X119445333Y109921680D01*
X119445333Y109921680D02*
X119302476Y109874061D01*
X119302476Y109874061D02*
X119254857Y109826442D01*
X118778666Y108921680D02*
X118588190Y108921680D01*
X118588190Y108921680D02*
X118492952Y108969300D01*
X118492952Y108969300D02*
X118445333Y109016919D01*
X118445333Y109016919D02*
X118350095Y109159776D01*
X118350095Y109159776D02*
X118302476Y109350252D01*
X118302476Y109350252D02*
X118302476Y109731204D01*
X118302476Y109731204D02*
X118350095Y109826442D01*
X118350095Y109826442D02*
X118397714Y109874061D01*
X118397714Y109874061D02*
X118492952Y109921680D01*
X118492952Y109921680D02*
X118683428Y109921680D01*
X118683428Y109921680D02*
X118778666Y109874061D01*
X118778666Y109874061D02*
X118826285Y109826442D01*
X118826285Y109826442D02*
X118873904Y109731204D01*
X118873904Y109731204D02*
X118873904Y109493109D01*
X118873904Y109493109D02*
X118826285Y109397871D01*
X118826285Y109397871D02*
X118778666Y109350252D01*
X118778666Y109350252D02*
X118683428Y109302633D01*
X118683428Y109302633D02*
X118492952Y109302633D01*
X118492952Y109302633D02*
X118397714Y109350252D01*
X118397714Y109350252D02*
X118350095Y109397871D01*
X118350095Y109397871D02*
X118302476Y109493109D01*
X117969142Y109921680D02*
X117302476Y109921680D01*
X117302476Y109921680D02*
X117731047Y108921680D01*
X107018057Y182374380D02*
X107351390Y182850571D01*
X107589485Y182374380D02*
X107589485Y183374380D01*
X107589485Y183374380D02*
X107208533Y183374380D01*
X107208533Y183374380D02*
X107113295Y183326761D01*
X107113295Y183326761D02*
X107065676Y183279142D01*
X107065676Y183279142D02*
X107018057Y183183904D01*
X107018057Y183183904D02*
X107018057Y183041047D01*
X107018057Y183041047D02*
X107065676Y182945809D01*
X107065676Y182945809D02*
X107113295Y182898190D01*
X107113295Y182898190D02*
X107208533Y182850571D01*
X107208533Y182850571D02*
X107589485Y182850571D01*
X106541866Y182374380D02*
X106351390Y182374380D01*
X106351390Y182374380D02*
X106256152Y182422000D01*
X106256152Y182422000D02*
X106208533Y182469619D01*
X106208533Y182469619D02*
X106113295Y182612476D01*
X106113295Y182612476D02*
X106065676Y182802952D01*
X106065676Y182802952D02*
X106065676Y183183904D01*
X106065676Y183183904D02*
X106113295Y183279142D01*
X106113295Y183279142D02*
X106160914Y183326761D01*
X106160914Y183326761D02*
X106256152Y183374380D01*
X106256152Y183374380D02*
X106446628Y183374380D01*
X106446628Y183374380D02*
X106541866Y183326761D01*
X106541866Y183326761D02*
X106589485Y183279142D01*
X106589485Y183279142D02*
X106637104Y183183904D01*
X106637104Y183183904D02*
X106637104Y182945809D01*
X106637104Y182945809D02*
X106589485Y182850571D01*
X106589485Y182850571D02*
X106541866Y182802952D01*
X106541866Y182802952D02*
X106446628Y182755333D01*
X106446628Y182755333D02*
X106256152Y182755333D01*
X106256152Y182755333D02*
X106160914Y182802952D01*
X106160914Y182802952D02*
X106113295Y182850571D01*
X106113295Y182850571D02*
X106065676Y182945809D01*
X105684723Y183279142D02*
X105637104Y183326761D01*
X105637104Y183326761D02*
X105541866Y183374380D01*
X105541866Y183374380D02*
X105303771Y183374380D01*
X105303771Y183374380D02*
X105208533Y183326761D01*
X105208533Y183326761D02*
X105160914Y183279142D01*
X105160914Y183279142D02*
X105113295Y183183904D01*
X105113295Y183183904D02*
X105113295Y183088666D01*
X105113295Y183088666D02*
X105160914Y182945809D01*
X105160914Y182945809D02*
X105732342Y182374380D01*
X105732342Y182374380D02*
X105113295Y182374380D01*
X119602094Y178395980D02*
X119602094Y177586457D01*
X119602094Y177586457D02*
X119554475Y177491219D01*
X119554475Y177491219D02*
X119506856Y177443600D01*
X119506856Y177443600D02*
X119411618Y177395980D01*
X119411618Y177395980D02*
X119221142Y177395980D01*
X119221142Y177395980D02*
X119125904Y177443600D01*
X119125904Y177443600D02*
X119078285Y177491219D01*
X119078285Y177491219D02*
X119030666Y177586457D01*
X119030666Y177586457D02*
X119030666Y178395980D01*
X118649713Y178395980D02*
X118030666Y178395980D01*
X118030666Y178395980D02*
X118363999Y178015028D01*
X118363999Y178015028D02*
X118221142Y178015028D01*
X118221142Y178015028D02*
X118125904Y177967409D01*
X118125904Y177967409D02*
X118078285Y177919790D01*
X118078285Y177919790D02*
X118030666Y177824552D01*
X118030666Y177824552D02*
X118030666Y177586457D01*
X118030666Y177586457D02*
X118078285Y177491219D01*
X118078285Y177491219D02*
X118125904Y177443600D01*
X118125904Y177443600D02*
X118221142Y177395980D01*
X118221142Y177395980D02*
X118506856Y177395980D01*
X118506856Y177395980D02*
X118602094Y177443600D01*
X118602094Y177443600D02*
X118649713Y177491219D01*
X117649713Y178300742D02*
X117602094Y178348361D01*
X117602094Y178348361D02*
X117506856Y178395980D01*
X117506856Y178395980D02*
X117268761Y178395980D01*
X117268761Y178395980D02*
X117173523Y178348361D01*
X117173523Y178348361D02*
X117125904Y178300742D01*
X117125904Y178300742D02*
X117078285Y178205504D01*
X117078285Y178205504D02*
X117078285Y178110266D01*
X117078285Y178110266D02*
X117125904Y177967409D01*
X117125904Y177967409D02*
X117697332Y177395980D01*
X117697332Y177395980D02*
X117078285Y177395980D01*
X122810180Y178342999D02*
X122572085Y178342999D01*
X122667323Y178104904D02*
X122572085Y178342999D01*
X122572085Y178342999D02*
X122667323Y178581094D01*
X122381609Y178200142D02*
X122572085Y178342999D01*
X122572085Y178342999D02*
X122381609Y178485856D01*
X121719819Y178342998D02*
X121957914Y178342998D01*
X121862676Y178581093D02*
X121957914Y178342998D01*
X121957914Y178342998D02*
X121862676Y178104903D01*
X122148390Y178485855D02*
X121957914Y178342998D01*
X121957914Y178342998D02*
X122148390Y178200141D01*
X116466857Y190959580D02*
X116800190Y191435771D01*
X117038285Y190959580D02*
X117038285Y191959580D01*
X117038285Y191959580D02*
X116657333Y191959580D01*
X116657333Y191959580D02*
X116562095Y191911961D01*
X116562095Y191911961D02*
X116514476Y191864342D01*
X116514476Y191864342D02*
X116466857Y191769104D01*
X116466857Y191769104D02*
X116466857Y191626247D01*
X116466857Y191626247D02*
X116514476Y191531009D01*
X116514476Y191531009D02*
X116562095Y191483390D01*
X116562095Y191483390D02*
X116657333Y191435771D01*
X116657333Y191435771D02*
X117038285Y191435771D01*
X115895428Y191531009D02*
X115990666Y191578628D01*
X115990666Y191578628D02*
X116038285Y191626247D01*
X116038285Y191626247D02*
X116085904Y191721485D01*
X116085904Y191721485D02*
X116085904Y191769104D01*
X116085904Y191769104D02*
X116038285Y191864342D01*
X116038285Y191864342D02*
X115990666Y191911961D01*
X115990666Y191911961D02*
X115895428Y191959580D01*
X115895428Y191959580D02*
X115704952Y191959580D01*
X115704952Y191959580D02*
X115609714Y191911961D01*
X115609714Y191911961D02*
X115562095Y191864342D01*
X115562095Y191864342D02*
X115514476Y191769104D01*
X115514476Y191769104D02*
X115514476Y191721485D01*
X115514476Y191721485D02*
X115562095Y191626247D01*
X115562095Y191626247D02*
X115609714Y191578628D01*
X115609714Y191578628D02*
X115704952Y191531009D01*
X115704952Y191531009D02*
X115895428Y191531009D01*
X115895428Y191531009D02*
X115990666Y191483390D01*
X115990666Y191483390D02*
X116038285Y191435771D01*
X116038285Y191435771D02*
X116085904Y191340533D01*
X116085904Y191340533D02*
X116085904Y191150057D01*
X116085904Y191150057D02*
X116038285Y191054819D01*
X116038285Y191054819D02*
X115990666Y191007200D01*
X115990666Y191007200D02*
X115895428Y190959580D01*
X115895428Y190959580D02*
X115704952Y190959580D01*
X115704952Y190959580D02*
X115609714Y191007200D01*
X115609714Y191007200D02*
X115562095Y191054819D01*
X115562095Y191054819D02*
X115514476Y191150057D01*
X115514476Y191150057D02*
X115514476Y191340533D01*
X115514476Y191340533D02*
X115562095Y191435771D01*
X115562095Y191435771D02*
X115609714Y191483390D01*
X115609714Y191483390D02*
X115704952Y191531009D01*
X114943047Y191531009D02*
X115038285Y191578628D01*
X115038285Y191578628D02*
X115085904Y191626247D01*
X115085904Y191626247D02*
X115133523Y191721485D01*
X115133523Y191721485D02*
X115133523Y191769104D01*
X115133523Y191769104D02*
X115085904Y191864342D01*
X115085904Y191864342D02*
X115038285Y191911961D01*
X115038285Y191911961D02*
X114943047Y191959580D01*
X114943047Y191959580D02*
X114752571Y191959580D01*
X114752571Y191959580D02*
X114657333Y191911961D01*
X114657333Y191911961D02*
X114609714Y191864342D01*
X114609714Y191864342D02*
X114562095Y191769104D01*
X114562095Y191769104D02*
X114562095Y191721485D01*
X114562095Y191721485D02*
X114609714Y191626247D01*
X114609714Y191626247D02*
X114657333Y191578628D01*
X114657333Y191578628D02*
X114752571Y191531009D01*
X114752571Y191531009D02*
X114943047Y191531009D01*
X114943047Y191531009D02*
X115038285Y191483390D01*
X115038285Y191483390D02*
X115085904Y191435771D01*
X115085904Y191435771D02*
X115133523Y191340533D01*
X115133523Y191340533D02*
X115133523Y191150057D01*
X115133523Y191150057D02*
X115085904Y191054819D01*
X115085904Y191054819D02*
X115038285Y191007200D01*
X115038285Y191007200D02*
X114943047Y190959580D01*
X114943047Y190959580D02*
X114752571Y190959580D01*
X114752571Y190959580D02*
X114657333Y191007200D01*
X114657333Y191007200D02*
X114609714Y191054819D01*
X114609714Y191054819D02*
X114562095Y191150057D01*
X114562095Y191150057D02*
X114562095Y191340533D01*
X114562095Y191340533D02*
X114609714Y191435771D01*
X114609714Y191435771D02*
X114657333Y191483390D01*
X114657333Y191483390D02*
X114752571Y191531009D01*
X95861047Y107492919D02*
X95908666Y107445300D01*
X95908666Y107445300D02*
X96051523Y107397680D01*
X96051523Y107397680D02*
X96146761Y107397680D01*
X96146761Y107397680D02*
X96289618Y107445300D01*
X96289618Y107445300D02*
X96384856Y107540538D01*
X96384856Y107540538D02*
X96432475Y107635776D01*
X96432475Y107635776D02*
X96480094Y107826252D01*
X96480094Y107826252D02*
X96480094Y107969109D01*
X96480094Y107969109D02*
X96432475Y108159585D01*
X96432475Y108159585D02*
X96384856Y108254823D01*
X96384856Y108254823D02*
X96289618Y108350061D01*
X96289618Y108350061D02*
X96146761Y108397680D01*
X96146761Y108397680D02*
X96051523Y108397680D01*
X96051523Y108397680D02*
X95908666Y108350061D01*
X95908666Y108350061D02*
X95861047Y108302442D01*
X94908666Y107397680D02*
X95480094Y107397680D01*
X95194380Y107397680D02*
X95194380Y108397680D01*
X95194380Y108397680D02*
X95289618Y108254823D01*
X95289618Y108254823D02*
X95384856Y108159585D01*
X95384856Y108159585D02*
X95480094Y108111966D01*
X94289618Y108397680D02*
X94194380Y108397680D01*
X94194380Y108397680D02*
X94099142Y108350061D01*
X94099142Y108350061D02*
X94051523Y108302442D01*
X94051523Y108302442D02*
X94003904Y108207204D01*
X94003904Y108207204D02*
X93956285Y108016728D01*
X93956285Y108016728D02*
X93956285Y107778633D01*
X93956285Y107778633D02*
X94003904Y107588157D01*
X94003904Y107588157D02*
X94051523Y107492919D01*
X94051523Y107492919D02*
X94099142Y107445300D01*
X94099142Y107445300D02*
X94194380Y107397680D01*
X94194380Y107397680D02*
X94289618Y107397680D01*
X94289618Y107397680D02*
X94384856Y107445300D01*
X94384856Y107445300D02*
X94432475Y107492919D01*
X94432475Y107492919D02*
X94480094Y107588157D01*
X94480094Y107588157D02*
X94527713Y107778633D01*
X94527713Y107778633D02*
X94527713Y108016728D01*
X94527713Y108016728D02*
X94480094Y108207204D01*
X94480094Y108207204D02*
X94432475Y108302442D01*
X94432475Y108302442D02*
X94384856Y108350061D01*
X94384856Y108350061D02*
X94289618Y108397680D01*
X93384856Y107969109D02*
X93480094Y108016728D01*
X93480094Y108016728D02*
X93527713Y108064347D01*
X93527713Y108064347D02*
X93575332Y108159585D01*
X93575332Y108159585D02*
X93575332Y108207204D01*
X93575332Y108207204D02*
X93527713Y108302442D01*
X93527713Y108302442D02*
X93480094Y108350061D01*
X93480094Y108350061D02*
X93384856Y108397680D01*
X93384856Y108397680D02*
X93194380Y108397680D01*
X93194380Y108397680D02*
X93099142Y108350061D01*
X93099142Y108350061D02*
X93051523Y108302442D01*
X93051523Y108302442D02*
X93003904Y108207204D01*
X93003904Y108207204D02*
X93003904Y108159585D01*
X93003904Y108159585D02*
X93051523Y108064347D01*
X93051523Y108064347D02*
X93099142Y108016728D01*
X93099142Y108016728D02*
X93194380Y107969109D01*
X93194380Y107969109D02*
X93384856Y107969109D01*
X93384856Y107969109D02*
X93480094Y107921490D01*
X93480094Y107921490D02*
X93527713Y107873871D01*
X93527713Y107873871D02*
X93575332Y107778633D01*
X93575332Y107778633D02*
X93575332Y107588157D01*
X93575332Y107588157D02*
X93527713Y107492919D01*
X93527713Y107492919D02*
X93480094Y107445300D01*
X93480094Y107445300D02*
X93384856Y107397680D01*
X93384856Y107397680D02*
X93194380Y107397680D01*
X93194380Y107397680D02*
X93099142Y107445300D01*
X93099142Y107445300D02*
X93051523Y107492919D01*
X93051523Y107492919D02*
X93003904Y107588157D01*
X93003904Y107588157D02*
X93003904Y107778633D01*
X93003904Y107778633D02*
X93051523Y107873871D01*
X93051523Y107873871D02*
X93099142Y107921490D01*
X93099142Y107921490D02*
X93194380Y107969109D01*
X156678857Y98954419D02*
X156726476Y98906800D01*
X156726476Y98906800D02*
X156869333Y98859180D01*
X156869333Y98859180D02*
X156964571Y98859180D01*
X156964571Y98859180D02*
X157107428Y98906800D01*
X157107428Y98906800D02*
X157202666Y99002038D01*
X157202666Y99002038D02*
X157250285Y99097276D01*
X157250285Y99097276D02*
X157297904Y99287752D01*
X157297904Y99287752D02*
X157297904Y99430609D01*
X157297904Y99430609D02*
X157250285Y99621085D01*
X157250285Y99621085D02*
X157202666Y99716323D01*
X157202666Y99716323D02*
X157107428Y99811561D01*
X157107428Y99811561D02*
X156964571Y99859180D01*
X156964571Y99859180D02*
X156869333Y99859180D01*
X156869333Y99859180D02*
X156726476Y99811561D01*
X156726476Y99811561D02*
X156678857Y99763942D01*
X156107428Y99430609D02*
X156202666Y99478228D01*
X156202666Y99478228D02*
X156250285Y99525847D01*
X156250285Y99525847D02*
X156297904Y99621085D01*
X156297904Y99621085D02*
X156297904Y99668704D01*
X156297904Y99668704D02*
X156250285Y99763942D01*
X156250285Y99763942D02*
X156202666Y99811561D01*
X156202666Y99811561D02*
X156107428Y99859180D01*
X156107428Y99859180D02*
X155916952Y99859180D01*
X155916952Y99859180D02*
X155821714Y99811561D01*
X155821714Y99811561D02*
X155774095Y99763942D01*
X155774095Y99763942D02*
X155726476Y99668704D01*
X155726476Y99668704D02*
X155726476Y99621085D01*
X155726476Y99621085D02*
X155774095Y99525847D01*
X155774095Y99525847D02*
X155821714Y99478228D01*
X155821714Y99478228D02*
X155916952Y99430609D01*
X155916952Y99430609D02*
X156107428Y99430609D01*
X156107428Y99430609D02*
X156202666Y99382990D01*
X156202666Y99382990D02*
X156250285Y99335371D01*
X156250285Y99335371D02*
X156297904Y99240133D01*
X156297904Y99240133D02*
X156297904Y99049657D01*
X156297904Y99049657D02*
X156250285Y98954419D01*
X156250285Y98954419D02*
X156202666Y98906800D01*
X156202666Y98906800D02*
X156107428Y98859180D01*
X156107428Y98859180D02*
X155916952Y98859180D01*
X155916952Y98859180D02*
X155821714Y98906800D01*
X155821714Y98906800D02*
X155774095Y98954419D01*
X155774095Y98954419D02*
X155726476Y99049657D01*
X155726476Y99049657D02*
X155726476Y99240133D01*
X155726476Y99240133D02*
X155774095Y99335371D01*
X155774095Y99335371D02*
X155821714Y99382990D01*
X155821714Y99382990D02*
X155916952Y99430609D01*
X155250285Y98859180D02*
X155059809Y98859180D01*
X155059809Y98859180D02*
X154964571Y98906800D01*
X154964571Y98906800D02*
X154916952Y98954419D01*
X154916952Y98954419D02*
X154821714Y99097276D01*
X154821714Y99097276D02*
X154774095Y99287752D01*
X154774095Y99287752D02*
X154774095Y99668704D01*
X154774095Y99668704D02*
X154821714Y99763942D01*
X154821714Y99763942D02*
X154869333Y99811561D01*
X154869333Y99811561D02*
X154964571Y99859180D01*
X154964571Y99859180D02*
X155155047Y99859180D01*
X155155047Y99859180D02*
X155250285Y99811561D01*
X155250285Y99811561D02*
X155297904Y99763942D01*
X155297904Y99763942D02*
X155345523Y99668704D01*
X155345523Y99668704D02*
X155345523Y99430609D01*
X155345523Y99430609D02*
X155297904Y99335371D01*
X155297904Y99335371D02*
X155250285Y99287752D01*
X155250285Y99287752D02*
X155155047Y99240133D01*
X155155047Y99240133D02*
X154964571Y99240133D01*
X154964571Y99240133D02*
X154869333Y99287752D01*
X154869333Y99287752D02*
X154821714Y99335371D01*
X154821714Y99335371D02*
X154774095Y99430609D01*
X103871047Y110842919D02*
X103918666Y110795300D01*
X103918666Y110795300D02*
X104061523Y110747680D01*
X104061523Y110747680D02*
X104156761Y110747680D01*
X104156761Y110747680D02*
X104299618Y110795300D01*
X104299618Y110795300D02*
X104394856Y110890538D01*
X104394856Y110890538D02*
X104442475Y110985776D01*
X104442475Y110985776D02*
X104490094Y111176252D01*
X104490094Y111176252D02*
X104490094Y111319109D01*
X104490094Y111319109D02*
X104442475Y111509585D01*
X104442475Y111509585D02*
X104394856Y111604823D01*
X104394856Y111604823D02*
X104299618Y111700061D01*
X104299618Y111700061D02*
X104156761Y111747680D01*
X104156761Y111747680D02*
X104061523Y111747680D01*
X104061523Y111747680D02*
X103918666Y111700061D01*
X103918666Y111700061D02*
X103871047Y111652442D01*
X102918666Y110747680D02*
X103490094Y110747680D01*
X103204380Y110747680D02*
X103204380Y111747680D01*
X103204380Y111747680D02*
X103299618Y111604823D01*
X103299618Y111604823D02*
X103394856Y111509585D01*
X103394856Y111509585D02*
X103490094Y111461966D01*
X102299618Y111747680D02*
X102204380Y111747680D01*
X102204380Y111747680D02*
X102109142Y111700061D01*
X102109142Y111700061D02*
X102061523Y111652442D01*
X102061523Y111652442D02*
X102013904Y111557204D01*
X102013904Y111557204D02*
X101966285Y111366728D01*
X101966285Y111366728D02*
X101966285Y111128633D01*
X101966285Y111128633D02*
X102013904Y110938157D01*
X102013904Y110938157D02*
X102061523Y110842919D01*
X102061523Y110842919D02*
X102109142Y110795300D01*
X102109142Y110795300D02*
X102204380Y110747680D01*
X102204380Y110747680D02*
X102299618Y110747680D01*
X102299618Y110747680D02*
X102394856Y110795300D01*
X102394856Y110795300D02*
X102442475Y110842919D01*
X102442475Y110842919D02*
X102490094Y110938157D01*
X102490094Y110938157D02*
X102537713Y111128633D01*
X102537713Y111128633D02*
X102537713Y111366728D01*
X102537713Y111366728D02*
X102490094Y111557204D01*
X102490094Y111557204D02*
X102442475Y111652442D01*
X102442475Y111652442D02*
X102394856Y111700061D01*
X102394856Y111700061D02*
X102299618Y111747680D01*
X101490094Y110747680D02*
X101299618Y110747680D01*
X101299618Y110747680D02*
X101204380Y110795300D01*
X101204380Y110795300D02*
X101156761Y110842919D01*
X101156761Y110842919D02*
X101061523Y110985776D01*
X101061523Y110985776D02*
X101013904Y111176252D01*
X101013904Y111176252D02*
X101013904Y111557204D01*
X101013904Y111557204D02*
X101061523Y111652442D01*
X101061523Y111652442D02*
X101109142Y111700061D01*
X101109142Y111700061D02*
X101204380Y111747680D01*
X101204380Y111747680D02*
X101394856Y111747680D01*
X101394856Y111747680D02*
X101490094Y111700061D01*
X101490094Y111700061D02*
X101537713Y111652442D01*
X101537713Y111652442D02*
X101585332Y111557204D01*
X101585332Y111557204D02*
X101585332Y111319109D01*
X101585332Y111319109D02*
X101537713Y111223871D01*
X101537713Y111223871D02*
X101490094Y111176252D01*
X101490094Y111176252D02*
X101394856Y111128633D01*
X101394856Y111128633D02*
X101204380Y111128633D01*
X101204380Y111128633D02*
X101109142Y111176252D01*
X101109142Y111176252D02*
X101061523Y111223871D01*
X101061523Y111223871D02*
X101013904Y111319109D01*
X164800857Y98700419D02*
X164848476Y98652800D01*
X164848476Y98652800D02*
X164991333Y98605180D01*
X164991333Y98605180D02*
X165086571Y98605180D01*
X165086571Y98605180D02*
X165229428Y98652800D01*
X165229428Y98652800D02*
X165324666Y98748038D01*
X165324666Y98748038D02*
X165372285Y98843276D01*
X165372285Y98843276D02*
X165419904Y99033752D01*
X165419904Y99033752D02*
X165419904Y99176609D01*
X165419904Y99176609D02*
X165372285Y99367085D01*
X165372285Y99367085D02*
X165324666Y99462323D01*
X165324666Y99462323D02*
X165229428Y99557561D01*
X165229428Y99557561D02*
X165086571Y99605180D01*
X165086571Y99605180D02*
X164991333Y99605180D01*
X164991333Y99605180D02*
X164848476Y99557561D01*
X164848476Y99557561D02*
X164800857Y99509942D01*
X164229428Y99176609D02*
X164324666Y99224228D01*
X164324666Y99224228D02*
X164372285Y99271847D01*
X164372285Y99271847D02*
X164419904Y99367085D01*
X164419904Y99367085D02*
X164419904Y99414704D01*
X164419904Y99414704D02*
X164372285Y99509942D01*
X164372285Y99509942D02*
X164324666Y99557561D01*
X164324666Y99557561D02*
X164229428Y99605180D01*
X164229428Y99605180D02*
X164038952Y99605180D01*
X164038952Y99605180D02*
X163943714Y99557561D01*
X163943714Y99557561D02*
X163896095Y99509942D01*
X163896095Y99509942D02*
X163848476Y99414704D01*
X163848476Y99414704D02*
X163848476Y99367085D01*
X163848476Y99367085D02*
X163896095Y99271847D01*
X163896095Y99271847D02*
X163943714Y99224228D01*
X163943714Y99224228D02*
X164038952Y99176609D01*
X164038952Y99176609D02*
X164229428Y99176609D01*
X164229428Y99176609D02*
X164324666Y99128990D01*
X164324666Y99128990D02*
X164372285Y99081371D01*
X164372285Y99081371D02*
X164419904Y98986133D01*
X164419904Y98986133D02*
X164419904Y98795657D01*
X164419904Y98795657D02*
X164372285Y98700419D01*
X164372285Y98700419D02*
X164324666Y98652800D01*
X164324666Y98652800D02*
X164229428Y98605180D01*
X164229428Y98605180D02*
X164038952Y98605180D01*
X164038952Y98605180D02*
X163943714Y98652800D01*
X163943714Y98652800D02*
X163896095Y98700419D01*
X163896095Y98700419D02*
X163848476Y98795657D01*
X163848476Y98795657D02*
X163848476Y98986133D01*
X163848476Y98986133D02*
X163896095Y99081371D01*
X163896095Y99081371D02*
X163943714Y99128990D01*
X163943714Y99128990D02*
X164038952Y99176609D01*
X163515142Y99605180D02*
X162848476Y99605180D01*
X162848476Y99605180D02*
X163277047Y98605180D01*
X140930857Y97430419D02*
X140978476Y97382800D01*
X140978476Y97382800D02*
X141121333Y97335180D01*
X141121333Y97335180D02*
X141216571Y97335180D01*
X141216571Y97335180D02*
X141359428Y97382800D01*
X141359428Y97382800D02*
X141454666Y97478038D01*
X141454666Y97478038D02*
X141502285Y97573276D01*
X141502285Y97573276D02*
X141549904Y97763752D01*
X141549904Y97763752D02*
X141549904Y97906609D01*
X141549904Y97906609D02*
X141502285Y98097085D01*
X141502285Y98097085D02*
X141454666Y98192323D01*
X141454666Y98192323D02*
X141359428Y98287561D01*
X141359428Y98287561D02*
X141216571Y98335180D01*
X141216571Y98335180D02*
X141121333Y98335180D01*
X141121333Y98335180D02*
X140978476Y98287561D01*
X140978476Y98287561D02*
X140930857Y98239942D01*
X140454666Y97335180D02*
X140264190Y97335180D01*
X140264190Y97335180D02*
X140168952Y97382800D01*
X140168952Y97382800D02*
X140121333Y97430419D01*
X140121333Y97430419D02*
X140026095Y97573276D01*
X140026095Y97573276D02*
X139978476Y97763752D01*
X139978476Y97763752D02*
X139978476Y98144704D01*
X139978476Y98144704D02*
X140026095Y98239942D01*
X140026095Y98239942D02*
X140073714Y98287561D01*
X140073714Y98287561D02*
X140168952Y98335180D01*
X140168952Y98335180D02*
X140359428Y98335180D01*
X140359428Y98335180D02*
X140454666Y98287561D01*
X140454666Y98287561D02*
X140502285Y98239942D01*
X140502285Y98239942D02*
X140549904Y98144704D01*
X140549904Y98144704D02*
X140549904Y97906609D01*
X140549904Y97906609D02*
X140502285Y97811371D01*
X140502285Y97811371D02*
X140454666Y97763752D01*
X140454666Y97763752D02*
X140359428Y97716133D01*
X140359428Y97716133D02*
X140168952Y97716133D01*
X140168952Y97716133D02*
X140073714Y97763752D01*
X140073714Y97763752D02*
X140026095Y97811371D01*
X140026095Y97811371D02*
X139978476Y97906609D01*
X139407047Y97906609D02*
X139502285Y97954228D01*
X139502285Y97954228D02*
X139549904Y98001847D01*
X139549904Y98001847D02*
X139597523Y98097085D01*
X139597523Y98097085D02*
X139597523Y98144704D01*
X139597523Y98144704D02*
X139549904Y98239942D01*
X139549904Y98239942D02*
X139502285Y98287561D01*
X139502285Y98287561D02*
X139407047Y98335180D01*
X139407047Y98335180D02*
X139216571Y98335180D01*
X139216571Y98335180D02*
X139121333Y98287561D01*
X139121333Y98287561D02*
X139073714Y98239942D01*
X139073714Y98239942D02*
X139026095Y98144704D01*
X139026095Y98144704D02*
X139026095Y98097085D01*
X139026095Y98097085D02*
X139073714Y98001847D01*
X139073714Y98001847D02*
X139121333Y97954228D01*
X139121333Y97954228D02*
X139216571Y97906609D01*
X139216571Y97906609D02*
X139407047Y97906609D01*
X139407047Y97906609D02*
X139502285Y97858990D01*
X139502285Y97858990D02*
X139549904Y97811371D01*
X139549904Y97811371D02*
X139597523Y97716133D01*
X139597523Y97716133D02*
X139597523Y97525657D01*
X139597523Y97525657D02*
X139549904Y97430419D01*
X139549904Y97430419D02*
X139502285Y97382800D01*
X139502285Y97382800D02*
X139407047Y97335180D01*
X139407047Y97335180D02*
X139216571Y97335180D01*
X139216571Y97335180D02*
X139121333Y97382800D01*
X139121333Y97382800D02*
X139073714Y97430419D01*
X139073714Y97430419D02*
X139026095Y97525657D01*
X139026095Y97525657D02*
X139026095Y97716133D01*
X139026095Y97716133D02*
X139073714Y97811371D01*
X139073714Y97811371D02*
X139121333Y97858990D01*
X139121333Y97858990D02*
X139216571Y97906609D01*
X200372589Y140739212D02*
X200372589Y140671868D01*
X200372589Y140671868D02*
X200439933Y140537181D01*
X200439933Y140537181D02*
X200507276Y140469838D01*
X200507276Y140469838D02*
X200641963Y140402494D01*
X200641963Y140402494D02*
X200776650Y140402494D01*
X200776650Y140402494D02*
X200877665Y140436166D01*
X200877665Y140436166D02*
X201046024Y140537181D01*
X201046024Y140537181D02*
X201147039Y140638196D01*
X201147039Y140638196D02*
X201248055Y140806555D01*
X201248055Y140806555D02*
X201281726Y140907570D01*
X201281726Y140907570D02*
X201281726Y141042257D01*
X201281726Y141042257D02*
X201214383Y141176944D01*
X201214383Y141176944D02*
X201147039Y141244288D01*
X201147039Y141244288D02*
X201012352Y141311631D01*
X201012352Y141311631D02*
X200945009Y141311631D01*
X200776650Y141614677D02*
X200305246Y142086082D01*
X200305246Y142086082D02*
X199901185Y141075929D01*
X199901184Y142490143D02*
X199833841Y142557486D01*
X199833841Y142557486D02*
X199732826Y142591158D01*
X199732826Y142591158D02*
X199665482Y142591158D01*
X199665482Y142591158D02*
X199564467Y142557486D01*
X199564467Y142557486D02*
X199396108Y142456471D01*
X199396108Y142456471D02*
X199227749Y142288112D01*
X199227749Y142288112D02*
X199126734Y142119754D01*
X199126734Y142119754D02*
X199093062Y142018738D01*
X199093062Y142018738D02*
X199093062Y141951395D01*
X199093062Y141951395D02*
X199126734Y141850380D01*
X199126734Y141850380D02*
X199194078Y141783036D01*
X199194078Y141783036D02*
X199295093Y141749364D01*
X199295093Y141749364D02*
X199362436Y141749364D01*
X199362436Y141749364D02*
X199463452Y141783036D01*
X199463452Y141783036D02*
X199631810Y141884051D01*
X199631810Y141884051D02*
X199800169Y142052410D01*
X199800169Y142052410D02*
X199901184Y142220769D01*
X199901184Y142220769D02*
X199934856Y142321784D01*
X199934856Y142321784D02*
X199934856Y142389128D01*
X199934856Y142389128D02*
X199901184Y142490143D01*
X111609047Y110794919D02*
X111656666Y110747300D01*
X111656666Y110747300D02*
X111799523Y110699680D01*
X111799523Y110699680D02*
X111894761Y110699680D01*
X111894761Y110699680D02*
X112037618Y110747300D01*
X112037618Y110747300D02*
X112132856Y110842538D01*
X112132856Y110842538D02*
X112180475Y110937776D01*
X112180475Y110937776D02*
X112228094Y111128252D01*
X112228094Y111128252D02*
X112228094Y111271109D01*
X112228094Y111271109D02*
X112180475Y111461585D01*
X112180475Y111461585D02*
X112132856Y111556823D01*
X112132856Y111556823D02*
X112037618Y111652061D01*
X112037618Y111652061D02*
X111894761Y111699680D01*
X111894761Y111699680D02*
X111799523Y111699680D01*
X111799523Y111699680D02*
X111656666Y111652061D01*
X111656666Y111652061D02*
X111609047Y111604442D01*
X110656666Y110699680D02*
X111228094Y110699680D01*
X110942380Y110699680D02*
X110942380Y111699680D01*
X110942380Y111699680D02*
X111037618Y111556823D01*
X111037618Y111556823D02*
X111132856Y111461585D01*
X111132856Y111461585D02*
X111228094Y111413966D01*
X109704285Y110699680D02*
X110275713Y110699680D01*
X109989999Y110699680D02*
X109989999Y111699680D01*
X109989999Y111699680D02*
X110085237Y111556823D01*
X110085237Y111556823D02*
X110180475Y111461585D01*
X110180475Y111461585D02*
X110275713Y111413966D01*
X109085237Y111699680D02*
X108989999Y111699680D01*
X108989999Y111699680D02*
X108894761Y111652061D01*
X108894761Y111652061D02*
X108847142Y111604442D01*
X108847142Y111604442D02*
X108799523Y111509204D01*
X108799523Y111509204D02*
X108751904Y111318728D01*
X108751904Y111318728D02*
X108751904Y111080633D01*
X108751904Y111080633D02*
X108799523Y110890157D01*
X108799523Y110890157D02*
X108847142Y110794919D01*
X108847142Y110794919D02*
X108894761Y110747300D01*
X108894761Y110747300D02*
X108989999Y110699680D01*
X108989999Y110699680D02*
X109085237Y110699680D01*
X109085237Y110699680D02*
X109180475Y110747300D01*
X109180475Y110747300D02*
X109228094Y110794919D01*
X109228094Y110794919D02*
X109275713Y110890157D01*
X109275713Y110890157D02*
X109323332Y111080633D01*
X109323332Y111080633D02*
X109323332Y111318728D01*
X109323332Y111318728D02*
X109275713Y111509204D01*
X109275713Y111509204D02*
X109228094Y111604442D01*
X109228094Y111604442D02*
X109180475Y111652061D01*
X109180475Y111652061D02*
X109085237Y111699680D01*
X141407047Y98954419D02*
X141454666Y98906800D01*
X141454666Y98906800D02*
X141597523Y98859180D01*
X141597523Y98859180D02*
X141692761Y98859180D01*
X141692761Y98859180D02*
X141835618Y98906800D01*
X141835618Y98906800D02*
X141930856Y99002038D01*
X141930856Y99002038D02*
X141978475Y99097276D01*
X141978475Y99097276D02*
X142026094Y99287752D01*
X142026094Y99287752D02*
X142026094Y99430609D01*
X142026094Y99430609D02*
X141978475Y99621085D01*
X141978475Y99621085D02*
X141930856Y99716323D01*
X141930856Y99716323D02*
X141835618Y99811561D01*
X141835618Y99811561D02*
X141692761Y99859180D01*
X141692761Y99859180D02*
X141597523Y99859180D01*
X141597523Y99859180D02*
X141454666Y99811561D01*
X141454666Y99811561D02*
X141407047Y99763942D01*
X140454666Y98859180D02*
X141026094Y98859180D01*
X140740380Y98859180D02*
X140740380Y99859180D01*
X140740380Y99859180D02*
X140835618Y99716323D01*
X140835618Y99716323D02*
X140930856Y99621085D01*
X140930856Y99621085D02*
X141026094Y99573466D01*
X139835618Y99859180D02*
X139740380Y99859180D01*
X139740380Y99859180D02*
X139645142Y99811561D01*
X139645142Y99811561D02*
X139597523Y99763942D01*
X139597523Y99763942D02*
X139549904Y99668704D01*
X139549904Y99668704D02*
X139502285Y99478228D01*
X139502285Y99478228D02*
X139502285Y99240133D01*
X139502285Y99240133D02*
X139549904Y99049657D01*
X139549904Y99049657D02*
X139597523Y98954419D01*
X139597523Y98954419D02*
X139645142Y98906800D01*
X139645142Y98906800D02*
X139740380Y98859180D01*
X139740380Y98859180D02*
X139835618Y98859180D01*
X139835618Y98859180D02*
X139930856Y98906800D01*
X139930856Y98906800D02*
X139978475Y98954419D01*
X139978475Y98954419D02*
X140026094Y99049657D01*
X140026094Y99049657D02*
X140073713Y99240133D01*
X140073713Y99240133D02*
X140073713Y99478228D01*
X140073713Y99478228D02*
X140026094Y99668704D01*
X140026094Y99668704D02*
X139978475Y99763942D01*
X139978475Y99763942D02*
X139930856Y99811561D01*
X139930856Y99811561D02*
X139835618Y99859180D01*
X138549904Y98859180D02*
X139121332Y98859180D01*
X138835618Y98859180D02*
X138835618Y99859180D01*
X138835618Y99859180D02*
X138930856Y99716323D01*
X138930856Y99716323D02*
X139026094Y99621085D01*
X139026094Y99621085D02*
X139121332Y99573466D01*
X126078113Y176841263D02*
X126145457Y176841263D01*
X126145457Y176841263D02*
X126280144Y176908607D01*
X126280144Y176908607D02*
X126347487Y176975950D01*
X126347487Y176975950D02*
X126414831Y177110637D01*
X126414831Y177110637D02*
X126414831Y177245324D01*
X126414831Y177245324D02*
X126381159Y177346339D01*
X126381159Y177346339D02*
X126280144Y177514698D01*
X126280144Y177514698D02*
X126179129Y177615713D01*
X126179129Y177615713D02*
X126010770Y177716729D01*
X126010770Y177716729D02*
X125909755Y177750400D01*
X125909755Y177750400D02*
X125775068Y177750400D01*
X125775068Y177750400D02*
X125640381Y177683057D01*
X125640381Y177683057D02*
X125573037Y177615713D01*
X125573037Y177615713D02*
X125505694Y177481026D01*
X125505694Y177481026D02*
X125505694Y177413683D01*
X124832259Y176874935D02*
X124966946Y177009622D01*
X124966946Y177009622D02*
X125067961Y177043294D01*
X125067961Y177043294D02*
X125135304Y177043294D01*
X125135304Y177043294D02*
X125303663Y177009622D01*
X125303663Y177009622D02*
X125472022Y176908607D01*
X125472022Y176908607D02*
X125741396Y176639233D01*
X125741396Y176639233D02*
X125775068Y176538217D01*
X125775068Y176538217D02*
X125775068Y176470874D01*
X125775068Y176470874D02*
X125741396Y176369859D01*
X125741396Y176369859D02*
X125606709Y176235172D01*
X125606709Y176235172D02*
X125505694Y176201500D01*
X125505694Y176201500D02*
X125438350Y176201500D01*
X125438350Y176201500D02*
X125337335Y176235172D01*
X125337335Y176235172D02*
X125168976Y176403530D01*
X125168976Y176403530D02*
X125135304Y176504546D01*
X125135304Y176504546D02*
X125135304Y176571889D01*
X125135304Y176571889D02*
X125168976Y176672904D01*
X125168976Y176672904D02*
X125303663Y176807591D01*
X125303663Y176807591D02*
X125404678Y176841263D01*
X125404678Y176841263D02*
X125472022Y176841263D01*
X125472022Y176841263D02*
X125573037Y176807591D01*
X124798587Y175427049D02*
X125202648Y175831110D01*
X125000617Y175629080D02*
X124293510Y176336187D01*
X124293510Y176336187D02*
X124461869Y176302515D01*
X124461869Y176302515D02*
X124596556Y176302515D01*
X124596556Y176302515D02*
X124697571Y176336187D01*
X220947113Y135993263D02*
X221014457Y135993263D01*
X221014457Y135993263D02*
X221149144Y136060607D01*
X221149144Y136060607D02*
X221216487Y136127950D01*
X221216487Y136127950D02*
X221283831Y136262637D01*
X221283831Y136262637D02*
X221283831Y136397324D01*
X221283831Y136397324D02*
X221250159Y136498339D01*
X221250159Y136498339D02*
X221149144Y136666698D01*
X221149144Y136666698D02*
X221048129Y136767713D01*
X221048129Y136767713D02*
X220879770Y136868729D01*
X220879770Y136868729D02*
X220778755Y136902400D01*
X220778755Y136902400D02*
X220644068Y136902400D01*
X220644068Y136902400D02*
X220509381Y136835057D01*
X220509381Y136835057D02*
X220442037Y136767713D01*
X220442037Y136767713D02*
X220374694Y136633026D01*
X220374694Y136633026D02*
X220374694Y136565683D01*
X220071648Y136397324D02*
X219600243Y135925920D01*
X219600243Y135925920D02*
X220610396Y135521859D01*
X218994152Y135319828D02*
X219330869Y135656546D01*
X219330869Y135656546D02*
X219701258Y135353500D01*
X219701258Y135353500D02*
X219633915Y135353500D01*
X219633915Y135353500D02*
X219532900Y135319828D01*
X219532900Y135319828D02*
X219364541Y135151469D01*
X219364541Y135151469D02*
X219330869Y135050454D01*
X219330869Y135050454D02*
X219330869Y134983110D01*
X219330869Y134983110D02*
X219364541Y134882095D01*
X219364541Y134882095D02*
X219532900Y134713736D01*
X219532900Y134713736D02*
X219633915Y134680065D01*
X219633915Y134680065D02*
X219701258Y134680065D01*
X219701258Y134680065D02*
X219802274Y134713736D01*
X219802274Y134713736D02*
X219970632Y134882095D01*
X219970632Y134882095D02*
X220004304Y134983110D01*
X220004304Y134983110D02*
X220004304Y135050454D01*
X190787257Y125065619D02*
X190834876Y125018000D01*
X190834876Y125018000D02*
X190977733Y124970380D01*
X190977733Y124970380D02*
X191072971Y124970380D01*
X191072971Y124970380D02*
X191215828Y125018000D01*
X191215828Y125018000D02*
X191311066Y125113238D01*
X191311066Y125113238D02*
X191358685Y125208476D01*
X191358685Y125208476D02*
X191406304Y125398952D01*
X191406304Y125398952D02*
X191406304Y125541809D01*
X191406304Y125541809D02*
X191358685Y125732285D01*
X191358685Y125732285D02*
X191311066Y125827523D01*
X191311066Y125827523D02*
X191215828Y125922761D01*
X191215828Y125922761D02*
X191072971Y125970380D01*
X191072971Y125970380D02*
X190977733Y125970380D01*
X190977733Y125970380D02*
X190834876Y125922761D01*
X190834876Y125922761D02*
X190787257Y125875142D01*
X190215828Y125541809D02*
X190311066Y125589428D01*
X190311066Y125589428D02*
X190358685Y125637047D01*
X190358685Y125637047D02*
X190406304Y125732285D01*
X190406304Y125732285D02*
X190406304Y125779904D01*
X190406304Y125779904D02*
X190358685Y125875142D01*
X190358685Y125875142D02*
X190311066Y125922761D01*
X190311066Y125922761D02*
X190215828Y125970380D01*
X190215828Y125970380D02*
X190025352Y125970380D01*
X190025352Y125970380D02*
X189930114Y125922761D01*
X189930114Y125922761D02*
X189882495Y125875142D01*
X189882495Y125875142D02*
X189834876Y125779904D01*
X189834876Y125779904D02*
X189834876Y125732285D01*
X189834876Y125732285D02*
X189882495Y125637047D01*
X189882495Y125637047D02*
X189930114Y125589428D01*
X189930114Y125589428D02*
X190025352Y125541809D01*
X190025352Y125541809D02*
X190215828Y125541809D01*
X190215828Y125541809D02*
X190311066Y125494190D01*
X190311066Y125494190D02*
X190358685Y125446571D01*
X190358685Y125446571D02*
X190406304Y125351333D01*
X190406304Y125351333D02*
X190406304Y125160857D01*
X190406304Y125160857D02*
X190358685Y125065619D01*
X190358685Y125065619D02*
X190311066Y125018000D01*
X190311066Y125018000D02*
X190215828Y124970380D01*
X190215828Y124970380D02*
X190025352Y124970380D01*
X190025352Y124970380D02*
X189930114Y125018000D01*
X189930114Y125018000D02*
X189882495Y125065619D01*
X189882495Y125065619D02*
X189834876Y125160857D01*
X189834876Y125160857D02*
X189834876Y125351333D01*
X189834876Y125351333D02*
X189882495Y125446571D01*
X189882495Y125446571D02*
X189930114Y125494190D01*
X189930114Y125494190D02*
X190025352Y125541809D01*
X189501542Y125970380D02*
X188882495Y125970380D01*
X188882495Y125970380D02*
X189215828Y125589428D01*
X189215828Y125589428D02*
X189072971Y125589428D01*
X189072971Y125589428D02*
X188977733Y125541809D01*
X188977733Y125541809D02*
X188930114Y125494190D01*
X188930114Y125494190D02*
X188882495Y125398952D01*
X188882495Y125398952D02*
X188882495Y125160857D01*
X188882495Y125160857D02*
X188930114Y125065619D01*
X188930114Y125065619D02*
X188977733Y125018000D01*
X188977733Y125018000D02*
X189072971Y124970380D01*
X189072971Y124970380D02*
X189358685Y124970380D01*
X189358685Y124970380D02*
X189453923Y125018000D01*
X189453923Y125018000D02*
X189501542Y125065619D01*
X186490780Y115400597D02*
X186538400Y115448216D01*
X186538400Y115448216D02*
X186586019Y115591073D01*
X186586019Y115591073D02*
X186586019Y115686311D01*
X186586019Y115686311D02*
X186538400Y115829168D01*
X186538400Y115829168D02*
X186443161Y115924406D01*
X186443161Y115924406D02*
X186347923Y115972025D01*
X186347923Y115972025D02*
X186157447Y116019644D01*
X186157447Y116019644D02*
X186014590Y116019644D01*
X186014590Y116019644D02*
X185824114Y115972025D01*
X185824114Y115972025D02*
X185728876Y115924406D01*
X185728876Y115924406D02*
X185633638Y115829168D01*
X185633638Y115829168D02*
X185586019Y115686311D01*
X185586019Y115686311D02*
X185586019Y115591073D01*
X185586019Y115591073D02*
X185633638Y115448216D01*
X185633638Y115448216D02*
X185681257Y115400597D01*
X186014590Y114829168D02*
X185966971Y114924406D01*
X185966971Y114924406D02*
X185919352Y114972025D01*
X185919352Y114972025D02*
X185824114Y115019644D01*
X185824114Y115019644D02*
X185776495Y115019644D01*
X185776495Y115019644D02*
X185681257Y114972025D01*
X185681257Y114972025D02*
X185633638Y114924406D01*
X185633638Y114924406D02*
X185586019Y114829168D01*
X185586019Y114829168D02*
X185586019Y114638692D01*
X185586019Y114638692D02*
X185633638Y114543454D01*
X185633638Y114543454D02*
X185681257Y114495835D01*
X185681257Y114495835D02*
X185776495Y114448216D01*
X185776495Y114448216D02*
X185824114Y114448216D01*
X185824114Y114448216D02*
X185919352Y114495835D01*
X185919352Y114495835D02*
X185966971Y114543454D01*
X185966971Y114543454D02*
X186014590Y114638692D01*
X186014590Y114638692D02*
X186014590Y114829168D01*
X186014590Y114829168D02*
X186062209Y114924406D01*
X186062209Y114924406D02*
X186109828Y114972025D01*
X186109828Y114972025D02*
X186205066Y115019644D01*
X186205066Y115019644D02*
X186395542Y115019644D01*
X186395542Y115019644D02*
X186490780Y114972025D01*
X186490780Y114972025D02*
X186538400Y114924406D01*
X186538400Y114924406D02*
X186586019Y114829168D01*
X186586019Y114829168D02*
X186586019Y114638692D01*
X186586019Y114638692D02*
X186538400Y114543454D01*
X186538400Y114543454D02*
X186490780Y114495835D01*
X186490780Y114495835D02*
X186395542Y114448216D01*
X186395542Y114448216D02*
X186205066Y114448216D01*
X186205066Y114448216D02*
X186109828Y114495835D01*
X186109828Y114495835D02*
X186062209Y114543454D01*
X186062209Y114543454D02*
X186014590Y114638692D01*
X185919352Y113591073D02*
X186586019Y113591073D01*
X185538400Y113829168D02*
X186252685Y114067263D01*
X186252685Y114067263D02*
X186252685Y113448216D01*
X104071657Y181250419D02*
X104119276Y181202800D01*
X104119276Y181202800D02*
X104262133Y181155180D01*
X104262133Y181155180D02*
X104357371Y181155180D01*
X104357371Y181155180D02*
X104500228Y181202800D01*
X104500228Y181202800D02*
X104595466Y181298038D01*
X104595466Y181298038D02*
X104643085Y181393276D01*
X104643085Y181393276D02*
X104690704Y181583752D01*
X104690704Y181583752D02*
X104690704Y181726609D01*
X104690704Y181726609D02*
X104643085Y181917085D01*
X104643085Y181917085D02*
X104595466Y182012323D01*
X104595466Y182012323D02*
X104500228Y182107561D01*
X104500228Y182107561D02*
X104357371Y182155180D01*
X104357371Y182155180D02*
X104262133Y182155180D01*
X104262133Y182155180D02*
X104119276Y182107561D01*
X104119276Y182107561D02*
X104071657Y182059942D01*
X103214514Y182155180D02*
X103404990Y182155180D01*
X103404990Y182155180D02*
X103500228Y182107561D01*
X103500228Y182107561D02*
X103547847Y182059942D01*
X103547847Y182059942D02*
X103643085Y181917085D01*
X103643085Y181917085D02*
X103690704Y181726609D01*
X103690704Y181726609D02*
X103690704Y181345657D01*
X103690704Y181345657D02*
X103643085Y181250419D01*
X103643085Y181250419D02*
X103595466Y181202800D01*
X103595466Y181202800D02*
X103500228Y181155180D01*
X103500228Y181155180D02*
X103309752Y181155180D01*
X103309752Y181155180D02*
X103214514Y181202800D01*
X103214514Y181202800D02*
X103166895Y181250419D01*
X103166895Y181250419D02*
X103119276Y181345657D01*
X103119276Y181345657D02*
X103119276Y181583752D01*
X103119276Y181583752D02*
X103166895Y181678990D01*
X103166895Y181678990D02*
X103214514Y181726609D01*
X103214514Y181726609D02*
X103309752Y181774228D01*
X103309752Y181774228D02*
X103500228Y181774228D01*
X103500228Y181774228D02*
X103595466Y181726609D01*
X103595466Y181726609D02*
X103643085Y181678990D01*
X103643085Y181678990D02*
X103690704Y181583752D01*
X102785942Y182155180D02*
X102166895Y182155180D01*
X102166895Y182155180D02*
X102500228Y181774228D01*
X102500228Y181774228D02*
X102357371Y181774228D01*
X102357371Y181774228D02*
X102262133Y181726609D01*
X102262133Y181726609D02*
X102214514Y181678990D01*
X102214514Y181678990D02*
X102166895Y181583752D01*
X102166895Y181583752D02*
X102166895Y181345657D01*
X102166895Y181345657D02*
X102214514Y181250419D01*
X102214514Y181250419D02*
X102262133Y181202800D01*
X102262133Y181202800D02*
X102357371Y181155180D01*
X102357371Y181155180D02*
X102643085Y181155180D01*
X102643085Y181155180D02*
X102738323Y181202800D01*
X102738323Y181202800D02*
X102785942Y181250419D01*
X107068857Y179885180D02*
X107402190Y180361371D01*
X107640285Y179885180D02*
X107640285Y180885180D01*
X107640285Y180885180D02*
X107259333Y180885180D01*
X107259333Y180885180D02*
X107164095Y180837561D01*
X107164095Y180837561D02*
X107116476Y180789942D01*
X107116476Y180789942D02*
X107068857Y180694704D01*
X107068857Y180694704D02*
X107068857Y180551847D01*
X107068857Y180551847D02*
X107116476Y180456609D01*
X107116476Y180456609D02*
X107164095Y180408990D01*
X107164095Y180408990D02*
X107259333Y180361371D01*
X107259333Y180361371D02*
X107640285Y180361371D01*
X106592666Y179885180D02*
X106402190Y179885180D01*
X106402190Y179885180D02*
X106306952Y179932800D01*
X106306952Y179932800D02*
X106259333Y179980419D01*
X106259333Y179980419D02*
X106164095Y180123276D01*
X106164095Y180123276D02*
X106116476Y180313752D01*
X106116476Y180313752D02*
X106116476Y180694704D01*
X106116476Y180694704D02*
X106164095Y180789942D01*
X106164095Y180789942D02*
X106211714Y180837561D01*
X106211714Y180837561D02*
X106306952Y180885180D01*
X106306952Y180885180D02*
X106497428Y180885180D01*
X106497428Y180885180D02*
X106592666Y180837561D01*
X106592666Y180837561D02*
X106640285Y180789942D01*
X106640285Y180789942D02*
X106687904Y180694704D01*
X106687904Y180694704D02*
X106687904Y180456609D01*
X106687904Y180456609D02*
X106640285Y180361371D01*
X106640285Y180361371D02*
X106592666Y180313752D01*
X106592666Y180313752D02*
X106497428Y180266133D01*
X106497428Y180266133D02*
X106306952Y180266133D01*
X106306952Y180266133D02*
X106211714Y180313752D01*
X106211714Y180313752D02*
X106164095Y180361371D01*
X106164095Y180361371D02*
X106116476Y180456609D01*
X105164095Y179885180D02*
X105735523Y179885180D01*
X105449809Y179885180D02*
X105449809Y180885180D01*
X105449809Y180885180D02*
X105545047Y180742323D01*
X105545047Y180742323D02*
X105640285Y180647085D01*
X105640285Y180647085D02*
X105735523Y180599466D01*
X208719657Y148128819D02*
X208767276Y148081200D01*
X208767276Y148081200D02*
X208910133Y148033580D01*
X208910133Y148033580D02*
X209005371Y148033580D01*
X209005371Y148033580D02*
X209148228Y148081200D01*
X209148228Y148081200D02*
X209243466Y148176438D01*
X209243466Y148176438D02*
X209291085Y148271676D01*
X209291085Y148271676D02*
X209338704Y148462152D01*
X209338704Y148462152D02*
X209338704Y148605009D01*
X209338704Y148605009D02*
X209291085Y148795485D01*
X209291085Y148795485D02*
X209243466Y148890723D01*
X209243466Y148890723D02*
X209148228Y148985961D01*
X209148228Y148985961D02*
X209005371Y149033580D01*
X209005371Y149033580D02*
X208910133Y149033580D01*
X208910133Y149033580D02*
X208767276Y148985961D01*
X208767276Y148985961D02*
X208719657Y148938342D01*
X208386323Y149033580D02*
X207719657Y149033580D01*
X207719657Y149033580D02*
X208148228Y148033580D01*
X207386323Y148938342D02*
X207338704Y148985961D01*
X207338704Y148985961D02*
X207243466Y149033580D01*
X207243466Y149033580D02*
X207005371Y149033580D01*
X207005371Y149033580D02*
X206910133Y148985961D01*
X206910133Y148985961D02*
X206862514Y148938342D01*
X206862514Y148938342D02*
X206814895Y148843104D01*
X206814895Y148843104D02*
X206814895Y148747866D01*
X206814895Y148747866D02*
X206862514Y148605009D01*
X206862514Y148605009D02*
X207433942Y148033580D01*
X207433942Y148033580D02*
X206814895Y148033580D01*
X205570057Y148128819D02*
X205617676Y148081200D01*
X205617676Y148081200D02*
X205760533Y148033580D01*
X205760533Y148033580D02*
X205855771Y148033580D01*
X205855771Y148033580D02*
X205998628Y148081200D01*
X205998628Y148081200D02*
X206093866Y148176438D01*
X206093866Y148176438D02*
X206141485Y148271676D01*
X206141485Y148271676D02*
X206189104Y148462152D01*
X206189104Y148462152D02*
X206189104Y148605009D01*
X206189104Y148605009D02*
X206141485Y148795485D01*
X206141485Y148795485D02*
X206093866Y148890723D01*
X206093866Y148890723D02*
X205998628Y148985961D01*
X205998628Y148985961D02*
X205855771Y149033580D01*
X205855771Y149033580D02*
X205760533Y149033580D01*
X205760533Y149033580D02*
X205617676Y148985961D01*
X205617676Y148985961D02*
X205570057Y148938342D01*
X205236723Y149033580D02*
X204570057Y149033580D01*
X204570057Y149033580D02*
X204998628Y148033580D01*
X203665295Y148033580D02*
X204236723Y148033580D01*
X203951009Y148033580D02*
X203951009Y149033580D01*
X203951009Y149033580D02*
X204046247Y148890723D01*
X204046247Y148890723D02*
X204141485Y148795485D01*
X204141485Y148795485D02*
X204236723Y148747866D01*
X216578873Y140007023D02*
X216646217Y140007023D01*
X216646217Y140007023D02*
X216780904Y140074367D01*
X216780904Y140074367D02*
X216848247Y140141710D01*
X216848247Y140141710D02*
X216915591Y140276397D01*
X216915591Y140276397D02*
X216915591Y140411084D01*
X216915591Y140411084D02*
X216881919Y140512099D01*
X216881919Y140512099D02*
X216780904Y140680458D01*
X216780904Y140680458D02*
X216679889Y140781473D01*
X216679889Y140781473D02*
X216511530Y140882489D01*
X216511530Y140882489D02*
X216410515Y140916160D01*
X216410515Y140916160D02*
X216275828Y140916160D01*
X216275828Y140916160D02*
X216141141Y140848817D01*
X216141141Y140848817D02*
X216073797Y140781473D01*
X216073797Y140781473D02*
X216006454Y140646786D01*
X216006454Y140646786D02*
X216006454Y140579443D01*
X215333019Y140040695D02*
X215467706Y140175382D01*
X215467706Y140175382D02*
X215568721Y140209054D01*
X215568721Y140209054D02*
X215636064Y140209054D01*
X215636064Y140209054D02*
X215804423Y140175382D01*
X215804423Y140175382D02*
X215972782Y140074367D01*
X215972782Y140074367D02*
X216242156Y139804993D01*
X216242156Y139804993D02*
X216275828Y139703977D01*
X216275828Y139703977D02*
X216275828Y139636634D01*
X216275828Y139636634D02*
X216242156Y139535619D01*
X216242156Y139535619D02*
X216107469Y139400932D01*
X216107469Y139400932D02*
X216006454Y139367260D01*
X216006454Y139367260D02*
X215939110Y139367260D01*
X215939110Y139367260D02*
X215838095Y139400932D01*
X215838095Y139400932D02*
X215669736Y139569290D01*
X215669736Y139569290D02*
X215636064Y139670306D01*
X215636064Y139670306D02*
X215636064Y139737649D01*
X215636064Y139737649D02*
X215669736Y139838664D01*
X215669736Y139838664D02*
X215804423Y139973351D01*
X215804423Y139973351D02*
X215905438Y140007023D01*
X215905438Y140007023D02*
X215972782Y140007023D01*
X215972782Y140007023D02*
X216073797Y139973351D01*
X215636064Y138929527D02*
X215501377Y138794840D01*
X215501377Y138794840D02*
X215400362Y138761168D01*
X215400362Y138761168D02*
X215333018Y138761168D01*
X215333018Y138761168D02*
X215164660Y138794840D01*
X215164660Y138794840D02*
X214996301Y138895855D01*
X214996301Y138895855D02*
X214726927Y139165229D01*
X214726927Y139165229D02*
X214693255Y139266244D01*
X214693255Y139266244D02*
X214693255Y139333588D01*
X214693255Y139333588D02*
X214726927Y139434603D01*
X214726927Y139434603D02*
X214861614Y139569290D01*
X214861614Y139569290D02*
X214962629Y139602962D01*
X214962629Y139602962D02*
X215029973Y139602962D01*
X215029973Y139602962D02*
X215130988Y139569290D01*
X215130988Y139569290D02*
X215299347Y139400931D01*
X215299347Y139400931D02*
X215333018Y139299916D01*
X215333018Y139299916D02*
X215333018Y139232573D01*
X215333018Y139232573D02*
X215299347Y139131557D01*
X215299347Y139131557D02*
X215164660Y138996870D01*
X215164660Y138996870D02*
X215063644Y138963199D01*
X215063644Y138963199D02*
X214996301Y138963199D01*
X214996301Y138963199D02*
X214895286Y138996870D01*
X191701657Y109571619D02*
X191749276Y109524000D01*
X191749276Y109524000D02*
X191892133Y109476380D01*
X191892133Y109476380D02*
X191987371Y109476380D01*
X191987371Y109476380D02*
X192130228Y109524000D01*
X192130228Y109524000D02*
X192225466Y109619238D01*
X192225466Y109619238D02*
X192273085Y109714476D01*
X192273085Y109714476D02*
X192320704Y109904952D01*
X192320704Y109904952D02*
X192320704Y110047809D01*
X192320704Y110047809D02*
X192273085Y110238285D01*
X192273085Y110238285D02*
X192225466Y110333523D01*
X192225466Y110333523D02*
X192130228Y110428761D01*
X192130228Y110428761D02*
X191987371Y110476380D01*
X191987371Y110476380D02*
X191892133Y110476380D01*
X191892133Y110476380D02*
X191749276Y110428761D01*
X191749276Y110428761D02*
X191701657Y110381142D01*
X191130228Y110047809D02*
X191225466Y110095428D01*
X191225466Y110095428D02*
X191273085Y110143047D01*
X191273085Y110143047D02*
X191320704Y110238285D01*
X191320704Y110238285D02*
X191320704Y110285904D01*
X191320704Y110285904D02*
X191273085Y110381142D01*
X191273085Y110381142D02*
X191225466Y110428761D01*
X191225466Y110428761D02*
X191130228Y110476380D01*
X191130228Y110476380D02*
X190939752Y110476380D01*
X190939752Y110476380D02*
X190844514Y110428761D01*
X190844514Y110428761D02*
X190796895Y110381142D01*
X190796895Y110381142D02*
X190749276Y110285904D01*
X190749276Y110285904D02*
X190749276Y110238285D01*
X190749276Y110238285D02*
X190796895Y110143047D01*
X190796895Y110143047D02*
X190844514Y110095428D01*
X190844514Y110095428D02*
X190939752Y110047809D01*
X190939752Y110047809D02*
X191130228Y110047809D01*
X191130228Y110047809D02*
X191225466Y110000190D01*
X191225466Y110000190D02*
X191273085Y109952571D01*
X191273085Y109952571D02*
X191320704Y109857333D01*
X191320704Y109857333D02*
X191320704Y109666857D01*
X191320704Y109666857D02*
X191273085Y109571619D01*
X191273085Y109571619D02*
X191225466Y109524000D01*
X191225466Y109524000D02*
X191130228Y109476380D01*
X191130228Y109476380D02*
X190939752Y109476380D01*
X190939752Y109476380D02*
X190844514Y109524000D01*
X190844514Y109524000D02*
X190796895Y109571619D01*
X190796895Y109571619D02*
X190749276Y109666857D01*
X190749276Y109666857D02*
X190749276Y109857333D01*
X190749276Y109857333D02*
X190796895Y109952571D01*
X190796895Y109952571D02*
X190844514Y110000190D01*
X190844514Y110000190D02*
X190939752Y110047809D01*
X189892133Y110476380D02*
X190082609Y110476380D01*
X190082609Y110476380D02*
X190177847Y110428761D01*
X190177847Y110428761D02*
X190225466Y110381142D01*
X190225466Y110381142D02*
X190320704Y110238285D01*
X190320704Y110238285D02*
X190368323Y110047809D01*
X190368323Y110047809D02*
X190368323Y109666857D01*
X190368323Y109666857D02*
X190320704Y109571619D01*
X190320704Y109571619D02*
X190273085Y109524000D01*
X190273085Y109524000D02*
X190177847Y109476380D01*
X190177847Y109476380D02*
X189987371Y109476380D01*
X189987371Y109476380D02*
X189892133Y109524000D01*
X189892133Y109524000D02*
X189844514Y109571619D01*
X189844514Y109571619D02*
X189796895Y109666857D01*
X189796895Y109666857D02*
X189796895Y109904952D01*
X189796895Y109904952D02*
X189844514Y110000190D01*
X189844514Y110000190D02*
X189892133Y110047809D01*
X189892133Y110047809D02*
X189987371Y110095428D01*
X189987371Y110095428D02*
X190177847Y110095428D01*
X190177847Y110095428D02*
X190273085Y110047809D01*
X190273085Y110047809D02*
X190320704Y110000190D01*
X190320704Y110000190D02*
X190368323Y109904952D01*
X95988047Y103968680D02*
X96321380Y104444871D01*
X96559475Y103968680D02*
X96559475Y104968680D01*
X96559475Y104968680D02*
X96178523Y104968680D01*
X96178523Y104968680D02*
X96083285Y104921061D01*
X96083285Y104921061D02*
X96035666Y104873442D01*
X96035666Y104873442D02*
X95988047Y104778204D01*
X95988047Y104778204D02*
X95988047Y104635347D01*
X95988047Y104635347D02*
X96035666Y104540109D01*
X96035666Y104540109D02*
X96083285Y104492490D01*
X96083285Y104492490D02*
X96178523Y104444871D01*
X96178523Y104444871D02*
X96559475Y104444871D01*
X95035666Y103968680D02*
X95607094Y103968680D01*
X95321380Y103968680D02*
X95321380Y104968680D01*
X95321380Y104968680D02*
X95416618Y104825823D01*
X95416618Y104825823D02*
X95511856Y104730585D01*
X95511856Y104730585D02*
X95607094Y104682966D01*
X94416618Y104968680D02*
X94321380Y104968680D01*
X94321380Y104968680D02*
X94226142Y104921061D01*
X94226142Y104921061D02*
X94178523Y104873442D01*
X94178523Y104873442D02*
X94130904Y104778204D01*
X94130904Y104778204D02*
X94083285Y104587728D01*
X94083285Y104587728D02*
X94083285Y104349633D01*
X94083285Y104349633D02*
X94130904Y104159157D01*
X94130904Y104159157D02*
X94178523Y104063919D01*
X94178523Y104063919D02*
X94226142Y104016300D01*
X94226142Y104016300D02*
X94321380Y103968680D01*
X94321380Y103968680D02*
X94416618Y103968680D01*
X94416618Y103968680D02*
X94511856Y104016300D01*
X94511856Y104016300D02*
X94559475Y104063919D01*
X94559475Y104063919D02*
X94607094Y104159157D01*
X94607094Y104159157D02*
X94654713Y104349633D01*
X94654713Y104349633D02*
X94654713Y104587728D01*
X94654713Y104587728D02*
X94607094Y104778204D01*
X94607094Y104778204D02*
X94559475Y104873442D01*
X94559475Y104873442D02*
X94511856Y104921061D01*
X94511856Y104921061D02*
X94416618Y104968680D01*
X93702332Y104873442D02*
X93654713Y104921061D01*
X93654713Y104921061D02*
X93559475Y104968680D01*
X93559475Y104968680D02*
X93321380Y104968680D01*
X93321380Y104968680D02*
X93226142Y104921061D01*
X93226142Y104921061D02*
X93178523Y104873442D01*
X93178523Y104873442D02*
X93130904Y104778204D01*
X93130904Y104778204D02*
X93130904Y104682966D01*
X93130904Y104682966D02*
X93178523Y104540109D01*
X93178523Y104540109D02*
X93749951Y103968680D01*
X93749951Y103968680D02*
X93130904Y103968680D01*
X195608407Y137405709D02*
X195675751Y137405709D01*
X195675751Y137405709D02*
X195810438Y137473053D01*
X195810438Y137473053D02*
X195877781Y137540396D01*
X195877781Y137540396D02*
X195945125Y137675083D01*
X195945125Y137675083D02*
X195945125Y137809770D01*
X195945125Y137809770D02*
X195911453Y137910785D01*
X195911453Y137910785D02*
X195810438Y138079144D01*
X195810438Y138079144D02*
X195709423Y138180159D01*
X195709423Y138180159D02*
X195541064Y138281175D01*
X195541064Y138281175D02*
X195440049Y138314846D01*
X195440049Y138314846D02*
X195305362Y138314846D01*
X195305362Y138314846D02*
X195170675Y138247503D01*
X195170675Y138247503D02*
X195103331Y138180159D01*
X195103331Y138180159D02*
X195035988Y138045472D01*
X195035988Y138045472D02*
X195035988Y137978129D01*
X194732942Y137809770D02*
X194261537Y137338366D01*
X194261537Y137338366D02*
X195271690Y136934305D01*
X194059507Y137136335D02*
X193588102Y136664930D01*
X193588102Y136664930D02*
X194598255Y136260869D01*
X195881460Y116568737D02*
X195929080Y116616356D01*
X195929080Y116616356D02*
X195976699Y116759213D01*
X195976699Y116759213D02*
X195976699Y116854451D01*
X195976699Y116854451D02*
X195929080Y116997308D01*
X195929080Y116997308D02*
X195833841Y117092546D01*
X195833841Y117092546D02*
X195738603Y117140165D01*
X195738603Y117140165D02*
X195548127Y117187784D01*
X195548127Y117187784D02*
X195405270Y117187784D01*
X195405270Y117187784D02*
X195214794Y117140165D01*
X195214794Y117140165D02*
X195119556Y117092546D01*
X195119556Y117092546D02*
X195024318Y116997308D01*
X195024318Y116997308D02*
X194976699Y116854451D01*
X194976699Y116854451D02*
X194976699Y116759213D01*
X194976699Y116759213D02*
X195024318Y116616356D01*
X195024318Y116616356D02*
X195071937Y116568737D01*
X194976699Y116235403D02*
X194976699Y115568737D01*
X194976699Y115568737D02*
X195976699Y115997308D01*
X195976699Y115140165D02*
X195976699Y114949689D01*
X195976699Y114949689D02*
X195929080Y114854451D01*
X195929080Y114854451D02*
X195881460Y114806832D01*
X195881460Y114806832D02*
X195738603Y114711594D01*
X195738603Y114711594D02*
X195548127Y114663975D01*
X195548127Y114663975D02*
X195167175Y114663975D01*
X195167175Y114663975D02*
X195071937Y114711594D01*
X195071937Y114711594D02*
X195024318Y114759213D01*
X195024318Y114759213D02*
X194976699Y114854451D01*
X194976699Y114854451D02*
X194976699Y115044927D01*
X194976699Y115044927D02*
X195024318Y115140165D01*
X195024318Y115140165D02*
X195071937Y115187784D01*
X195071937Y115187784D02*
X195167175Y115235403D01*
X195167175Y115235403D02*
X195405270Y115235403D01*
X195405270Y115235403D02*
X195500508Y115187784D01*
X195500508Y115187784D02*
X195548127Y115140165D01*
X195548127Y115140165D02*
X195595746Y115044927D01*
X195595746Y115044927D02*
X195595746Y114854451D01*
X195595746Y114854451D02*
X195548127Y114759213D01*
X195548127Y114759213D02*
X195500508Y114711594D01*
X195500508Y114711594D02*
X195405270Y114663975D01*
X156678857Y95652419D02*
X156726476Y95604800D01*
X156726476Y95604800D02*
X156869333Y95557180D01*
X156869333Y95557180D02*
X156964571Y95557180D01*
X156964571Y95557180D02*
X157107428Y95604800D01*
X157107428Y95604800D02*
X157202666Y95700038D01*
X157202666Y95700038D02*
X157250285Y95795276D01*
X157250285Y95795276D02*
X157297904Y95985752D01*
X157297904Y95985752D02*
X157297904Y96128609D01*
X157297904Y96128609D02*
X157250285Y96319085D01*
X157250285Y96319085D02*
X157202666Y96414323D01*
X157202666Y96414323D02*
X157107428Y96509561D01*
X157107428Y96509561D02*
X156964571Y96557180D01*
X156964571Y96557180D02*
X156869333Y96557180D01*
X156869333Y96557180D02*
X156726476Y96509561D01*
X156726476Y96509561D02*
X156678857Y96461942D01*
X156202666Y95557180D02*
X156012190Y95557180D01*
X156012190Y95557180D02*
X155916952Y95604800D01*
X155916952Y95604800D02*
X155869333Y95652419D01*
X155869333Y95652419D02*
X155774095Y95795276D01*
X155774095Y95795276D02*
X155726476Y95985752D01*
X155726476Y95985752D02*
X155726476Y96366704D01*
X155726476Y96366704D02*
X155774095Y96461942D01*
X155774095Y96461942D02*
X155821714Y96509561D01*
X155821714Y96509561D02*
X155916952Y96557180D01*
X155916952Y96557180D02*
X156107428Y96557180D01*
X156107428Y96557180D02*
X156202666Y96509561D01*
X156202666Y96509561D02*
X156250285Y96461942D01*
X156250285Y96461942D02*
X156297904Y96366704D01*
X156297904Y96366704D02*
X156297904Y96128609D01*
X156297904Y96128609D02*
X156250285Y96033371D01*
X156250285Y96033371D02*
X156202666Y95985752D01*
X156202666Y95985752D02*
X156107428Y95938133D01*
X156107428Y95938133D02*
X155916952Y95938133D01*
X155916952Y95938133D02*
X155821714Y95985752D01*
X155821714Y95985752D02*
X155774095Y96033371D01*
X155774095Y96033371D02*
X155726476Y96128609D01*
X155393142Y96557180D02*
X154774095Y96557180D01*
X154774095Y96557180D02*
X155107428Y96176228D01*
X155107428Y96176228D02*
X154964571Y96176228D01*
X154964571Y96176228D02*
X154869333Y96128609D01*
X154869333Y96128609D02*
X154821714Y96080990D01*
X154821714Y96080990D02*
X154774095Y95985752D01*
X154774095Y95985752D02*
X154774095Y95747657D01*
X154774095Y95747657D02*
X154821714Y95652419D01*
X154821714Y95652419D02*
X154869333Y95604800D01*
X154869333Y95604800D02*
X154964571Y95557180D01*
X154964571Y95557180D02*
X155250285Y95557180D01*
X155250285Y95557180D02*
X155345523Y95604800D01*
X155345523Y95604800D02*
X155393142Y95652419D01*
X119254857Y110540919D02*
X119302476Y110493300D01*
X119302476Y110493300D02*
X119445333Y110445680D01*
X119445333Y110445680D02*
X119540571Y110445680D01*
X119540571Y110445680D02*
X119683428Y110493300D01*
X119683428Y110493300D02*
X119778666Y110588538D01*
X119778666Y110588538D02*
X119826285Y110683776D01*
X119826285Y110683776D02*
X119873904Y110874252D01*
X119873904Y110874252D02*
X119873904Y111017109D01*
X119873904Y111017109D02*
X119826285Y111207585D01*
X119826285Y111207585D02*
X119778666Y111302823D01*
X119778666Y111302823D02*
X119683428Y111398061D01*
X119683428Y111398061D02*
X119540571Y111445680D01*
X119540571Y111445680D02*
X119445333Y111445680D01*
X119445333Y111445680D02*
X119302476Y111398061D01*
X119302476Y111398061D02*
X119254857Y111350442D01*
X118778666Y110445680D02*
X118588190Y110445680D01*
X118588190Y110445680D02*
X118492952Y110493300D01*
X118492952Y110493300D02*
X118445333Y110540919D01*
X118445333Y110540919D02*
X118350095Y110683776D01*
X118350095Y110683776D02*
X118302476Y110874252D01*
X118302476Y110874252D02*
X118302476Y111255204D01*
X118302476Y111255204D02*
X118350095Y111350442D01*
X118350095Y111350442D02*
X118397714Y111398061D01*
X118397714Y111398061D02*
X118492952Y111445680D01*
X118492952Y111445680D02*
X118683428Y111445680D01*
X118683428Y111445680D02*
X118778666Y111398061D01*
X118778666Y111398061D02*
X118826285Y111350442D01*
X118826285Y111350442D02*
X118873904Y111255204D01*
X118873904Y111255204D02*
X118873904Y111017109D01*
X118873904Y111017109D02*
X118826285Y110921871D01*
X118826285Y110921871D02*
X118778666Y110874252D01*
X118778666Y110874252D02*
X118683428Y110826633D01*
X118683428Y110826633D02*
X118492952Y110826633D01*
X118492952Y110826633D02*
X118397714Y110874252D01*
X118397714Y110874252D02*
X118350095Y110921871D01*
X118350095Y110921871D02*
X118302476Y111017109D01*
X117445333Y111445680D02*
X117635809Y111445680D01*
X117635809Y111445680D02*
X117731047Y111398061D01*
X117731047Y111398061D02*
X117778666Y111350442D01*
X117778666Y111350442D02*
X117873904Y111207585D01*
X117873904Y111207585D02*
X117921523Y111017109D01*
X117921523Y111017109D02*
X117921523Y110636157D01*
X117921523Y110636157D02*
X117873904Y110540919D01*
X117873904Y110540919D02*
X117826285Y110493300D01*
X117826285Y110493300D02*
X117731047Y110445680D01*
X117731047Y110445680D02*
X117540571Y110445680D01*
X117540571Y110445680D02*
X117445333Y110493300D01*
X117445333Y110493300D02*
X117397714Y110540919D01*
X117397714Y110540919D02*
X117350095Y110636157D01*
X117350095Y110636157D02*
X117350095Y110874252D01*
X117350095Y110874252D02*
X117397714Y110969490D01*
X117397714Y110969490D02*
X117445333Y111017109D01*
X117445333Y111017109D02*
X117540571Y111064728D01*
X117540571Y111064728D02*
X117731047Y111064728D01*
X117731047Y111064728D02*
X117826285Y111017109D01*
X117826285Y111017109D02*
X117873904Y110969490D01*
X117873904Y110969490D02*
X117921523Y110874252D01*
X208098580Y110905357D02*
X208146200Y110952976D01*
X208146200Y110952976D02*
X208193819Y111095833D01*
X208193819Y111095833D02*
X208193819Y111191071D01*
X208193819Y111191071D02*
X208146200Y111333928D01*
X208146200Y111333928D02*
X208050961Y111429166D01*
X208050961Y111429166D02*
X207955723Y111476785D01*
X207955723Y111476785D02*
X207765247Y111524404D01*
X207765247Y111524404D02*
X207622390Y111524404D01*
X207622390Y111524404D02*
X207431914Y111476785D01*
X207431914Y111476785D02*
X207336676Y111429166D01*
X207336676Y111429166D02*
X207241438Y111333928D01*
X207241438Y111333928D02*
X207193819Y111191071D01*
X207193819Y111191071D02*
X207193819Y111095833D01*
X207193819Y111095833D02*
X207241438Y110952976D01*
X207241438Y110952976D02*
X207289057Y110905357D01*
X207622390Y110333928D02*
X207574771Y110429166D01*
X207574771Y110429166D02*
X207527152Y110476785D01*
X207527152Y110476785D02*
X207431914Y110524404D01*
X207431914Y110524404D02*
X207384295Y110524404D01*
X207384295Y110524404D02*
X207289057Y110476785D01*
X207289057Y110476785D02*
X207241438Y110429166D01*
X207241438Y110429166D02*
X207193819Y110333928D01*
X207193819Y110333928D02*
X207193819Y110143452D01*
X207193819Y110143452D02*
X207241438Y110048214D01*
X207241438Y110048214D02*
X207289057Y110000595D01*
X207289057Y110000595D02*
X207384295Y109952976D01*
X207384295Y109952976D02*
X207431914Y109952976D01*
X207431914Y109952976D02*
X207527152Y110000595D01*
X207527152Y110000595D02*
X207574771Y110048214D01*
X207574771Y110048214D02*
X207622390Y110143452D01*
X207622390Y110143452D02*
X207622390Y110333928D01*
X207622390Y110333928D02*
X207670009Y110429166D01*
X207670009Y110429166D02*
X207717628Y110476785D01*
X207717628Y110476785D02*
X207812866Y110524404D01*
X207812866Y110524404D02*
X208003342Y110524404D01*
X208003342Y110524404D02*
X208098580Y110476785D01*
X208098580Y110476785D02*
X208146200Y110429166D01*
X208146200Y110429166D02*
X208193819Y110333928D01*
X208193819Y110333928D02*
X208193819Y110143452D01*
X208193819Y110143452D02*
X208146200Y110048214D01*
X208146200Y110048214D02*
X208098580Y110000595D01*
X208098580Y110000595D02*
X208003342Y109952976D01*
X208003342Y109952976D02*
X207812866Y109952976D01*
X207812866Y109952976D02*
X207717628Y110000595D01*
X207717628Y110000595D02*
X207670009Y110048214D01*
X207670009Y110048214D02*
X207622390Y110143452D01*
X207193819Y109048214D02*
X207193819Y109524404D01*
X207193819Y109524404D02*
X207670009Y109572023D01*
X207670009Y109572023D02*
X207622390Y109524404D01*
X207622390Y109524404D02*
X207574771Y109429166D01*
X207574771Y109429166D02*
X207574771Y109191071D01*
X207574771Y109191071D02*
X207622390Y109095833D01*
X207622390Y109095833D02*
X207670009Y109048214D01*
X207670009Y109048214D02*
X207765247Y109000595D01*
X207765247Y109000595D02*
X208003342Y109000595D01*
X208003342Y109000595D02*
X208098580Y109048214D01*
X208098580Y109048214D02*
X208146200Y109095833D01*
X208146200Y109095833D02*
X208193819Y109191071D01*
X208193819Y109191071D02*
X208193819Y109429166D01*
X208193819Y109429166D02*
X208146200Y109524404D01*
X208146200Y109524404D02*
X208098580Y109572023D01*
X202454829Y144980452D02*
X202454829Y144913108D01*
X202454829Y144913108D02*
X202522173Y144778421D01*
X202522173Y144778421D02*
X202589516Y144711078D01*
X202589516Y144711078D02*
X202724203Y144643734D01*
X202724203Y144643734D02*
X202858890Y144643734D01*
X202858890Y144643734D02*
X202959905Y144677406D01*
X202959905Y144677406D02*
X203128264Y144778421D01*
X203128264Y144778421D02*
X203229279Y144879436D01*
X203229279Y144879436D02*
X203330295Y145047795D01*
X203330295Y145047795D02*
X203363966Y145148810D01*
X203363966Y145148810D02*
X203363966Y145283497D01*
X203363966Y145283497D02*
X203296623Y145418184D01*
X203296623Y145418184D02*
X203229279Y145485528D01*
X203229279Y145485528D02*
X203094592Y145552871D01*
X203094592Y145552871D02*
X203027249Y145552871D01*
X202488501Y146226306D02*
X202623188Y146091619D01*
X202623188Y146091619D02*
X202656860Y145990604D01*
X202656860Y145990604D02*
X202656860Y145923261D01*
X202656860Y145923261D02*
X202623188Y145754902D01*
X202623188Y145754902D02*
X202522173Y145586543D01*
X202522173Y145586543D02*
X202252799Y145317169D01*
X202252799Y145317169D02*
X202151783Y145283497D01*
X202151783Y145283497D02*
X202084440Y145283497D01*
X202084440Y145283497D02*
X201983425Y145317169D01*
X201983425Y145317169D02*
X201848738Y145451856D01*
X201848738Y145451856D02*
X201815066Y145552871D01*
X201815066Y145552871D02*
X201815066Y145620215D01*
X201815066Y145620215D02*
X201848738Y145721230D01*
X201848738Y145721230D02*
X202017096Y145889589D01*
X202017096Y145889589D02*
X202118112Y145923261D01*
X202118112Y145923261D02*
X202185455Y145923261D01*
X202185455Y145923261D02*
X202286470Y145889589D01*
X202286470Y145889589D02*
X202421157Y145754902D01*
X202421157Y145754902D02*
X202454829Y145653887D01*
X202454829Y145653887D02*
X202454829Y145586543D01*
X202454829Y145586543D02*
X202421157Y145485528D01*
X201714050Y146394665D02*
X201815066Y146360994D01*
X201815066Y146360994D02*
X201882409Y146360994D01*
X201882409Y146360994D02*
X201983424Y146394665D01*
X201983424Y146394665D02*
X202017096Y146428337D01*
X202017096Y146428337D02*
X202050768Y146529352D01*
X202050768Y146529352D02*
X202050768Y146596696D01*
X202050768Y146596696D02*
X202017096Y146697711D01*
X202017096Y146697711D02*
X201882409Y146832398D01*
X201882409Y146832398D02*
X201781394Y146866070D01*
X201781394Y146866070D02*
X201714050Y146866070D01*
X201714050Y146866070D02*
X201613035Y146832398D01*
X201613035Y146832398D02*
X201579363Y146798726D01*
X201579363Y146798726D02*
X201545692Y146697711D01*
X201545692Y146697711D02*
X201545692Y146630368D01*
X201545692Y146630368D02*
X201579363Y146529352D01*
X201579363Y146529352D02*
X201714050Y146394665D01*
X201714050Y146394665D02*
X201747722Y146293650D01*
X201747722Y146293650D02*
X201747722Y146226307D01*
X201747722Y146226307D02*
X201714050Y146125291D01*
X201714050Y146125291D02*
X201579363Y145990604D01*
X201579363Y145990604D02*
X201478348Y145956933D01*
X201478348Y145956933D02*
X201411005Y145956933D01*
X201411005Y145956933D02*
X201309989Y145990604D01*
X201309989Y145990604D02*
X201175302Y146125291D01*
X201175302Y146125291D02*
X201141631Y146226307D01*
X201141631Y146226307D02*
X201141631Y146293650D01*
X201141631Y146293650D02*
X201175302Y146394665D01*
X201175302Y146394665D02*
X201309989Y146529352D01*
X201309989Y146529352D02*
X201411005Y146563024D01*
X201411005Y146563024D02*
X201478348Y146563024D01*
X201478348Y146563024D02*
X201579363Y146529352D01*
X194072829Y121358452D02*
X194072829Y121291108D01*
X194072829Y121291108D02*
X194140173Y121156421D01*
X194140173Y121156421D02*
X194207516Y121089078D01*
X194207516Y121089078D02*
X194342203Y121021734D01*
X194342203Y121021734D02*
X194476890Y121021734D01*
X194476890Y121021734D02*
X194577905Y121055406D01*
X194577905Y121055406D02*
X194746264Y121156421D01*
X194746264Y121156421D02*
X194847279Y121257436D01*
X194847279Y121257436D02*
X194948295Y121425795D01*
X194948295Y121425795D02*
X194981966Y121526810D01*
X194981966Y121526810D02*
X194981966Y121661497D01*
X194981966Y121661497D02*
X194914623Y121796184D01*
X194914623Y121796184D02*
X194847279Y121863528D01*
X194847279Y121863528D02*
X194712592Y121930871D01*
X194712592Y121930871D02*
X194645249Y121930871D01*
X194005486Y122099230D02*
X194106501Y122065558D01*
X194106501Y122065558D02*
X194173844Y122065558D01*
X194173844Y122065558D02*
X194274860Y122099230D01*
X194274860Y122099230D02*
X194308531Y122132902D01*
X194308531Y122132902D02*
X194342203Y122233917D01*
X194342203Y122233917D02*
X194342203Y122301261D01*
X194342203Y122301261D02*
X194308531Y122402276D01*
X194308531Y122402276D02*
X194173844Y122536963D01*
X194173844Y122536963D02*
X194072829Y122570635D01*
X194072829Y122570635D02*
X194005486Y122570635D01*
X194005486Y122570635D02*
X193904470Y122536963D01*
X193904470Y122536963D02*
X193870799Y122503291D01*
X193870799Y122503291D02*
X193837127Y122402276D01*
X193837127Y122402276D02*
X193837127Y122334932D01*
X193837127Y122334932D02*
X193870799Y122233917D01*
X193870799Y122233917D02*
X194005486Y122099230D01*
X194005486Y122099230D02*
X194039157Y121998215D01*
X194039157Y121998215D02*
X194039157Y121930871D01*
X194039157Y121930871D02*
X194005486Y121829856D01*
X194005486Y121829856D02*
X193870799Y121695169D01*
X193870799Y121695169D02*
X193769783Y121661497D01*
X193769783Y121661497D02*
X193702440Y121661497D01*
X193702440Y121661497D02*
X193601425Y121695169D01*
X193601425Y121695169D02*
X193466738Y121829856D01*
X193466738Y121829856D02*
X193433066Y121930871D01*
X193433066Y121930871D02*
X193433066Y121998215D01*
X193433066Y121998215D02*
X193466738Y122099230D01*
X193466738Y122099230D02*
X193601425Y122233917D01*
X193601425Y122233917D02*
X193702440Y122267589D01*
X193702440Y122267589D02*
X193769783Y122267589D01*
X193769783Y122267589D02*
X193870799Y122233917D01*
X192658615Y122637978D02*
X193062676Y122233917D01*
X192860646Y122435948D02*
X193567753Y123143055D01*
X193567753Y123143055D02*
X193534081Y122974696D01*
X193534081Y122974696D02*
X193534081Y122840009D01*
X193534081Y122840009D02*
X193567753Y122738994D01*
X110828057Y186228819D02*
X110875676Y186181200D01*
X110875676Y186181200D02*
X111018533Y186133580D01*
X111018533Y186133580D02*
X111113771Y186133580D01*
X111113771Y186133580D02*
X111256628Y186181200D01*
X111256628Y186181200D02*
X111351866Y186276438D01*
X111351866Y186276438D02*
X111399485Y186371676D01*
X111399485Y186371676D02*
X111447104Y186562152D01*
X111447104Y186562152D02*
X111447104Y186705009D01*
X111447104Y186705009D02*
X111399485Y186895485D01*
X111399485Y186895485D02*
X111351866Y186990723D01*
X111351866Y186990723D02*
X111256628Y187085961D01*
X111256628Y187085961D02*
X111113771Y187133580D01*
X111113771Y187133580D02*
X111018533Y187133580D01*
X111018533Y187133580D02*
X110875676Y187085961D01*
X110875676Y187085961D02*
X110828057Y187038342D01*
X109970914Y187133580D02*
X110161390Y187133580D01*
X110161390Y187133580D02*
X110256628Y187085961D01*
X110256628Y187085961D02*
X110304247Y187038342D01*
X110304247Y187038342D02*
X110399485Y186895485D01*
X110399485Y186895485D02*
X110447104Y186705009D01*
X110447104Y186705009D02*
X110447104Y186324057D01*
X110447104Y186324057D02*
X110399485Y186228819D01*
X110399485Y186228819D02*
X110351866Y186181200D01*
X110351866Y186181200D02*
X110256628Y186133580D01*
X110256628Y186133580D02*
X110066152Y186133580D01*
X110066152Y186133580D02*
X109970914Y186181200D01*
X109970914Y186181200D02*
X109923295Y186228819D01*
X109923295Y186228819D02*
X109875676Y186324057D01*
X109875676Y186324057D02*
X109875676Y186562152D01*
X109875676Y186562152D02*
X109923295Y186657390D01*
X109923295Y186657390D02*
X109970914Y186705009D01*
X109970914Y186705009D02*
X110066152Y186752628D01*
X110066152Y186752628D02*
X110256628Y186752628D01*
X110256628Y186752628D02*
X110351866Y186705009D01*
X110351866Y186705009D02*
X110399485Y186657390D01*
X110399485Y186657390D02*
X110447104Y186562152D01*
X109542342Y187133580D02*
X108875676Y187133580D01*
X108875676Y187133580D02*
X109304247Y186133580D01*
X149067857Y92176180D02*
X149401190Y92652371D01*
X149639285Y92176180D02*
X149639285Y93176180D01*
X149639285Y93176180D02*
X149258333Y93176180D01*
X149258333Y93176180D02*
X149163095Y93128561D01*
X149163095Y93128561D02*
X149115476Y93080942D01*
X149115476Y93080942D02*
X149067857Y92985704D01*
X149067857Y92985704D02*
X149067857Y92842847D01*
X149067857Y92842847D02*
X149115476Y92747609D01*
X149115476Y92747609D02*
X149163095Y92699990D01*
X149163095Y92699990D02*
X149258333Y92652371D01*
X149258333Y92652371D02*
X149639285Y92652371D01*
X148591666Y92176180D02*
X148401190Y92176180D01*
X148401190Y92176180D02*
X148305952Y92223800D01*
X148305952Y92223800D02*
X148258333Y92271419D01*
X148258333Y92271419D02*
X148163095Y92414276D01*
X148163095Y92414276D02*
X148115476Y92604752D01*
X148115476Y92604752D02*
X148115476Y92985704D01*
X148115476Y92985704D02*
X148163095Y93080942D01*
X148163095Y93080942D02*
X148210714Y93128561D01*
X148210714Y93128561D02*
X148305952Y93176180D01*
X148305952Y93176180D02*
X148496428Y93176180D01*
X148496428Y93176180D02*
X148591666Y93128561D01*
X148591666Y93128561D02*
X148639285Y93080942D01*
X148639285Y93080942D02*
X148686904Y92985704D01*
X148686904Y92985704D02*
X148686904Y92747609D01*
X148686904Y92747609D02*
X148639285Y92652371D01*
X148639285Y92652371D02*
X148591666Y92604752D01*
X148591666Y92604752D02*
X148496428Y92557133D01*
X148496428Y92557133D02*
X148305952Y92557133D01*
X148305952Y92557133D02*
X148210714Y92604752D01*
X148210714Y92604752D02*
X148163095Y92652371D01*
X148163095Y92652371D02*
X148115476Y92747609D01*
X147210714Y93176180D02*
X147686904Y93176180D01*
X147686904Y93176180D02*
X147734523Y92699990D01*
X147734523Y92699990D02*
X147686904Y92747609D01*
X147686904Y92747609D02*
X147591666Y92795228D01*
X147591666Y92795228D02*
X147353571Y92795228D01*
X147353571Y92795228D02*
X147258333Y92747609D01*
X147258333Y92747609D02*
X147210714Y92699990D01*
X147210714Y92699990D02*
X147163095Y92604752D01*
X147163095Y92604752D02*
X147163095Y92366657D01*
X147163095Y92366657D02*
X147210714Y92271419D01*
X147210714Y92271419D02*
X147258333Y92223800D01*
X147258333Y92223800D02*
X147353571Y92176180D01*
X147353571Y92176180D02*
X147591666Y92176180D01*
X147591666Y92176180D02*
X147686904Y92223800D01*
X147686904Y92223800D02*
X147734523Y92271419D01*
X214581143Y113977006D02*
X214581143Y113909662D01*
X214581143Y113909662D02*
X214648487Y113774975D01*
X214648487Y113774975D02*
X214715830Y113707632D01*
X214715830Y113707632D02*
X214850517Y113640288D01*
X214850517Y113640288D02*
X214985204Y113640288D01*
X214985204Y113640288D02*
X215086219Y113673960D01*
X215086219Y113673960D02*
X215254578Y113774975D01*
X215254578Y113774975D02*
X215355593Y113875990D01*
X215355593Y113875990D02*
X215456609Y114044349D01*
X215456609Y114044349D02*
X215490280Y114145364D01*
X215490280Y114145364D02*
X215490280Y114280051D01*
X215490280Y114280051D02*
X215422937Y114414738D01*
X215422937Y114414738D02*
X215355593Y114482082D01*
X215355593Y114482082D02*
X215220906Y114549425D01*
X215220906Y114549425D02*
X215153563Y114549425D01*
X214985204Y114852471D02*
X214513800Y115323876D01*
X214513800Y115323876D02*
X214109739Y114313723D01*
X213840364Y115391219D02*
X213941380Y115357548D01*
X213941380Y115357548D02*
X214008723Y115357548D01*
X214008723Y115357548D02*
X214109738Y115391219D01*
X214109738Y115391219D02*
X214143410Y115424891D01*
X214143410Y115424891D02*
X214177082Y115525906D01*
X214177082Y115525906D02*
X214177082Y115593250D01*
X214177082Y115593250D02*
X214143410Y115694265D01*
X214143410Y115694265D02*
X214008723Y115828952D01*
X214008723Y115828952D02*
X213907708Y115862624D01*
X213907708Y115862624D02*
X213840364Y115862624D01*
X213840364Y115862624D02*
X213739349Y115828952D01*
X213739349Y115828952D02*
X213705677Y115795280D01*
X213705677Y115795280D02*
X213672006Y115694265D01*
X213672006Y115694265D02*
X213672006Y115626922D01*
X213672006Y115626922D02*
X213705677Y115525906D01*
X213705677Y115525906D02*
X213840364Y115391219D01*
X213840364Y115391219D02*
X213874036Y115290204D01*
X213874036Y115290204D02*
X213874036Y115222861D01*
X213874036Y115222861D02*
X213840364Y115121845D01*
X213840364Y115121845D02*
X213705677Y114987158D01*
X213705677Y114987158D02*
X213604662Y114953487D01*
X213604662Y114953487D02*
X213537319Y114953487D01*
X213537319Y114953487D02*
X213436303Y114987158D01*
X213436303Y114987158D02*
X213301616Y115121845D01*
X213301616Y115121845D02*
X213267945Y115222861D01*
X213267945Y115222861D02*
X213267945Y115290204D01*
X213267945Y115290204D02*
X213301616Y115391219D01*
X213301616Y115391219D02*
X213436303Y115525906D01*
X213436303Y115525906D02*
X213537319Y115559578D01*
X213537319Y115559578D02*
X213604662Y115559578D01*
X213604662Y115559578D02*
X213705677Y115525906D01*
X119381857Y103714680D02*
X119715190Y104190871D01*
X119953285Y103714680D02*
X119953285Y104714680D01*
X119953285Y104714680D02*
X119572333Y104714680D01*
X119572333Y104714680D02*
X119477095Y104667061D01*
X119477095Y104667061D02*
X119429476Y104619442D01*
X119429476Y104619442D02*
X119381857Y104524204D01*
X119381857Y104524204D02*
X119381857Y104381347D01*
X119381857Y104381347D02*
X119429476Y104286109D01*
X119429476Y104286109D02*
X119477095Y104238490D01*
X119477095Y104238490D02*
X119572333Y104190871D01*
X119572333Y104190871D02*
X119953285Y104190871D01*
X118905666Y103714680D02*
X118715190Y103714680D01*
X118715190Y103714680D02*
X118619952Y103762300D01*
X118619952Y103762300D02*
X118572333Y103809919D01*
X118572333Y103809919D02*
X118477095Y103952776D01*
X118477095Y103952776D02*
X118429476Y104143252D01*
X118429476Y104143252D02*
X118429476Y104524204D01*
X118429476Y104524204D02*
X118477095Y104619442D01*
X118477095Y104619442D02*
X118524714Y104667061D01*
X118524714Y104667061D02*
X118619952Y104714680D01*
X118619952Y104714680D02*
X118810428Y104714680D01*
X118810428Y104714680D02*
X118905666Y104667061D01*
X118905666Y104667061D02*
X118953285Y104619442D01*
X118953285Y104619442D02*
X119000904Y104524204D01*
X119000904Y104524204D02*
X119000904Y104286109D01*
X119000904Y104286109D02*
X118953285Y104190871D01*
X118953285Y104190871D02*
X118905666Y104143252D01*
X118905666Y104143252D02*
X118810428Y104095633D01*
X118810428Y104095633D02*
X118619952Y104095633D01*
X118619952Y104095633D02*
X118524714Y104143252D01*
X118524714Y104143252D02*
X118477095Y104190871D01*
X118477095Y104190871D02*
X118429476Y104286109D01*
X117858047Y104286109D02*
X117953285Y104333728D01*
X117953285Y104333728D02*
X118000904Y104381347D01*
X118000904Y104381347D02*
X118048523Y104476585D01*
X118048523Y104476585D02*
X118048523Y104524204D01*
X118048523Y104524204D02*
X118000904Y104619442D01*
X118000904Y104619442D02*
X117953285Y104667061D01*
X117953285Y104667061D02*
X117858047Y104714680D01*
X117858047Y104714680D02*
X117667571Y104714680D01*
X117667571Y104714680D02*
X117572333Y104667061D01*
X117572333Y104667061D02*
X117524714Y104619442D01*
X117524714Y104619442D02*
X117477095Y104524204D01*
X117477095Y104524204D02*
X117477095Y104476585D01*
X117477095Y104476585D02*
X117524714Y104381347D01*
X117524714Y104381347D02*
X117572333Y104333728D01*
X117572333Y104333728D02*
X117667571Y104286109D01*
X117667571Y104286109D02*
X117858047Y104286109D01*
X117858047Y104286109D02*
X117953285Y104238490D01*
X117953285Y104238490D02*
X118000904Y104190871D01*
X118000904Y104190871D02*
X118048523Y104095633D01*
X118048523Y104095633D02*
X118048523Y103905157D01*
X118048523Y103905157D02*
X118000904Y103809919D01*
X118000904Y103809919D02*
X117953285Y103762300D01*
X117953285Y103762300D02*
X117858047Y103714680D01*
X117858047Y103714680D02*
X117667571Y103714680D01*
X117667571Y103714680D02*
X117572333Y103762300D01*
X117572333Y103762300D02*
X117524714Y103809919D01*
X117524714Y103809919D02*
X117477095Y103905157D01*
X117477095Y103905157D02*
X117477095Y104095633D01*
X117477095Y104095633D02*
X117524714Y104190871D01*
X117524714Y104190871D02*
X117572333Y104238490D01*
X117572333Y104238490D02*
X117667571Y104286109D01*
X111736047Y103968680D02*
X112069380Y104444871D01*
X112307475Y103968680D02*
X112307475Y104968680D01*
X112307475Y104968680D02*
X111926523Y104968680D01*
X111926523Y104968680D02*
X111831285Y104921061D01*
X111831285Y104921061D02*
X111783666Y104873442D01*
X111783666Y104873442D02*
X111736047Y104778204D01*
X111736047Y104778204D02*
X111736047Y104635347D01*
X111736047Y104635347D02*
X111783666Y104540109D01*
X111783666Y104540109D02*
X111831285Y104492490D01*
X111831285Y104492490D02*
X111926523Y104444871D01*
X111926523Y104444871D02*
X112307475Y104444871D01*
X110783666Y103968680D02*
X111355094Y103968680D01*
X111069380Y103968680D02*
X111069380Y104968680D01*
X111069380Y104968680D02*
X111164618Y104825823D01*
X111164618Y104825823D02*
X111259856Y104730585D01*
X111259856Y104730585D02*
X111355094Y104682966D01*
X110164618Y104968680D02*
X110069380Y104968680D01*
X110069380Y104968680D02*
X109974142Y104921061D01*
X109974142Y104921061D02*
X109926523Y104873442D01*
X109926523Y104873442D02*
X109878904Y104778204D01*
X109878904Y104778204D02*
X109831285Y104587728D01*
X109831285Y104587728D02*
X109831285Y104349633D01*
X109831285Y104349633D02*
X109878904Y104159157D01*
X109878904Y104159157D02*
X109926523Y104063919D01*
X109926523Y104063919D02*
X109974142Y104016300D01*
X109974142Y104016300D02*
X110069380Y103968680D01*
X110069380Y103968680D02*
X110164618Y103968680D01*
X110164618Y103968680D02*
X110259856Y104016300D01*
X110259856Y104016300D02*
X110307475Y104063919D01*
X110307475Y104063919D02*
X110355094Y104159157D01*
X110355094Y104159157D02*
X110402713Y104349633D01*
X110402713Y104349633D02*
X110402713Y104587728D01*
X110402713Y104587728D02*
X110355094Y104778204D01*
X110355094Y104778204D02*
X110307475Y104873442D01*
X110307475Y104873442D02*
X110259856Y104921061D01*
X110259856Y104921061D02*
X110164618Y104968680D01*
X109212237Y104968680D02*
X109116999Y104968680D01*
X109116999Y104968680D02*
X109021761Y104921061D01*
X109021761Y104921061D02*
X108974142Y104873442D01*
X108974142Y104873442D02*
X108926523Y104778204D01*
X108926523Y104778204D02*
X108878904Y104587728D01*
X108878904Y104587728D02*
X108878904Y104349633D01*
X108878904Y104349633D02*
X108926523Y104159157D01*
X108926523Y104159157D02*
X108974142Y104063919D01*
X108974142Y104063919D02*
X109021761Y104016300D01*
X109021761Y104016300D02*
X109116999Y103968680D01*
X109116999Y103968680D02*
X109212237Y103968680D01*
X109212237Y103968680D02*
X109307475Y104016300D01*
X109307475Y104016300D02*
X109355094Y104063919D01*
X109355094Y104063919D02*
X109402713Y104159157D01*
X109402713Y104159157D02*
X109450332Y104349633D01*
X109450332Y104349633D02*
X109450332Y104587728D01*
X109450332Y104587728D02*
X109402713Y104778204D01*
X109402713Y104778204D02*
X109355094Y104873442D01*
X109355094Y104873442D02*
X109307475Y104921061D01*
X109307475Y104921061D02*
X109212237Y104968680D01*
D11*
%TO.C,J6*%
X98894900Y187559950D02*
G75*
G02*
X98132900Y187559950I-381000J0D01*
G01*
X98132900Y187559950D02*
G75*
G02*
X98894900Y187559950I381000J0D01*
G01*
D12*
%TO.C,R89*%
X118857500Y190095776D02*
X118857500Y190605224D01*
X119902500Y190095776D02*
X119902500Y190605224D01*
%TO.C,C73*%
X222424042Y133000411D02*
X222217189Y132793558D01*
X223145291Y132279162D02*
X222938438Y132072309D01*
%TO.C,C82*%
X187373240Y122686473D02*
X187373240Y122979007D01*
X188393240Y122686473D02*
X188393240Y122979007D01*
%TO.C,C66*%
X113264733Y187916000D02*
X113557267Y187916000D01*
X113264733Y186896000D02*
X113557267Y186896000D01*
%TO.C,C99*%
X114912233Y108023500D02*
X115204767Y108023500D01*
X114912233Y107003500D02*
X115204767Y107003500D01*
%TO.C,C103*%
X99291767Y110103500D02*
X98999233Y110103500D01*
X99291767Y109083500D02*
X98999233Y109083500D01*
%TO.C,C90*%
X152575767Y98215000D02*
X152283233Y98215000D01*
X152575767Y97195000D02*
X152283233Y97195000D01*
%TO.C,C100*%
X136588233Y96437000D02*
X136880767Y96437000D01*
X136588233Y95417000D02*
X136880767Y95417000D01*
%TO.C,C104*%
X91281767Y110055500D02*
X90989233Y110055500D01*
X91281767Y109035500D02*
X90989233Y109035500D01*
%TO.C,R96*%
X152941224Y93147500D02*
X152431776Y93147500D01*
X152941224Y92102500D02*
X152431776Y92102500D01*
%TO.C,C76*%
X219071802Y117645949D02*
X218864949Y117852802D01*
X219793051Y118367198D02*
X219586198Y118574051D01*
%TO.C,C94*%
X144837767Y98263000D02*
X144545233Y98263000D01*
X144837767Y97243000D02*
X144545233Y97243000D01*
%TO.C,C80*%
X190725682Y130879069D02*
X190518829Y131085922D01*
X191446931Y131600318D02*
X191240078Y131807171D01*
%TO.C,C91*%
X144598233Y96485000D02*
X144890767Y96485000D01*
X144598233Y95465000D02*
X144890767Y95465000D01*
%TO.C,Y1*%
X188901240Y112970240D02*
X193301240Y112970240D01*
X193301240Y112970240D02*
X193301240Y116570240D01*
%TO.C,C105*%
X106790233Y108277500D02*
X107082767Y108277500D01*
X106790233Y107257500D02*
X107082767Y107257500D01*
%TO.C,R97*%
X161063224Y92893500D02*
X160553776Y92893500D01*
X161063224Y91848500D02*
X160553776Y91848500D01*
%TO.C,C65*%
X95248000Y178046767D02*
X95248000Y177754233D01*
X96268000Y178046767D02*
X96268000Y177754233D01*
%TO.C,C106*%
X91281767Y111833500D02*
X90989233Y111833500D01*
X91281767Y110813500D02*
X90989233Y110813500D01*
%TO.C,C74*%
X224303922Y131172171D02*
X224097069Y130965318D01*
X225025171Y130450922D02*
X224818318Y130244069D01*
%TO.C,C95*%
X160697767Y97961000D02*
X160405233Y97961000D01*
X160697767Y96941000D02*
X160405233Y96941000D01*
%TO.C,R99*%
X137193224Y93147500D02*
X136683776Y93147500D01*
X137193224Y92102500D02*
X136683776Y92102500D01*
%TO.C,C102*%
X99052233Y108325500D02*
X99344767Y108325500D01*
X99052233Y107305500D02*
X99344767Y107305500D01*
%TO.C,U33*%
X192488077Y127544756D02*
X193159828Y128216507D01*
X193159828Y126873005D02*
X192488077Y127544756D01*
X206114025Y113918808D02*
X206785776Y113247057D01*
X206785776Y141842455D02*
X206114025Y141170704D01*
X206785776Y113247057D02*
X207457527Y113918808D01*
X207457527Y141170704D02*
X206785776Y141842455D01*
X220411724Y128216507D02*
X221083475Y127544756D01*
X221083475Y127544756D02*
X220411724Y126873005D01*
X206269588Y113409691D02*
X205788755Y112928859D01*
X205696832Y113501615D01*
X206269588Y113409691D01*
G36*
X206269588Y113409691D02*
G01*
X205788755Y112928859D01*
X205696832Y113501615D01*
X206269588Y113409691D01*
G37*
%TO.C,R94*%
X109195776Y178322500D02*
X109705224Y178322500D01*
X109195776Y177277500D02*
X109705224Y177277500D01*
%TO.C,R93*%
X109705224Y175782500D02*
X109195776Y175782500D01*
X109705224Y174737500D02*
X109195776Y174737500D01*
%TO.C,R90*%
X126006776Y185240499D02*
X126516224Y185240499D01*
X126006776Y184195499D02*
X126516224Y184195499D01*
%TO.C,R101*%
X99657224Y105036000D02*
X99147776Y105036000D01*
X99657224Y103991000D02*
X99147776Y103991000D01*
%TO.C,C62*%
X122943233Y187154000D02*
X123235767Y187154000D01*
X122943233Y186134000D02*
X123235767Y186134000D01*
%TO.C,C92*%
X144837767Y100041000D02*
X144545233Y100041000D01*
X144837767Y99021000D02*
X144545233Y99021000D01*
%TO.C,C64*%
X113264733Y184868000D02*
X113557267Y184868000D01*
X113264733Y183848000D02*
X113557267Y183848000D01*
%TO.C,C107*%
X107029767Y110055500D02*
X106737233Y110055500D01*
X107029767Y109035500D02*
X106737233Y109035500D01*
%TO.C,C88*%
X160458233Y96183000D02*
X160750767Y96183000D01*
X160458233Y95163000D02*
X160750767Y95163000D01*
%TO.C,FB2*%
X184887240Y122733988D02*
X184887240Y123256492D01*
X186307240Y122733988D02*
X186307240Y123256492D01*
%TO.C,C97*%
X115151767Y109801500D02*
X114859233Y109801500D01*
X115151767Y108781500D02*
X114859233Y108781500D01*
%TO.C,R92*%
X109242776Y183402500D02*
X109752224Y183402500D01*
X109242776Y182357500D02*
X109752224Y182357500D01*
D13*
%TO.C,U32*%
X116837999Y185355000D02*
X116837999Y184885740D01*
X116837999Y179470258D02*
X116837999Y179000998D01*
X116837999Y179000998D02*
X117307259Y179000998D01*
X117307259Y185355000D02*
X116837999Y185355000D01*
X122722741Y179000998D02*
X123192001Y179000998D01*
X123192001Y185355000D02*
X122722741Y185355000D01*
X123192001Y184885740D02*
X123192001Y185355000D01*
X123192001Y179000998D02*
X123192001Y179470258D01*
D12*
%TO.C,R88*%
X116190500Y189187223D02*
X116190500Y188677775D01*
X117235500Y189187223D02*
X117235500Y188677775D01*
%TO.C,C108*%
X91042233Y108277500D02*
X91334767Y108277500D01*
X91042233Y107257500D02*
X91334767Y107257500D01*
%TO.C,C89*%
X152575767Y99993000D02*
X152283233Y99993000D01*
X152575767Y98973000D02*
X152283233Y98973000D01*
%TO.C,C109*%
X99291767Y111881500D02*
X98999233Y111881500D01*
X99291767Y110861500D02*
X98999233Y110861500D01*
%TO.C,C87*%
X160697767Y99739000D02*
X160405233Y99739000D01*
X160697767Y98719000D02*
X160405233Y98719000D01*
%TO.C,C98*%
X136827767Y98215000D02*
X136535233Y98215000D01*
X136827767Y97195000D02*
X136535233Y97195000D01*
%TO.C,C70*%
X198697069Y140179682D02*
X198903922Y139972829D01*
X199418318Y140900931D02*
X199625171Y140694078D01*
%TO.C,C110*%
X107029767Y111833500D02*
X106737233Y111833500D01*
X107029767Y110813500D02*
X106737233Y110813500D01*
%TO.C,C101*%
X136827767Y99993000D02*
X136535233Y99993000D01*
X136827767Y98973000D02*
X136535233Y98973000D01*
%TO.C,C61*%
X124100922Y178116171D02*
X123894069Y177909318D01*
X124822171Y177394922D02*
X124615318Y177188069D01*
%TO.C,C75*%
X218969922Y137268171D02*
X218763069Y137061318D01*
X219691171Y136546922D02*
X219484318Y136340069D01*
%TO.C,C83*%
X189151240Y122686473D02*
X189151240Y122979007D01*
X190171240Y122686473D02*
X190171240Y122979007D01*
%TO.C,C84*%
X187119240Y114611473D02*
X187119240Y114904007D01*
X188139240Y114611473D02*
X188139240Y114904007D01*
%TO.C,C63*%
X102360000Y179242767D02*
X102360000Y178950233D01*
X103380000Y179242767D02*
X103380000Y178950233D01*
%TO.C,R91*%
X109752224Y180862500D02*
X109242776Y180862500D01*
X109752224Y179817500D02*
X109242776Y179817500D01*
%TO.C,C72*%
X207160400Y146044967D02*
X207160400Y145752433D01*
X208180400Y146044967D02*
X208180400Y145752433D01*
%TO.C,C71*%
X205153240Y146093007D02*
X205153240Y145800473D01*
X206173240Y146093007D02*
X206173240Y145800473D01*
%TO.C,C69*%
X214601682Y141281931D02*
X214394829Y141075078D01*
X215322931Y140560682D02*
X215116078Y140353829D01*
%TO.C,C86*%
X190885473Y112066240D02*
X191178007Y112066240D01*
X190885473Y111046240D02*
X191178007Y111046240D01*
%TO.C,R102*%
X91647224Y104988000D02*
X91137776Y104988000D01*
X91647224Y103943000D02*
X91137776Y103943000D01*
%TO.C,C77*%
X195446689Y136451438D02*
X195653542Y136658291D01*
X196167938Y135730189D02*
X196374791Y135937042D01*
%TO.C,C79*%
X196441880Y115779613D02*
X196441880Y116072147D01*
X197461880Y115779613D02*
X197461880Y116072147D01*
%TO.C,C93*%
X152336233Y96437000D02*
X152628767Y96437000D01*
X152336233Y95417000D02*
X152628767Y95417000D01*
%TO.C,C96*%
X115151767Y111579500D02*
X114859233Y111579500D01*
X115151767Y110559500D02*
X114859233Y110559500D01*
%TO.C,C85*%
X208659000Y110116233D02*
X208659000Y110408767D01*
X209679000Y110116233D02*
X209679000Y110408767D01*
%TO.C,C68*%
X200779309Y144420922D02*
X200986162Y144214069D01*
X201500558Y145142171D02*
X201707411Y144935318D01*
%TO.C,C81*%
X192397309Y120798922D02*
X192604162Y120592069D01*
X193118558Y121520171D02*
X193325411Y121313318D01*
%TO.C,C67*%
X113264733Y186392000D02*
X113557267Y186392000D01*
X113264733Y185372000D02*
X113557267Y185372000D01*
%TO.C,R95*%
X145203224Y93195500D02*
X144693776Y93195500D01*
X145203224Y92150500D02*
X144693776Y92150500D01*
%TO.C,C78*%
X215134802Y115232949D02*
X214927949Y115439802D01*
X215856051Y115954198D02*
X215649198Y116161051D01*
%TO.C,R98*%
X115517224Y104734000D02*
X115007776Y104734000D01*
X115517224Y103689000D02*
X115007776Y103689000D01*
%TO.C,R100*%
X107395224Y104988000D02*
X106885776Y104988000D01*
X107395224Y103943000D02*
X106885776Y103943000D01*
%TD*%
%LPC*%
D14*
%TO.C,H2*%
X273775000Y204000000D03*
X274719581Y206280419D03*
X274719581Y201719581D03*
X277000000Y207225000D03*
D15*
X277000000Y204000000D03*
D14*
X277000000Y200775000D03*
X279280419Y206280419D03*
X279280419Y201719581D03*
X280225000Y204000000D03*
%TD*%
D16*
%TO.C,F2*%
X177370000Y181511500D03*
X180770000Y181511500D03*
X177370000Y194981500D03*
X180770000Y194981500D03*
%TD*%
D17*
%TO.C,J32*%
X151384000Y57625500D03*
D18*
X156464000Y57625500D03*
X161544000Y57625500D03*
X166624000Y57625500D03*
%TD*%
D14*
%TO.C,H3*%
X87775000Y58000000D03*
X88719581Y60280419D03*
X88719581Y55719581D03*
X91000000Y61225000D03*
D15*
X91000000Y58000000D03*
D14*
X91000000Y54775000D03*
X93280419Y60280419D03*
X93280419Y55719581D03*
X94225000Y58000000D03*
%TD*%
D19*
%TO.C,U12*%
X234696000Y141986000D03*
X234696000Y139446000D03*
X234696000Y136906000D03*
X234696000Y134366000D03*
X234696000Y131826000D03*
X234696000Y129286000D03*
X234696000Y126746000D03*
X234696000Y124206000D03*
X234696000Y121666000D03*
X234696000Y119126000D03*
X234696000Y116586000D03*
X234696000Y114046000D03*
X239776000Y114046000D03*
X242316000Y114046000D03*
X244856000Y114046000D03*
X247396000Y114046000D03*
X265176000Y136906000D03*
X265176000Y134366000D03*
X265176000Y131826000D03*
X265176000Y129286000D03*
X265176000Y126746000D03*
X265176000Y124206000D03*
X265176000Y121666000D03*
X265176000Y119126000D03*
%TD*%
%TO.C,U23*%
X234696000Y107188000D03*
X234696000Y104648000D03*
X234696000Y102108000D03*
X234696000Y99568000D03*
X234696000Y97028000D03*
X234696000Y94488000D03*
X234696000Y91948000D03*
X234696000Y89408000D03*
X234696000Y86868000D03*
X234696000Y84328000D03*
X234696000Y81788000D03*
X234696000Y79248000D03*
X239776000Y79248000D03*
X242316000Y79248000D03*
X244856000Y79248000D03*
X247396000Y79248000D03*
X265176000Y102108000D03*
X265176000Y99568000D03*
X265176000Y97028000D03*
X265176000Y94488000D03*
X265176000Y91948000D03*
X265176000Y89408000D03*
X265176000Y86868000D03*
X265176000Y84328000D03*
%TD*%
D20*
%TO.C,J15*%
X277622000Y149860000D03*
D21*
X277622000Y154940000D03*
X277622000Y160020000D03*
X277622000Y165100000D03*
%TD*%
D14*
%TO.C,H5*%
X122775000Y93000000D03*
X123719581Y95280419D03*
X123719581Y90719581D03*
X126000000Y96225000D03*
D15*
X126000000Y93000000D03*
D14*
X126000000Y89775000D03*
X128280419Y95280419D03*
X128280419Y90719581D03*
X129225000Y93000000D03*
%TD*%
D22*
%TO.C,J1*%
X163830000Y203994500D03*
D18*
X158750000Y203994500D03*
%TD*%
D17*
%TO.C,J33*%
X175433000Y57658000D03*
D18*
X180513000Y57658000D03*
X185593000Y57658000D03*
X190673000Y57658000D03*
%TD*%
D19*
%TO.C,U9*%
X234696000Y176276000D03*
X234696000Y173736000D03*
X234696000Y171196000D03*
X234696000Y168656000D03*
X234696000Y166116000D03*
X234696000Y163576000D03*
X234696000Y161036000D03*
X234696000Y158496000D03*
X234696000Y155956000D03*
X234696000Y153416000D03*
X234696000Y150876000D03*
X234696000Y148336000D03*
X239776000Y148336000D03*
X242316000Y148336000D03*
X244856000Y148336000D03*
X247396000Y148336000D03*
X265176000Y171196000D03*
X265176000Y168656000D03*
X265176000Y166116000D03*
X265176000Y163576000D03*
X265176000Y161036000D03*
X265176000Y158496000D03*
X265176000Y155956000D03*
X265176000Y153416000D03*
%TD*%
D17*
%TO.C,J36*%
X247523000Y57634000D03*
D18*
X252603000Y57634000D03*
X257683000Y57634000D03*
X262763000Y57634000D03*
%TD*%
D14*
%TO.C,H1*%
X87775000Y204000000D03*
X88719581Y206280419D03*
X88719581Y201719581D03*
X91000000Y207225000D03*
D15*
X91000000Y204000000D03*
D14*
X91000000Y200775000D03*
X93280419Y206280419D03*
X93280419Y201719581D03*
X94225000Y204000000D03*
%TD*%
D23*
%TO.C,J31*%
X130556000Y63251000D03*
D19*
X130556000Y60711000D03*
%TD*%
D22*
%TO.C,J3*%
X211314001Y203787500D03*
D18*
X206234001Y203787500D03*
X201154001Y203787500D03*
X196074001Y203787500D03*
%TD*%
D17*
%TO.C,J35*%
X223533999Y57624500D03*
D18*
X228613999Y57624500D03*
X233693999Y57624500D03*
X238773999Y57624500D03*
%TD*%
D14*
%TO.C,H6*%
X186775000Y184000000D03*
X187719581Y186280419D03*
X187719581Y181719581D03*
X190000000Y187225000D03*
D15*
X190000000Y184000000D03*
D14*
X190000000Y180775000D03*
X192280419Y186280419D03*
X192280419Y181719581D03*
X193225000Y184000000D03*
%TD*%
D19*
%TO.C,U1*%
X138430000Y200025000D03*
X138430000Y202565000D03*
X138430000Y205105000D03*
X138430000Y207645000D03*
%TD*%
D20*
%TO.C,J28*%
X277654500Y80010000D03*
D21*
X277654500Y85090000D03*
X277654500Y90170000D03*
X277654500Y95250000D03*
%TD*%
D23*
%TO.C,J27*%
X115316000Y63759000D03*
D19*
X115316000Y61219000D03*
%TD*%
D17*
%TO.C,J34*%
X199563000Y57658000D03*
D18*
X204643000Y57658000D03*
X209723000Y57658000D03*
X214803000Y57658000D03*
%TD*%
D24*
%TO.C,J6*%
X98513900Y182149750D03*
X101053900Y180879750D03*
X98513900Y179609750D03*
X101053900Y178339750D03*
X98513900Y177069750D03*
X101053900Y175799750D03*
X98513900Y174529750D03*
X101053900Y173259750D03*
X88099900Y184384950D03*
X88099900Y181844950D03*
X88099900Y173564550D03*
X88099900Y171024550D03*
D25*
X95211900Y185553350D03*
X95211900Y169856150D03*
%TD*%
D16*
%TO.C,F1*%
X159336000Y181348000D03*
X162736000Y181348000D03*
X159336000Y194818000D03*
X162736000Y194818000D03*
%TD*%
D20*
%TO.C,J24*%
X277654500Y115570000D03*
D21*
X277654500Y120650000D03*
X277654500Y125730000D03*
X277654500Y130810000D03*
%TD*%
D22*
%TO.C,J5*%
X262255000Y204041500D03*
D18*
X257175000Y204041500D03*
X252095000Y204041500D03*
X247015000Y204041500D03*
%TD*%
D14*
%TO.C,H4*%
X273775000Y58000000D03*
X274719581Y60280419D03*
X274719581Y55719581D03*
X277000000Y61225000D03*
D15*
X277000000Y58000000D03*
D14*
X277000000Y54775000D03*
X279280419Y60280419D03*
X279280419Y55719581D03*
X280225000Y58000000D03*
%TD*%
D22*
%TO.C,J4*%
X236968001Y204040500D03*
D18*
X231888001Y204040500D03*
X226808001Y204040500D03*
X221728001Y204040500D03*
%TD*%
D23*
%TO.C,J8*%
X191770000Y168915000D03*
D19*
X191770000Y166375000D03*
%TD*%
D22*
%TO.C,J2*%
X182118000Y203994500D03*
D18*
X177038000Y203994500D03*
%TD*%
D26*
%TO.C,R89*%
X119380000Y191263000D03*
X119380000Y189438000D03*
%TD*%
D27*
%TO.C,C73*%
X222071360Y131926480D03*
X223291120Y133146240D03*
%TD*%
D28*
%TO.C,C82*%
X187883240Y123695240D03*
X187883240Y121970240D03*
%TD*%
D29*
%TO.C,C66*%
X114273500Y187406000D03*
X112548500Y187406000D03*
%TD*%
%TO.C,C99*%
X115921000Y107513500D03*
X114196000Y107513500D03*
%TD*%
D30*
%TO.C,C103*%
X98283000Y109593500D03*
X100008000Y109593500D03*
%TD*%
%TO.C,C90*%
X151567000Y97705000D03*
X153292000Y97705000D03*
%TD*%
D29*
%TO.C,C100*%
X137597000Y95927000D03*
X135872000Y95927000D03*
%TD*%
D30*
%TO.C,C104*%
X90273000Y109545500D03*
X91998000Y109545500D03*
%TD*%
D31*
%TO.C,R96*%
X151774000Y92625000D03*
X153599000Y92625000D03*
%TD*%
D32*
%TO.C,C76*%
X218719120Y118719880D03*
X219938880Y117500120D03*
%TD*%
D30*
%TO.C,C94*%
X143829000Y97753000D03*
X145554000Y97753000D03*
%TD*%
D32*
%TO.C,C80*%
X190373000Y131953000D03*
X191592760Y130733240D03*
%TD*%
D29*
%TO.C,C91*%
X145607000Y95975000D03*
X143882000Y95975000D03*
%TD*%
D33*
%TO.C,Y1*%
X192201240Y113920240D03*
X190001240Y113920240D03*
X190001240Y115620240D03*
X192201240Y115620240D03*
%TD*%
D29*
%TO.C,C105*%
X107799000Y107767500D03*
X106074000Y107767500D03*
%TD*%
D31*
%TO.C,R97*%
X159896000Y92371000D03*
X161721000Y92371000D03*
%TD*%
D34*
%TO.C,C65*%
X95758000Y177038000D03*
X95758000Y178763000D03*
%TD*%
D30*
%TO.C,C106*%
X90273000Y111323500D03*
X91998000Y111323500D03*
%TD*%
D27*
%TO.C,C74*%
X223951240Y130098240D03*
X225171000Y131318000D03*
%TD*%
D30*
%TO.C,C95*%
X159689000Y97451000D03*
X161414000Y97451000D03*
%TD*%
D31*
%TO.C,R99*%
X136026000Y92625000D03*
X137851000Y92625000D03*
%TD*%
D29*
%TO.C,C102*%
X100061000Y107815500D03*
X98336000Y107815500D03*
%TD*%
D35*
%TO.C,U33*%
X205433434Y113818046D03*
X205079881Y114171599D03*
X204726327Y114525152D03*
X204372774Y114878706D03*
X204019221Y115232259D03*
X203665667Y115585813D03*
X203312114Y115939366D03*
X202958561Y116292919D03*
X202605007Y116646473D03*
X202251454Y117000026D03*
X201897900Y117353580D03*
X201544347Y117707133D03*
X201190794Y118060686D03*
X200837240Y118414240D03*
X200483687Y118767793D03*
X200130133Y119121346D03*
X199776580Y119474900D03*
X199423027Y119828453D03*
X199069473Y120182007D03*
X198715920Y120535560D03*
X198362366Y120889113D03*
X198008813Y121242667D03*
X197655260Y121596220D03*
X197301706Y121949774D03*
X196948153Y122303327D03*
X196594600Y122656880D03*
X196241046Y123010434D03*
X195887493Y123363987D03*
X195533939Y123717541D03*
X195180386Y124071094D03*
X194826833Y124424647D03*
X194473279Y124778201D03*
X194119726Y125131754D03*
X193766172Y125485307D03*
X193412619Y125838861D03*
X193059066Y126192414D03*
D36*
X193059066Y128897098D03*
X193412619Y129250651D03*
X193766172Y129604205D03*
X194119726Y129957758D03*
X194473279Y130311311D03*
X194826833Y130664865D03*
X195180386Y131018418D03*
X195533939Y131371971D03*
X195887493Y131725525D03*
X196241046Y132079078D03*
X196594600Y132432632D03*
X196948153Y132786185D03*
X197301706Y133139738D03*
X197655260Y133493292D03*
X198008813Y133846845D03*
X198362366Y134200399D03*
X198715920Y134553952D03*
X199069473Y134907505D03*
X199423027Y135261059D03*
X199776580Y135614612D03*
X200130133Y135968166D03*
X200483687Y136321719D03*
X200837240Y136675272D03*
X201190794Y137028826D03*
X201544347Y137382379D03*
X201897900Y137735932D03*
X202251454Y138089486D03*
X202605007Y138443039D03*
X202958561Y138796593D03*
X203312114Y139150146D03*
X203665667Y139503699D03*
X204019221Y139857253D03*
X204372774Y140210806D03*
X204726327Y140564360D03*
X205079881Y140917913D03*
X205433434Y141271466D03*
D35*
X208138118Y141271466D03*
X208491671Y140917913D03*
X208845225Y140564360D03*
X209198778Y140210806D03*
X209552331Y139857253D03*
X209905885Y139503699D03*
X210259438Y139150146D03*
X210612991Y138796593D03*
X210966545Y138443039D03*
X211320098Y138089486D03*
X211673652Y137735932D03*
X212027205Y137382379D03*
X212380758Y137028826D03*
X212734312Y136675272D03*
X213087865Y136321719D03*
X213441419Y135968166D03*
X213794972Y135614612D03*
X214148525Y135261059D03*
X214502079Y134907505D03*
X214855632Y134553952D03*
X215209186Y134200399D03*
X215562739Y133846845D03*
X215916292Y133493292D03*
X216269846Y133139738D03*
X216623399Y132786185D03*
X216976952Y132432632D03*
X217330506Y132079078D03*
X217684059Y131725525D03*
X218037613Y131371971D03*
X218391166Y131018418D03*
X218744719Y130664865D03*
X219098273Y130311311D03*
X219451826Y129957758D03*
X219805380Y129604205D03*
X220158933Y129250651D03*
X220512486Y128897098D03*
D36*
X220512486Y126192414D03*
X220158933Y125838861D03*
X219805380Y125485307D03*
X219451826Y125131754D03*
X219098273Y124778201D03*
X218744719Y124424647D03*
X218391166Y124071094D03*
X218037613Y123717541D03*
X217684059Y123363987D03*
X217330506Y123010434D03*
X216976952Y122656880D03*
X216623399Y122303327D03*
X216269846Y121949774D03*
X215916292Y121596220D03*
X215562739Y121242667D03*
X215209186Y120889113D03*
X214855632Y120535560D03*
X214502079Y120182007D03*
X214148525Y119828453D03*
X213794972Y119474900D03*
X213441419Y119121346D03*
X213087865Y118767793D03*
X212734312Y118414240D03*
X212380758Y118060686D03*
X212027205Y117707133D03*
X211673652Y117353580D03*
X211320098Y117000026D03*
X210966545Y116646473D03*
X210612991Y116292919D03*
X210259438Y115939366D03*
X209905885Y115585813D03*
X209552331Y115232259D03*
X209198778Y114878706D03*
X208845225Y114525152D03*
X208491671Y114171599D03*
X208138118Y113818046D03*
%TD*%
D37*
%TO.C,R94*%
X110363000Y177800000D03*
X108538000Y177800000D03*
%TD*%
D31*
%TO.C,R93*%
X108538000Y175260000D03*
X110363000Y175260000D03*
%TD*%
D37*
%TO.C,R90*%
X127174000Y184717999D03*
X125349000Y184717999D03*
%TD*%
D31*
%TO.C,R101*%
X98490000Y104513500D03*
X100315000Y104513500D03*
%TD*%
D29*
%TO.C,C62*%
X123952000Y186644000D03*
X122227000Y186644000D03*
%TD*%
D30*
%TO.C,C92*%
X143829000Y99531000D03*
X145554000Y99531000D03*
%TD*%
D29*
%TO.C,C64*%
X114273500Y184358000D03*
X112548500Y184358000D03*
%TD*%
D30*
%TO.C,C107*%
X106021000Y109545500D03*
X107746000Y109545500D03*
%TD*%
D29*
%TO.C,C88*%
X161467000Y95673000D03*
X159742000Y95673000D03*
%TD*%
D38*
%TO.C,FB2*%
X185597240Y124020240D03*
X185597240Y121970240D03*
%TD*%
D30*
%TO.C,C97*%
X114143000Y109291500D03*
X115868000Y109291500D03*
%TD*%
D37*
%TO.C,R92*%
X110410000Y182880000D03*
X108585000Y182880000D03*
%TD*%
D39*
%TO.C,U32*%
X122265001Y179278000D03*
X121764999Y179278000D03*
X121265000Y179278000D03*
X120765001Y179278000D03*
X120265000Y179278000D03*
X119765000Y179278000D03*
X119264999Y179278000D03*
X118765000Y179278000D03*
X118265001Y179278000D03*
X117764999Y179278000D03*
D40*
X117115001Y179927998D03*
X117115001Y180428000D03*
X117115001Y180927999D03*
X117115001Y181427998D03*
X117115001Y181927999D03*
X117115001Y182427999D03*
X117115001Y182928000D03*
X117115001Y183427999D03*
X117115001Y183927998D03*
X117115001Y184428000D03*
D39*
X117764999Y185077998D03*
X118265001Y185077998D03*
X118765000Y185077998D03*
X119264999Y185077998D03*
X119765000Y185077998D03*
X120265000Y185077998D03*
X120765001Y185077998D03*
X121265000Y185077998D03*
X121764999Y185077998D03*
X122265001Y185077998D03*
D40*
X122914999Y184428000D03*
X122914999Y183927998D03*
X122914999Y183427999D03*
X122914999Y182928000D03*
X122914999Y182427999D03*
X122914999Y181927999D03*
X122914999Y181427998D03*
X122914999Y180927999D03*
X122914999Y180428000D03*
X122914999Y179927998D03*
D41*
X120015000Y182177999D03*
%TD*%
D42*
%TO.C,R88*%
X116713000Y188019999D03*
X116713000Y189844999D03*
%TD*%
D29*
%TO.C,C108*%
X92051000Y107767500D03*
X90326000Y107767500D03*
%TD*%
D30*
%TO.C,C89*%
X151567000Y99483000D03*
X153292000Y99483000D03*
%TD*%
%TO.C,C109*%
X98283000Y111371500D03*
X100008000Y111371500D03*
%TD*%
%TO.C,C87*%
X159689000Y99229000D03*
X161414000Y99229000D03*
%TD*%
%TO.C,C98*%
X135819000Y97705000D03*
X137544000Y97705000D03*
%TD*%
D43*
%TO.C,C70*%
X199771000Y139827000D03*
X198551240Y141046760D03*
%TD*%
D30*
%TO.C,C110*%
X106021000Y111323500D03*
X107746000Y111323500D03*
%TD*%
%TO.C,C101*%
X135819000Y99483000D03*
X137544000Y99483000D03*
%TD*%
D27*
%TO.C,C61*%
X123748240Y177042240D03*
X124968000Y178262000D03*
%TD*%
%TO.C,C75*%
X218617240Y136194240D03*
X219837000Y137414000D03*
%TD*%
D28*
%TO.C,C83*%
X189661240Y123695240D03*
X189661240Y121970240D03*
%TD*%
%TO.C,C84*%
X187629240Y115620240D03*
X187629240Y113895240D03*
%TD*%
D34*
%TO.C,C63*%
X102870000Y178234000D03*
X102870000Y179959000D03*
%TD*%
D31*
%TO.C,R91*%
X108585000Y180340000D03*
X110410000Y180340000D03*
%TD*%
D34*
%TO.C,C72*%
X207670400Y145036200D03*
X207670400Y146761200D03*
%TD*%
%TO.C,C71*%
X205663240Y145084240D03*
X205663240Y146809240D03*
%TD*%
D27*
%TO.C,C69*%
X214249000Y140208000D03*
X215468760Y141427760D03*
%TD*%
D29*
%TO.C,C86*%
X191894240Y111556240D03*
X190169240Y111556240D03*
%TD*%
D31*
%TO.C,R102*%
X90480000Y104465500D03*
X92305000Y104465500D03*
%TD*%
D44*
%TO.C,C77*%
X196520620Y136804120D03*
X195300860Y135584360D03*
%TD*%
D28*
%TO.C,C79*%
X196951880Y116788381D03*
X196951880Y115063379D03*
%TD*%
D29*
%TO.C,C93*%
X153345000Y95927000D03*
X151620000Y95927000D03*
%TD*%
D30*
%TO.C,C96*%
X114143000Y111069500D03*
X115868000Y111069500D03*
%TD*%
D28*
%TO.C,C85*%
X209169000Y111125000D03*
X209169000Y109400000D03*
%TD*%
D43*
%TO.C,C68*%
X201853240Y144068240D03*
X200633480Y145288000D03*
%TD*%
%TO.C,C81*%
X193471240Y120446240D03*
X192251480Y121666000D03*
%TD*%
D29*
%TO.C,C67*%
X114273500Y185882000D03*
X112548500Y185882000D03*
%TD*%
D31*
%TO.C,R95*%
X144036000Y92673000D03*
X145861000Y92673000D03*
%TD*%
D32*
%TO.C,C78*%
X214782120Y116306880D03*
X216001880Y115087120D03*
%TD*%
D31*
%TO.C,R98*%
X114350000Y104211500D03*
X116175000Y104211500D03*
%TD*%
%TO.C,R100*%
X106228000Y104465500D03*
X108053000Y104465500D03*
%TD*%
%LPD*%
M02*
