%TF.GenerationSoftware,KiCad,Pcbnew,8.0.1*%
%TF.CreationDate,2024-05-02T15:47:01+02:00*%
%TF.ProjectId,launchpad-controller-v2,6c61756e-6368-4706-9164-2d636f6e7472,rev?*%
%TF.SameCoordinates,Original*%
%TF.FileFunction,Paste,Top*%
%TF.FilePolarity,Positive*%
%FSLAX46Y46*%
G04 Gerber Fmt 4.6, Leading zero omitted, Abs format (unit mm)*
G04 Created by KiCad (PCBNEW 8.0.1) date 2024-05-02 15:47:01*
%MOMM*%
%LPD*%
G01*
G04 APERTURE LIST*
G04 Aperture macros list*
%AMRoundRect*
0 Rectangle with rounded corners*
0 $1 Rounding radius*
0 $2 $3 $4 $5 $6 $7 $8 $9 X,Y pos of 4 corners*
0 Add a 4 corners polygon primitive as box body*
4,1,4,$2,$3,$4,$5,$6,$7,$8,$9,$2,$3,0*
0 Add four circle primitives for the rounded corners*
1,1,$1+$1,$2,$3*
1,1,$1+$1,$4,$5*
1,1,$1+$1,$6,$7*
1,1,$1+$1,$8,$9*
0 Add four rect primitives between the rounded corners*
20,1,$1+$1,$2,$3,$4,$5,0*
20,1,$1+$1,$4,$5,$6,$7,0*
20,1,$1+$1,$6,$7,$8,$9,0*
20,1,$1+$1,$8,$9,$2,$3,0*%
G04 Aperture macros list end*
%ADD10C,0.000000*%
%ADD11RoundRect,0.237500X0.237500X-0.300000X0.237500X0.300000X-0.237500X0.300000X-0.237500X-0.300000X0*%
%ADD12RoundRect,0.250000X0.450000X-0.325000X0.450000X0.325000X-0.450000X0.325000X-0.450000X-0.325000X0*%
%ADD13RoundRect,0.100000X-0.637500X-0.100000X0.637500X-0.100000X0.637500X0.100000X-0.637500X0.100000X0*%
%ADD14RoundRect,0.150000X0.150000X0.700000X-0.150000X0.700000X-0.150000X-0.700000X0.150000X-0.700000X0*%
%ADD15RoundRect,0.250000X0.250000X1.150000X-0.250000X1.150000X-0.250000X-1.150000X0.250000X-1.150000X0*%
%ADD16RoundRect,0.237500X0.237500X-0.250000X0.237500X0.250000X-0.237500X0.250000X-0.237500X-0.250000X0*%
%ADD17RoundRect,0.237500X-0.237500X0.250000X-0.237500X-0.250000X0.237500X-0.250000X0.237500X0.250000X0*%
%ADD18RoundRect,0.237500X-0.300000X-0.237500X0.300000X-0.237500X0.300000X0.237500X-0.300000X0.237500X0*%
%ADD19RoundRect,0.250000X-0.250000X0.250000X-0.250000X-0.250000X0.250000X-0.250000X0.250000X0.250000X0*%
%ADD20RoundRect,0.150000X0.700000X-0.150000X0.700000X0.150000X-0.700000X0.150000X-0.700000X-0.150000X0*%
%ADD21RoundRect,0.250000X1.150000X-0.250000X1.150000X0.250000X-1.150000X0.250000X-1.150000X-0.250000X0*%
%ADD22RoundRect,0.150000X-0.825000X-0.150000X0.825000X-0.150000X0.825000X0.150000X-0.825000X0.150000X0*%
%ADD23RoundRect,0.150000X-0.700000X0.150000X-0.700000X-0.150000X0.700000X-0.150000X0.700000X0.150000X0*%
%ADD24RoundRect,0.250000X-1.150000X0.250000X-1.150000X-0.250000X1.150000X-0.250000X1.150000X0.250000X0*%
%ADD25R,0.740000X2.400000*%
%ADD26RoundRect,0.200000X0.900000X0.200000X-0.900000X0.200000X-0.900000X-0.200000X0.900000X-0.200000X0*%
%ADD27RoundRect,0.250000X1.275000X1.125000X-1.275000X1.125000X-1.275000X-1.125000X1.275000X-1.125000X0*%
%ADD28RoundRect,0.237500X-0.237500X0.300000X-0.237500X-0.300000X0.237500X-0.300000X0.237500X0.300000X0*%
%ADD29RoundRect,0.250000X-0.450000X0.325000X-0.450000X-0.325000X0.450000X-0.325000X0.450000X0.325000X0*%
%ADD30RoundRect,0.237500X0.250000X0.237500X-0.250000X0.237500X-0.250000X-0.237500X0.250000X-0.237500X0*%
%ADD31RoundRect,0.200000X0.200000X-0.750000X0.200000X0.750000X-0.200000X0.750000X-0.200000X-0.750000X0*%
%ADD32RoundRect,0.200000X-0.200000X0.750000X-0.200000X-0.750000X0.200000X-0.750000X0.200000X0.750000X0*%
%ADD33RoundRect,0.200000X0.750000X0.200000X-0.750000X0.200000X-0.750000X-0.200000X0.750000X-0.200000X0*%
%ADD34RoundRect,0.250000X0.325000X0.450000X-0.325000X0.450000X-0.325000X-0.450000X0.325000X-0.450000X0*%
%ADD35RoundRect,0.100000X0.712500X0.100000X-0.712500X0.100000X-0.712500X-0.100000X0.712500X-0.100000X0*%
%ADD36RoundRect,0.200000X-0.900000X-0.200000X0.900000X-0.200000X0.900000X0.200000X-0.900000X0.200000X0*%
%ADD37RoundRect,0.250000X-1.275000X-1.125000X1.275000X-1.125000X1.275000X1.125000X-1.275000X1.125000X0*%
%ADD38RoundRect,0.237500X-0.250000X-0.237500X0.250000X-0.237500X0.250000X0.237500X-0.250000X0.237500X0*%
%ADD39RoundRect,0.237500X0.300000X0.237500X-0.300000X0.237500X-0.300000X-0.237500X0.300000X-0.237500X0*%
%ADD40R,1.000000X2.400000*%
%ADD41R,3.300001X2.400000*%
%ADD42R,0.254000X0.762000*%
%ADD43R,0.762000X0.254000*%
%ADD44R,0.532600X1.454899*%
%ADD45RoundRect,0.375000X-0.625000X-0.375000X0.625000X-0.375000X0.625000X0.375000X-0.625000X0.375000X0*%
%ADD46RoundRect,0.500000X-0.500000X-1.400000X0.500000X-1.400000X0.500000X1.400000X-0.500000X1.400000X0*%
G04 APERTURE END LIST*
D10*
%TO.C,U10*%
G36*
X109876833Y127880468D02*
G01*
X108510499Y127880468D01*
X108510499Y129246802D01*
X109876833Y129246802D01*
X109876833Y127880468D01*
G37*
G36*
X109876833Y126314135D02*
G01*
X108510499Y126314135D01*
X108510499Y127680469D01*
X109876833Y127680469D01*
X109876833Y126314135D01*
G37*
G36*
X109876833Y124747802D02*
G01*
X108510499Y124747802D01*
X108510499Y126114136D01*
X109876833Y126114136D01*
X109876833Y124747802D01*
G37*
G36*
X111443166Y127880468D02*
G01*
X110076832Y127880468D01*
X110076832Y129246802D01*
X111443166Y129246802D01*
X111443166Y127880468D01*
G37*
G36*
X111443166Y126314135D02*
G01*
X110076832Y126314135D01*
X110076832Y127680469D01*
X111443166Y127680469D01*
X111443166Y126314135D01*
G37*
G36*
X111443166Y124747802D02*
G01*
X110076832Y124747802D01*
X110076832Y126114136D01*
X111443166Y126114136D01*
X111443166Y124747802D01*
G37*
G36*
X113009499Y127880468D02*
G01*
X111643165Y127880468D01*
X111643165Y129246802D01*
X113009499Y129246802D01*
X113009499Y127880468D01*
G37*
G36*
X113009499Y126314135D02*
G01*
X111643165Y126314135D01*
X111643165Y127680469D01*
X113009499Y127680469D01*
X113009499Y126314135D01*
G37*
G36*
X113009499Y124747802D02*
G01*
X111643165Y124747802D01*
X111643165Y126114136D01*
X113009499Y126114136D01*
X113009499Y124747802D01*
G37*
%TO.C,U11*%
G36*
X155422833Y116039968D02*
G01*
X154056499Y116039968D01*
X154056499Y117406302D01*
X155422833Y117406302D01*
X155422833Y116039968D01*
G37*
G36*
X155422833Y114473635D02*
G01*
X154056499Y114473635D01*
X154056499Y115839969D01*
X155422833Y115839969D01*
X155422833Y114473635D01*
G37*
G36*
X155422833Y112907302D02*
G01*
X154056499Y112907302D01*
X154056499Y114273636D01*
X155422833Y114273636D01*
X155422833Y112907302D01*
G37*
G36*
X156989166Y116039968D02*
G01*
X155622832Y116039968D01*
X155622832Y117406302D01*
X156989166Y117406302D01*
X156989166Y116039968D01*
G37*
G36*
X156989166Y114473635D02*
G01*
X155622832Y114473635D01*
X155622832Y115839969D01*
X156989166Y115839969D01*
X156989166Y114473635D01*
G37*
G36*
X156989166Y112907302D02*
G01*
X155622832Y112907302D01*
X155622832Y114273636D01*
X156989166Y114273636D01*
X156989166Y112907302D01*
G37*
G36*
X158555499Y116039968D02*
G01*
X157189165Y116039968D01*
X157189165Y117406302D01*
X158555499Y117406302D01*
X158555499Y116039968D01*
G37*
G36*
X158555499Y114473635D02*
G01*
X157189165Y114473635D01*
X157189165Y115839969D01*
X158555499Y115839969D01*
X158555499Y114473635D01*
G37*
G36*
X158555499Y112907302D02*
G01*
X157189165Y112907302D01*
X157189165Y114273636D01*
X158555499Y114273636D01*
X158555499Y112907302D01*
G37*
%TD*%
D11*
%TO.C,C9*%
X116728000Y151370000D03*
X116728000Y153095000D03*
%TD*%
D12*
%TO.C,D30*%
X230391999Y67055000D03*
X230391999Y69105000D03*
%TD*%
D13*
%TO.C,U22*%
X253492000Y101346000D03*
X253492000Y100696000D03*
X253492000Y100046000D03*
X253492000Y99396000D03*
X253492000Y98746000D03*
X253492000Y98096000D03*
X253492000Y97446000D03*
X253492000Y96796000D03*
X259217000Y96796000D03*
X259217000Y97446000D03*
X259217000Y98096000D03*
X259217000Y98746000D03*
X259217000Y99396000D03*
X259217000Y100046000D03*
X259217000Y100696000D03*
X259217000Y101346000D03*
%TD*%
D14*
%TO.C,TC6*%
X153208000Y91863000D03*
X151958000Y91863000D03*
D15*
X155058000Y88513000D03*
X150108000Y88513000D03*
%TD*%
D16*
%TO.C,R49*%
X116240000Y105725000D03*
X116240000Y107550000D03*
%TD*%
D17*
%TO.C,R9*%
X88138000Y166520500D03*
X88138000Y164695500D03*
%TD*%
D18*
%TO.C,C10*%
X135943000Y161036000D03*
X137668000Y161036000D03*
%TD*%
D19*
%TO.C,D18*%
X151340000Y146211500D03*
X151340000Y143711500D03*
%TD*%
D20*
%TO.C,J26*%
X145666000Y109957000D03*
X145666000Y111207000D03*
X145666000Y112457000D03*
X145666000Y113707000D03*
D21*
X142316000Y108107000D03*
X142316000Y115557000D03*
%TD*%
D22*
%TO.C,U6*%
X218759000Y180340000D03*
X218759000Y179070000D03*
X218759000Y177800000D03*
X218759000Y176530000D03*
X218759000Y175260000D03*
X218759000Y173990000D03*
X218759000Y172720000D03*
X223709000Y172720000D03*
X223709000Y173990000D03*
X223709000Y175260000D03*
X223709000Y176530000D03*
X223709000Y177800000D03*
X223709000Y179070000D03*
X223709000Y180340000D03*
%TD*%
D17*
%TO.C,R26*%
X106556000Y153012000D03*
X106556000Y151187000D03*
%TD*%
D18*
%TO.C,C54*%
X159370000Y107309000D03*
X161095000Y107309000D03*
%TD*%
D23*
%TO.C,J10*%
X108982000Y144521000D03*
X108982000Y143271000D03*
X108982000Y142021000D03*
X108982000Y140771000D03*
D24*
X112332000Y146371000D03*
X112332000Y138921000D03*
%TD*%
D17*
%TO.C,R84*%
X243205000Y72699500D03*
X243205000Y70874500D03*
%TD*%
D25*
%TO.C,J7*%
X209042000Y168910000D03*
X209042000Y165010000D03*
X207772000Y168910000D03*
X207772000Y165010000D03*
X206502000Y168910000D03*
X206502000Y165010000D03*
X205232000Y168910000D03*
X205232000Y165010000D03*
X203962000Y168910000D03*
X203962000Y165010000D03*
X202692000Y168910000D03*
X202692000Y165010000D03*
X201422000Y168910000D03*
X201422000Y165010000D03*
%TD*%
D11*
%TO.C,C45*%
X139812000Y94202000D03*
X139812000Y95927000D03*
%TD*%
D26*
%TO.C,U29*%
X201731000Y61990500D03*
X201731000Y63130500D03*
D27*
X197106000Y62745500D03*
X197106000Y65795500D03*
X193756000Y62745500D03*
X193756000Y65795500D03*
D26*
X201731000Y65410500D03*
X201731000Y66550500D03*
%TD*%
D23*
%TO.C,J12*%
X121284000Y156378500D03*
X121284000Y155128500D03*
X121284000Y153878500D03*
X121284000Y152628500D03*
D24*
X124634000Y158228500D03*
X124634000Y150778500D03*
%TD*%
D28*
%TO.C,C42*%
X149464000Y95979500D03*
X149464000Y94254500D03*
%TD*%
D18*
%TO.C,C1*%
X108511000Y176530000D03*
X110236000Y176530000D03*
%TD*%
D29*
%TO.C,D3*%
X255397000Y194611000D03*
X255397000Y192561000D03*
%TD*%
D30*
%TO.C,R19*%
X213217003Y188793000D03*
X211392003Y188793000D03*
%TD*%
D11*
%TO.C,C26*%
X162274000Y127591500D03*
X162274000Y129316500D03*
%TD*%
D31*
%TO.C,D33*%
X249796999Y71382500D03*
X251696999Y71382500D03*
X250746999Y74382500D03*
%TD*%
D16*
%TO.C,R16*%
X178816000Y173435000D03*
X178816000Y175260000D03*
%TD*%
%TO.C,R57*%
X143640000Y94186500D03*
X143640000Y96011500D03*
%TD*%
D22*
%TO.C,U28*%
X212409000Y89662000D03*
X212409000Y88392000D03*
X212409000Y87122000D03*
X212409000Y85852000D03*
X212409000Y84582000D03*
X212409000Y83312000D03*
X212409000Y82042000D03*
X217359000Y82042000D03*
X217359000Y83312000D03*
X217359000Y84582000D03*
X217359000Y85852000D03*
X217359000Y87122000D03*
X217359000Y88392000D03*
X217359000Y89662000D03*
%TD*%
D16*
%TO.C,R10*%
X88138000Y188571500D03*
X88138000Y190396500D03*
%TD*%
D30*
%TO.C,R70*%
X175401999Y70874500D03*
X173576999Y70874500D03*
%TD*%
D32*
%TO.C,D9*%
X209040003Y190039000D03*
X207140003Y190039000D03*
X208090003Y187039000D03*
%TD*%
D33*
%TO.C,D5*%
X158750000Y173360000D03*
X158750000Y175260000D03*
X155750000Y174310000D03*
%TD*%
D18*
%TO.C,C51*%
X145861000Y101817000D03*
X147586000Y101817000D03*
%TD*%
D17*
%TO.C,R30*%
X152102000Y141171500D03*
X152102000Y139346500D03*
%TD*%
D18*
%TO.C,C47*%
X159370000Y108833000D03*
X161095000Y108833000D03*
%TD*%
D17*
%TO.C,R13*%
X162814000Y175307000D03*
X162814000Y173482000D03*
%TD*%
D16*
%TO.C,R73*%
X184577000Y67342500D03*
X184577000Y69167500D03*
%TD*%
D34*
%TO.C,D23*%
X213771500Y97495000D03*
X211721500Y97495000D03*
%TD*%
D11*
%TO.C,C46*%
X155560000Y94202000D03*
X155560000Y95927000D03*
%TD*%
D29*
%TO.C,D4*%
X130810000Y186953000D03*
X130810000Y184903000D03*
%TD*%
D11*
%TO.C,C14*%
X150070000Y139396500D03*
X150070000Y141121500D03*
%TD*%
D12*
%TO.C,D32*%
X254381000Y67064500D03*
X254381000Y69114500D03*
%TD*%
D17*
%TO.C,R79*%
X219215999Y72690000D03*
X219215999Y70865000D03*
%TD*%
D28*
%TO.C,C44*%
X157586000Y95725500D03*
X157586000Y94000500D03*
%TD*%
D35*
%TO.C,U17*%
X117336500Y109332500D03*
X117336500Y109982500D03*
X117336500Y110632500D03*
X117336500Y111282500D03*
X113111500Y111282500D03*
X113111500Y110632500D03*
X113111500Y109982500D03*
X113111500Y109332500D03*
%TD*%
D28*
%TO.C,C15*%
X111284000Y120874500D03*
X111284000Y119149500D03*
%TD*%
D30*
%TO.C,R39*%
X90527000Y113609500D03*
X88702000Y113609500D03*
%TD*%
D36*
%TO.C,U3*%
X234800001Y199708000D03*
X234800001Y198568000D03*
D37*
X239425001Y198953000D03*
X239425001Y195903000D03*
X242775001Y198953000D03*
X242775001Y195903000D03*
D36*
X234800001Y196288000D03*
X234800001Y195148000D03*
%TD*%
D13*
%TO.C,U13*%
X251391500Y136080000D03*
X251391500Y135430000D03*
X251391500Y134780000D03*
X251391500Y134130000D03*
X251391500Y133480000D03*
X251391500Y132830000D03*
X251391500Y132180000D03*
X251391500Y131530000D03*
X257116500Y131530000D03*
X257116500Y132180000D03*
X257116500Y132830000D03*
X257116500Y133480000D03*
X257116500Y134130000D03*
X257116500Y134780000D03*
X257116500Y135430000D03*
X257116500Y136080000D03*
%TD*%
D16*
%TO.C,R61*%
X151378000Y94138500D03*
X151378000Y95963500D03*
%TD*%
D30*
%TO.C,R81*%
X223502998Y70841000D03*
X221677998Y70841000D03*
%TD*%
D38*
%TO.C,R2*%
X211345003Y190571000D03*
X213170003Y190571000D03*
%TD*%
D16*
%TO.C,R38*%
X100380000Y106027000D03*
X100380000Y107852000D03*
%TD*%
D18*
%TO.C,C33*%
X108053000Y113609500D03*
X109778000Y113609500D03*
%TD*%
D17*
%TO.C,R17*%
X168148000Y175006000D03*
X168148000Y173181000D03*
%TD*%
D30*
%TO.C,R46*%
X114397000Y113355500D03*
X112572000Y113355500D03*
%TD*%
D29*
%TO.C,D2*%
X230110001Y194610000D03*
X230110001Y192560000D03*
%TD*%
D11*
%TO.C,C13*%
X162274000Y139529500D03*
X162274000Y141254500D03*
%TD*%
D26*
%TO.C,U31*%
X249691000Y61966500D03*
X249691000Y63106500D03*
D27*
X245066000Y62721500D03*
X245066000Y65771500D03*
X241716000Y62721500D03*
X241716000Y65771500D03*
D26*
X249691000Y65386500D03*
X249691000Y66526500D03*
%TD*%
D11*
%TO.C,C23*%
X149972000Y127672000D03*
X149972000Y129397000D03*
%TD*%
D16*
%TO.C,R18*%
X215632001Y188722000D03*
X215632001Y190547000D03*
%TD*%
D11*
%TO.C,C22*%
X158862000Y120110000D03*
X158862000Y121835000D03*
%TD*%
D17*
%TO.C,R27*%
X118760000Y141207000D03*
X118760000Y139382000D03*
%TD*%
D39*
%TO.C,C2*%
X114300000Y182477999D03*
X112575000Y182477999D03*
%TD*%
D11*
%TO.C,C18*%
X115614000Y129918500D03*
X115614000Y131643500D03*
%TD*%
D18*
%TO.C,C59*%
X127915500Y74624652D03*
X129640500Y74624652D03*
%TD*%
D11*
%TO.C,C52*%
X163682000Y93948000D03*
X163682000Y95673000D03*
%TD*%
D29*
%TO.C,F10*%
X138064000Y109849000D03*
X138064000Y107799000D03*
%TD*%
D12*
%TO.C,D27*%
X182291000Y67088500D03*
X182291000Y69138500D03*
%TD*%
D18*
%TO.C,C41*%
X116175000Y113355500D03*
X117900000Y113355500D03*
%TD*%
D16*
%TO.C,R51*%
X135630000Y94138500D03*
X135630000Y95963500D03*
%TD*%
D19*
%TO.C,D15*%
X117998000Y146247000D03*
X117998000Y143747000D03*
%TD*%
D20*
%TO.C,J16*%
X89930000Y133786000D03*
X89930000Y135036000D03*
X89930000Y136286000D03*
X89930000Y137536000D03*
D21*
X86580000Y131936000D03*
X86580000Y139386000D03*
%TD*%
D40*
%TO.C,U8*%
X141224000Y157734000D03*
X138924000Y157734000D03*
X136624000Y157734000D03*
D41*
X138924000Y151933999D03*
%TD*%
D30*
%TO.C,R103*%
X116825000Y89000000D03*
X115000000Y89000000D03*
%TD*%
D35*
%TO.C,U19*%
X154760500Y97746000D03*
X154760500Y98396000D03*
X154760500Y99046000D03*
X154760500Y99696000D03*
X150535500Y99696000D03*
X150535500Y99046000D03*
X150535500Y98396000D03*
X150535500Y97746000D03*
%TD*%
D30*
%TO.C,R32*%
X193590000Y163322000D03*
X191765000Y163322000D03*
%TD*%
D38*
%TO.C,R1*%
X99775000Y201930000D03*
X101600000Y201930000D03*
%TD*%
D30*
%TO.C,R63*%
X217585500Y94029000D03*
X215760500Y94029000D03*
%TD*%
D18*
%TO.C,C40*%
X137851000Y101769000D03*
X139576000Y101769000D03*
%TD*%
D16*
%TO.C,R12*%
X161290000Y173435000D03*
X161290000Y175260000D03*
%TD*%
D20*
%TO.C,J25*%
X135506000Y110151000D03*
X135506000Y111401000D03*
X135506000Y112651000D03*
X135506000Y113901000D03*
D21*
X132156000Y108301000D03*
X132156000Y115751000D03*
%TD*%
D14*
%TO.C,TC3*%
X107662000Y103703500D03*
X106412000Y103703500D03*
D15*
X109512000Y100353500D03*
X104562000Y100353500D03*
%TD*%
D16*
%TO.C,R41*%
X113954000Y105725000D03*
X113954000Y107550000D03*
%TD*%
D18*
%TO.C,C57*%
X112873595Y74978972D03*
X114598595Y74978972D03*
%TD*%
D38*
%TO.C,R35*%
X249785500Y163068000D03*
X251610500Y163068000D03*
%TD*%
D18*
%TO.C,C3*%
X108638000Y181610000D03*
X110363000Y181610000D03*
%TD*%
D29*
%TO.C,F7*%
X102648000Y133636500D03*
X102648000Y131586500D03*
%TD*%
D17*
%TO.C,R8*%
X276860000Y193802000D03*
X276860000Y191977000D03*
%TD*%
%TO.C,R3*%
X202170001Y194103000D03*
X202170001Y192278000D03*
%TD*%
D42*
%TO.C,U10*%
X108509998Y124023500D03*
X109010000Y124023500D03*
X109509999Y124023500D03*
X110009998Y124023500D03*
X110509999Y124023500D03*
X111009999Y124023500D03*
X111510000Y124023500D03*
X112009999Y124023500D03*
X112509998Y124023500D03*
X113010000Y124023500D03*
D43*
X113733801Y124747301D03*
X113733801Y125247303D03*
X113733801Y125747302D03*
X113733801Y126247301D03*
X113733801Y126747302D03*
X113733801Y127247302D03*
X113733801Y127747303D03*
X113733801Y128247302D03*
X113733801Y128747301D03*
X113733801Y129247303D03*
D42*
X113010000Y129971104D03*
X112509998Y129971104D03*
X112009999Y129971104D03*
X111510000Y129971104D03*
X111009999Y129971104D03*
X110509999Y129971104D03*
X110009998Y129971104D03*
X109509999Y129971104D03*
X109010000Y129971104D03*
X108509998Y129971104D03*
D43*
X107786197Y129247303D03*
X107786197Y128747301D03*
X107786197Y128247302D03*
X107786197Y127747303D03*
X107786197Y127247302D03*
X107786197Y126747302D03*
X107786197Y126247301D03*
X107786197Y125747302D03*
X107786197Y125247303D03*
X107786197Y124747301D03*
%TD*%
D16*
%TO.C,R59*%
X161786000Y93884500D03*
X161786000Y95709500D03*
%TD*%
D14*
%TO.C,TC8*%
X161330000Y91609000D03*
X160080000Y91609000D03*
D15*
X163180000Y88259000D03*
X158230000Y88259000D03*
%TD*%
D28*
%TO.C,C28*%
X88170000Y107820000D03*
X88170000Y106095000D03*
%TD*%
D23*
%TO.C,J11*%
X121284000Y144440500D03*
X121284000Y143190500D03*
X121284000Y141940500D03*
X121284000Y140690500D03*
D24*
X124634000Y146290500D03*
X124634000Y138840500D03*
%TD*%
D29*
%TO.C,F11*%
X148224000Y109846500D03*
X148224000Y107796500D03*
%TD*%
D31*
%TO.C,D25*%
X153657999Y71374000D03*
X155557999Y71374000D03*
X154607999Y74374000D03*
%TD*%
D28*
%TO.C,C5*%
X137922000Y190701000D03*
X137922000Y188976000D03*
%TD*%
D16*
%TO.C,R52*%
X137916000Y94138500D03*
X137916000Y95963500D03*
%TD*%
D30*
%TO.C,R20*%
X224028000Y167378000D03*
X222203000Y167378000D03*
%TD*%
D35*
%TO.C,U18*%
X139012500Y97746000D03*
X139012500Y98396000D03*
X139012500Y99046000D03*
X139012500Y99696000D03*
X134787500Y99696000D03*
X134787500Y99046000D03*
X134787500Y98396000D03*
X134787500Y97746000D03*
%TD*%
D34*
%TO.C,D22*%
X213759000Y93980000D03*
X211709000Y93980000D03*
%TD*%
D16*
%TO.C,R40*%
X98094000Y106027000D03*
X98094000Y107852000D03*
%TD*%
D18*
%TO.C,C21*%
X113824000Y120673500D03*
X115549000Y120673500D03*
%TD*%
D14*
%TO.C,TC5*%
X137460000Y91863000D03*
X136210000Y91863000D03*
D15*
X139310000Y88513000D03*
X134360000Y88513000D03*
%TD*%
D20*
%TO.C,J22*%
X145636000Y121906500D03*
X145636000Y123156500D03*
X145636000Y124406500D03*
X145636000Y125656500D03*
D21*
X142286000Y120056500D03*
X142286000Y127506500D03*
%TD*%
D42*
%TO.C,U11*%
X154055998Y112183000D03*
X154556000Y112183000D03*
X155055999Y112183000D03*
X155555998Y112183000D03*
X156055999Y112183000D03*
X156555999Y112183000D03*
X157056000Y112183000D03*
X157555999Y112183000D03*
X158055998Y112183000D03*
X158556000Y112183000D03*
D43*
X159279801Y112906801D03*
X159279801Y113406803D03*
X159279801Y113906802D03*
X159279801Y114406801D03*
X159279801Y114906802D03*
X159279801Y115406802D03*
X159279801Y115906803D03*
X159279801Y116406802D03*
X159279801Y116906801D03*
X159279801Y117406803D03*
D42*
X158556000Y118130604D03*
X158055998Y118130604D03*
X157555999Y118130604D03*
X157056000Y118130604D03*
X156555999Y118130604D03*
X156055999Y118130604D03*
X155555998Y118130604D03*
X155055999Y118130604D03*
X154556000Y118130604D03*
X154055998Y118130604D03*
D43*
X153332197Y117406803D03*
X153332197Y116906801D03*
X153332197Y116406802D03*
X153332197Y115906803D03*
X153332197Y115406802D03*
X153332197Y114906802D03*
X153332197Y114406801D03*
X153332197Y113906802D03*
X153332197Y113406803D03*
X153332197Y112906801D03*
%TD*%
D17*
%TO.C,R29*%
X164306000Y141304500D03*
X164306000Y139479500D03*
%TD*%
D23*
%TO.C,J21*%
X154528000Y132680500D03*
X154528000Y131430500D03*
X154528000Y130180500D03*
X154528000Y128930500D03*
D24*
X157878000Y134530500D03*
X157878000Y127080500D03*
%TD*%
D29*
%TO.C,F9*%
X148194000Y121796000D03*
X148194000Y119746000D03*
%TD*%
D38*
%TO.C,R4*%
X236999003Y190824000D03*
X238824003Y190824000D03*
%TD*%
D11*
%TO.C,C49*%
X147822000Y94250000D03*
X147822000Y95975000D03*
%TD*%
D26*
%TO.C,U26*%
X153552000Y61958000D03*
X153552000Y63098000D03*
D27*
X148927000Y62713000D03*
X148927000Y65763000D03*
X145577000Y62713000D03*
X145577000Y65763000D03*
D26*
X153552000Y65378000D03*
X153552000Y66518000D03*
%TD*%
D17*
%TO.C,R75*%
X195245000Y72723500D03*
X195245000Y70898500D03*
%TD*%
D16*
%TO.C,R56*%
X153664000Y94138500D03*
X153664000Y95963500D03*
%TD*%
D18*
%TO.C,C48*%
X161721000Y101515000D03*
X163446000Y101515000D03*
%TD*%
D12*
%TO.C,D24*%
X158242000Y67056000D03*
X158242000Y69106000D03*
%TD*%
D16*
%TO.C,R80*%
X232677999Y67309000D03*
X232677999Y69134000D03*
%TD*%
D44*
%TO.C,U24*%
X115641095Y72620320D03*
X114371095Y72620320D03*
X113101095Y72620320D03*
X111831095Y72620320D03*
X111831095Y67177624D03*
X113101095Y67177624D03*
X114371095Y67177624D03*
X115641095Y67177624D03*
%TD*%
D30*
%TO.C,R55*%
X151821000Y101769000D03*
X149996000Y101769000D03*
%TD*%
%TO.C,R68*%
X151352999Y70842000D03*
X149527999Y70842000D03*
%TD*%
D26*
%TO.C,U30*%
X225701999Y61957000D03*
X225701999Y63097000D03*
D27*
X221076999Y62712000D03*
X221076999Y65762000D03*
X217726999Y62712000D03*
X217726999Y65762000D03*
D26*
X225701999Y65377000D03*
X225701999Y66517000D03*
%TD*%
D17*
%TO.C,R11*%
X130810000Y190532500D03*
X130810000Y188707500D03*
%TD*%
D30*
%TO.C,R62*%
X217598000Y97536000D03*
X215773000Y97536000D03*
%TD*%
D31*
%TO.C,D26*%
X177706999Y71406500D03*
X179606999Y71406500D03*
X178656999Y74406500D03*
%TD*%
D11*
%TO.C,C6*%
X259588000Y165608000D03*
X259588000Y167333000D03*
%TD*%
D16*
%TO.C,R21*%
X241286001Y188975000D03*
X241286001Y190800000D03*
%TD*%
D11*
%TO.C,C56*%
X261366000Y97081000D03*
X261366000Y98806000D03*
%TD*%
D36*
%TO.C,U2*%
X209146001Y199455000D03*
X209146001Y198315000D03*
D37*
X213771001Y198700000D03*
X213771001Y195650000D03*
X217121001Y198700000D03*
X217121001Y195650000D03*
D36*
X209146001Y196035000D03*
X209146001Y194895000D03*
%TD*%
D32*
%TO.C,D12*%
X259981002Y190293000D03*
X258081002Y190293000D03*
X259031002Y187293000D03*
%TD*%
D11*
%TO.C,C29*%
X102276000Y106090500D03*
X102276000Y107815500D03*
%TD*%
D16*
%TO.C,R44*%
X92370000Y105979000D03*
X92370000Y107804000D03*
%TD*%
%TO.C,R76*%
X208707000Y67342500D03*
X208707000Y69167500D03*
%TD*%
D30*
%TO.C,R43*%
X98537000Y113657500D03*
X96712000Y113657500D03*
%TD*%
D16*
%TO.C,R42*%
X108118000Y105979000D03*
X108118000Y107804000D03*
%TD*%
D34*
%TO.C,D19*%
X220201500Y164432000D03*
X218151500Y164432000D03*
%TD*%
D38*
%TO.C,R82*%
X245619999Y72628500D03*
X247444999Y72628500D03*
%TD*%
D14*
%TO.C,TC4*%
X115784000Y103449500D03*
X114534000Y103449500D03*
D15*
X117634000Y100099500D03*
X112684000Y100099500D03*
%TD*%
D34*
%TO.C,FB1*%
X137940000Y196215000D03*
X135890000Y196215000D03*
%TD*%
D29*
%TO.C,F3*%
X133604000Y157997000D03*
X133604000Y155947000D03*
%TD*%
D30*
%TO.C,R22*%
X238871003Y189046000D03*
X237046003Y189046000D03*
%TD*%
%TO.C,R33*%
X224028000Y164465000D03*
X222203000Y164465000D03*
%TD*%
D28*
%TO.C,C53*%
X156830000Y109034000D03*
X156830000Y107309000D03*
%TD*%
D38*
%TO.C,R104*%
X197000000Y187000000D03*
X198825000Y187000000D03*
%TD*%
D19*
%TO.C,D14*%
X105794000Y158052000D03*
X105794000Y155552000D03*
%TD*%
D30*
%TO.C,R83*%
X247491999Y70850500D03*
X245666999Y70850500D03*
%TD*%
D14*
%TO.C,TC7*%
X145470000Y91911000D03*
X144220000Y91911000D03*
D15*
X147320000Y88561000D03*
X142370000Y88561000D03*
%TD*%
D14*
%TO.C,TC2*%
X91914000Y103703500D03*
X90664000Y103703500D03*
D15*
X93764000Y100353500D03*
X88814000Y100353500D03*
%TD*%
D38*
%TO.C,R72*%
X173529999Y72652500D03*
X175354999Y72652500D03*
%TD*%
D30*
%TO.C,R54*%
X159943000Y101515000D03*
X158118000Y101515000D03*
%TD*%
D17*
%TO.C,R5*%
X227824001Y194356000D03*
X227824001Y192531000D03*
%TD*%
D30*
%TO.C,R34*%
X259381000Y163068000D03*
X257556000Y163068000D03*
%TD*%
D20*
%TO.C,J19*%
X100090000Y133747000D03*
X100090000Y134997000D03*
X100090000Y136247000D03*
X100090000Y137497000D03*
D21*
X96740000Y131897000D03*
X96740000Y139347000D03*
%TD*%
D38*
%TO.C,R67*%
X149480999Y72620000D03*
X151305999Y72620000D03*
%TD*%
D39*
%TO.C,C12*%
X141832500Y161036000D03*
X140107500Y161036000D03*
%TD*%
D17*
%TO.C,R25*%
X106458000Y141287500D03*
X106458000Y139462500D03*
%TD*%
%TO.C,R69*%
X147066000Y72691000D03*
X147066000Y70866000D03*
%TD*%
D20*
%TO.C,J18*%
X100120000Y121797500D03*
X100120000Y123047500D03*
X100120000Y124297500D03*
X100120000Y125547500D03*
D21*
X96770000Y119947500D03*
X96770000Y127397500D03*
%TD*%
D31*
%TO.C,D31*%
X225807998Y71373000D03*
X227707998Y71373000D03*
X226757998Y74373000D03*
%TD*%
D35*
%TO.C,U14*%
X109214500Y109586500D03*
X109214500Y110236500D03*
X109214500Y110886500D03*
X109214500Y111536500D03*
X104989500Y111536500D03*
X104989500Y110886500D03*
X104989500Y110236500D03*
X104989500Y109586500D03*
%TD*%
D34*
%TO.C,D11*%
X220201500Y167353000D03*
X218151500Y167353000D03*
%TD*%
D18*
%TO.C,C55*%
X159370000Y110357000D03*
X161095000Y110357000D03*
%TD*%
D16*
%TO.C,R23*%
X266573000Y188976000D03*
X266573000Y190801000D03*
%TD*%
D11*
%TO.C,C24*%
X161160000Y118078000D03*
X161160000Y119803000D03*
%TD*%
%TO.C,C32*%
X110014000Y106042500D03*
X110014000Y107767500D03*
%TD*%
%TO.C,C11*%
X116728000Y139432000D03*
X116728000Y141157000D03*
%TD*%
D23*
%TO.C,J9*%
X109080000Y156245500D03*
X109080000Y154995500D03*
X109080000Y153745500D03*
X109080000Y152495500D03*
D24*
X112430000Y158095500D03*
X112430000Y150645500D03*
%TD*%
D18*
%TO.C,C30*%
X92305000Y113609500D03*
X94030000Y113609500D03*
%TD*%
D30*
%TO.C,R60*%
X144083000Y101817000D03*
X142258000Y101817000D03*
%TD*%
D23*
%TO.C,J23*%
X166830000Y132600000D03*
X166830000Y131350000D03*
X166830000Y130100000D03*
X166830000Y128850000D03*
D24*
X170180000Y134450000D03*
X170180000Y127000000D03*
%TD*%
D14*
%TO.C,TC1*%
X99924000Y103751500D03*
X98674000Y103751500D03*
D15*
X101774000Y100401500D03*
X96824000Y100401500D03*
%TD*%
D38*
%TO.C,R78*%
X221630998Y72619000D03*
X223455998Y72619000D03*
%TD*%
D29*
%TO.C,F8*%
X138034000Y121835000D03*
X138034000Y119785000D03*
%TD*%
D28*
%TO.C,C38*%
X133716000Y95979500D03*
X133716000Y94254500D03*
%TD*%
D31*
%TO.C,D28*%
X201836999Y71406500D03*
X203736999Y71406500D03*
X202786999Y74406500D03*
%TD*%
D16*
%TO.C,R45*%
X105832000Y105979000D03*
X105832000Y107804000D03*
%TD*%
D19*
%TO.C,D21*%
X151242000Y134487000D03*
X151242000Y131987000D03*
%TD*%
D20*
%TO.C,J17*%
X89960000Y121991500D03*
X89960000Y123241500D03*
X89960000Y124491500D03*
X89960000Y125741500D03*
D21*
X86610000Y120141500D03*
X86610000Y127591500D03*
%TD*%
D11*
%TO.C,C39*%
X118136000Y105788500D03*
X118136000Y107513500D03*
%TD*%
D18*
%TO.C,C19*%
X113824000Y119149500D03*
X115549000Y119149500D03*
%TD*%
D20*
%TO.C,J20*%
X135476000Y121945500D03*
X135476000Y123195500D03*
X135476000Y124445500D03*
X135476000Y125695500D03*
D21*
X132126000Y120095500D03*
X132126000Y127545500D03*
%TD*%
D30*
%TO.C,R87*%
X127809000Y62484000D03*
X125984000Y62484000D03*
%TD*%
D19*
%TO.C,D20*%
X163544000Y134406500D03*
X163544000Y131906500D03*
%TD*%
D14*
%TO.C,J29*%
X115316000Y56388000D03*
X114066000Y56388000D03*
X112816000Y56388000D03*
X111566000Y56388000D03*
D15*
X117166000Y53038000D03*
X109716000Y53038000D03*
%TD*%
D30*
%TO.C,R31*%
X202485000Y160274000D03*
X200660000Y160274000D03*
%TD*%
D38*
%TO.C,R6*%
X262286002Y190825000D03*
X264111002Y190825000D03*
%TD*%
D11*
%TO.C,C8*%
X104524000Y151237000D03*
X104524000Y152962000D03*
%TD*%
D13*
%TO.C,U7*%
X251656000Y169964000D03*
X251656000Y169314000D03*
X251656000Y168664000D03*
X251656000Y168014000D03*
X251656000Y167364000D03*
X251656000Y166714000D03*
X251656000Y166064000D03*
X251656000Y165414000D03*
X257381000Y165414000D03*
X257381000Y166064000D03*
X257381000Y166714000D03*
X257381000Y167364000D03*
X257381000Y168014000D03*
X257381000Y168664000D03*
X257381000Y169314000D03*
X257381000Y169964000D03*
%TD*%
D35*
%TO.C,U16*%
X93466500Y109586500D03*
X93466500Y110236500D03*
X93466500Y110886500D03*
X93466500Y111536500D03*
X89241500Y111536500D03*
X89241500Y110886500D03*
X89241500Y110236500D03*
X89241500Y109586500D03*
%TD*%
D44*
%TO.C,U25*%
X130768000Y72266000D03*
X129498000Y72266000D03*
X128228000Y72266000D03*
X126958000Y72266000D03*
X126958000Y66823304D03*
X128228000Y66823304D03*
X129498000Y66823304D03*
X130768000Y66823304D03*
%TD*%
D19*
%TO.C,D13*%
X105696000Y146327500D03*
X105696000Y143827500D03*
%TD*%
D30*
%TO.C,R48*%
X106275000Y113609500D03*
X104450000Y113609500D03*
%TD*%
D17*
%TO.C,R14*%
X186925000Y174902500D03*
X186925000Y173077500D03*
%TD*%
D12*
%TO.C,D6*%
X184150000Y173210000D03*
X184150000Y175260000D03*
%TD*%
D28*
%TO.C,C36*%
X112040000Y107566000D03*
X112040000Y105841000D03*
%TD*%
D17*
%TO.C,R37*%
X152004000Y129447000D03*
X152004000Y127622000D03*
%TD*%
%TO.C,R15*%
X180848000Y175307000D03*
X180848000Y173482000D03*
%TD*%
D30*
%TO.C,R50*%
X136073000Y101769000D03*
X134248000Y101769000D03*
%TD*%
D11*
%TO.C,C37*%
X94266000Y106042500D03*
X94266000Y107767500D03*
%TD*%
D30*
%TO.C,R64*%
X112649000Y63627000D03*
X110824000Y63627000D03*
%TD*%
D17*
%TO.C,R71*%
X171115000Y72723500D03*
X171115000Y70898500D03*
%TD*%
D28*
%TO.C,C35*%
X103918000Y107820000D03*
X103918000Y106095000D03*
%TD*%
D11*
%TO.C,C27*%
X260096000Y131572000D03*
X260096000Y133297000D03*
%TD*%
D29*
%TO.C,F4*%
X92518000Y121689500D03*
X92518000Y119639500D03*
%TD*%
D18*
%TO.C,C50*%
X153599000Y101769000D03*
X155324000Y101769000D03*
%TD*%
D11*
%TO.C,C60*%
X124799000Y66678000D03*
X124799000Y68403000D03*
%TD*%
D18*
%TO.C,C20*%
X113824000Y122197500D03*
X115549000Y122197500D03*
%TD*%
D35*
%TO.C,U20*%
X162882500Y97492000D03*
X162882500Y98142000D03*
X162882500Y98792000D03*
X162882500Y99442000D03*
X158657500Y99442000D03*
X158657500Y98792000D03*
X158657500Y98142000D03*
X158657500Y97492000D03*
%TD*%
D16*
%TO.C,R86*%
X276860000Y66294000D03*
X276860000Y68119000D03*
%TD*%
%TO.C,R85*%
X256667000Y67318500D03*
X256667000Y69143500D03*
%TD*%
D36*
%TO.C,U4*%
X260087000Y199709000D03*
X260087000Y198569000D03*
D37*
X264712000Y198954000D03*
X264712000Y195904000D03*
X268062000Y198954000D03*
X268062000Y195904000D03*
D36*
X260087000Y196289000D03*
X260087000Y195149000D03*
%TD*%
D28*
%TO.C,C31*%
X96180000Y107868000D03*
X96180000Y106143000D03*
%TD*%
D11*
%TO.C,C4*%
X137922000Y185166000D03*
X137922000Y186891000D03*
%TD*%
D30*
%TO.C,R24*%
X264158002Y189047000D03*
X262333002Y189047000D03*
%TD*%
D11*
%TO.C,C25*%
X157338000Y120110000D03*
X157338000Y121835000D03*
%TD*%
D23*
%TO.C,J14*%
X166830000Y144538000D03*
X166830000Y143288000D03*
X166830000Y142038000D03*
X166830000Y140788000D03*
D24*
X170180000Y146388000D03*
X170180000Y138938000D03*
%TD*%
D19*
%TO.C,D16*%
X117998000Y158185000D03*
X117998000Y155685000D03*
%TD*%
D17*
%TO.C,R28*%
X118760000Y153145000D03*
X118760000Y151320000D03*
%TD*%
D16*
%TO.C,R66*%
X160528000Y67310000D03*
X160528000Y69135000D03*
%TD*%
D12*
%TO.C,D29*%
X206421000Y67088500D03*
X206421000Y69138500D03*
%TD*%
D19*
%TO.C,D17*%
X163544000Y146344500D03*
X163544000Y143844500D03*
%TD*%
D29*
%TO.C,F6*%
X102678000Y121687000D03*
X102678000Y119637000D03*
%TD*%
D28*
%TO.C,C43*%
X141726000Y96027500D03*
X141726000Y94302500D03*
%TD*%
D32*
%TO.C,D10*%
X234694003Y190292000D03*
X232794003Y190292000D03*
X233744003Y187292000D03*
%TD*%
D11*
%TO.C,C58*%
X109672095Y66903972D03*
X109672095Y68628972D03*
%TD*%
D18*
%TO.C,C34*%
X100315000Y113657500D03*
X102040000Y113657500D03*
%TD*%
D38*
%TO.C,R77*%
X197659999Y72652500D03*
X199484999Y72652500D03*
%TD*%
D14*
%TO.C,J30*%
X130738000Y56182000D03*
X129488000Y56182000D03*
X128238000Y56182000D03*
X126988000Y56182000D03*
D15*
X132588000Y52832000D03*
X125138000Y52832000D03*
%TD*%
D12*
%TO.C,D8*%
X165608000Y173210000D03*
X165608000Y175260000D03*
%TD*%
D16*
%TO.C,R65*%
X91440000Y66294000D03*
X91440000Y68119000D03*
%TD*%
%TO.C,R53*%
X145926000Y94186500D03*
X145926000Y96011500D03*
%TD*%
%TO.C,R47*%
X90084000Y105979000D03*
X90084000Y107804000D03*
%TD*%
D11*
%TO.C,C17*%
X113316000Y131950500D03*
X113316000Y133675500D03*
%TD*%
D30*
%TO.C,R74*%
X199531999Y70874500D03*
X197706999Y70874500D03*
%TD*%
D16*
%TO.C,R58*%
X159500000Y93884500D03*
X159500000Y95709500D03*
%TD*%
D33*
%TO.C,D7*%
X176482000Y173294000D03*
X176482000Y175194000D03*
X173482000Y174244000D03*
%TD*%
D17*
%TO.C,R7*%
X253111000Y194357000D03*
X253111000Y192532000D03*
%TD*%
D35*
%TO.C,U21*%
X147022500Y97794000D03*
X147022500Y98444000D03*
X147022500Y99094000D03*
X147022500Y99744000D03*
X142797500Y99744000D03*
X142797500Y99094000D03*
X142797500Y98444000D03*
X142797500Y97794000D03*
%TD*%
D11*
%TO.C,C16*%
X111792000Y131950500D03*
X111792000Y133675500D03*
%TD*%
D35*
%TO.C,U15*%
X101476500Y109634500D03*
X101476500Y110284500D03*
X101476500Y110934500D03*
X101476500Y111584500D03*
X97251500Y111584500D03*
X97251500Y110934500D03*
X97251500Y110284500D03*
X97251500Y109634500D03*
%TD*%
D45*
%TO.C,U5*%
X140614000Y190260000D03*
X140614000Y187960000D03*
X140614000Y185660000D03*
D46*
X146914000Y187960000D03*
%TD*%
D26*
%TO.C,U27*%
X177601000Y61990500D03*
X177601000Y63130500D03*
D27*
X172976000Y62745500D03*
X172976000Y65795500D03*
X169626000Y62745500D03*
X169626000Y65795500D03*
D26*
X177601000Y65410500D03*
X177601000Y66550500D03*
%TD*%
D17*
%TO.C,R36*%
X164306000Y129366500D03*
X164306000Y127541500D03*
%TD*%
D11*
%TO.C,C7*%
X104426000Y139512500D03*
X104426000Y141237500D03*
%TD*%
D29*
%TO.C,D1*%
X204456001Y194357000D03*
X204456001Y192307000D03*
%TD*%
%TO.C,F5*%
X92488000Y133675500D03*
X92488000Y131625500D03*
%TD*%
D23*
%TO.C,J13*%
X154626000Y144405000D03*
X154626000Y143155000D03*
X154626000Y141905000D03*
X154626000Y140655000D03*
D24*
X157976000Y146255000D03*
X157976000Y138805000D03*
%TD*%
M02*
